<?xml version="1.0" encoding="UTF-8" standalone="no"?>
<!-- Created with Inkscape (http://www.inkscape.org/) -->

<svg
   xmlns:dc="http://purl.org/dc/elements/1.1/"
   xmlns:cc="http://creativecommons.org/ns#"
   xmlns:rdf="http://www.w3.org/1999/02/22-rdf-syntax-ns#"
   xmlns:svg="http://www.w3.org/2000/svg"
   xmlns="http://www.w3.org/2000/svg"
   xmlns:sodipodi="http://sodipodi.sourceforge.net/DTD/sodipodi-0.dtd"
   xmlns:inkscape="http://www.inkscape.org/namespaces/inkscape"
   id="svg12687"
   version="1.1"
   inkscape:version="0.91 r13725"
   xml:space="preserve"
   width="859.76624"
   height="840.54565"
   viewBox="0 0 859.76624 840.54565"
   sodipodi:docname="congas.svg"><metadata
     id="metadata12693"><rdf:RDF><cc:Work
         rdf:about=""><dc:format>image/svg+xml</dc:format><dc:type
           rdf:resource="http://purl.org/dc/dcmitype/StillImage" /><dc:title></dc:title></cc:Work></rdf:RDF></metadata><defs
     id="defs12691"><clipPath
       clipPathUnits="userSpaceOnUse"
       id="clipPath12701"><path
         d="m 0,1080 1920,0 L 1920,0 0,0 0,1080 Z"
         id="path12703"
         inkscape:connector-curvature="0" /></clipPath><clipPath
       clipPathUnits="userSpaceOnUse"
       id="clipPath12713"><path
         d="m 919.748,770.839 13.039,0 0,-82.606 -13.039,0 0,82.606 z"
         id="path12715"
         inkscape:connector-curvature="0" /></clipPath><clipPath
       clipPathUnits="userSpaceOnUse"
       id="clipPath12753"><path
         d="m 1206.14,770.839 13.03,0 0,-82.606 -13.03,0 0,82.606 z"
         id="path12755"
         inkscape:connector-curvature="0" /></clipPath><clipPath
       clipPathUnits="userSpaceOnUse"
       id="clipPath12793"><path
         d="m 1014.05,802.87 107.15,0 0,-624.046 -107.15,0 0,624.046 z"
         id="path12795"
         inkscape:connector-curvature="0" /></clipPath><clipPath
       clipPathUnits="userSpaceOnUse"
       id="clipPath12841"><path
         d="m 1165,783.189 10.5,0 0,-95.206 -10.5,0 0,95.206 z"
         id="path12843"
         inkscape:connector-curvature="0" /></clipPath><clipPath
       clipPathUnits="userSpaceOnUse"
       id="clipPath12869"><path
         d="m 1160.82,703.798 7.9,0 0,-9.892 -7.9,0 0,9.892 z"
         id="path12871"
         inkscape:connector-curvature="0" /></clipPath><clipPath
       clipPathUnits="userSpaceOnUse"
       id="clipPath12889"><path
         d="m 1162.56,646.72 4.82,0 0,-6.944 -4.82,0 0,6.944 z"
         id="path12891"
         inkscape:connector-curvature="0" /></clipPath><clipPath
       clipPathUnits="userSpaceOnUse"
       id="clipPath12925"><path
         d="m 973.452,783.189 10.492,0 0,-95.206 -10.492,0 0,95.206 z"
         id="path12927"
         inkscape:connector-curvature="0" /></clipPath><clipPath
       clipPathUnits="userSpaceOnUse"
       id="clipPath12953"><path
         d="m 980.225,703.798 7.9,0 0,-9.892 -7.9,0 0,9.892 z"
         id="path12955"
         inkscape:connector-curvature="0" /></clipPath><clipPath
       clipPathUnits="userSpaceOnUse"
       id="clipPath12973"><path
         d="m 981.572,646.72 4.811,0 0,-6.944 -4.811,0 0,6.944 z"
         id="path12975"
         inkscape:connector-curvature="0" /></clipPath><clipPath
       clipPathUnits="userSpaceOnUse"
       id="clipPath13005"><path
         d="m 545.748,770.839 13.039,0 0,-82.606 -13.039,0 0,82.606 z"
         id="path13007"
         inkscape:connector-curvature="0" /></clipPath><clipPath
       clipPathUnits="userSpaceOnUse"
       id="clipPath13045"><path
         d="m 832.135,770.839 13.04,0 0,-82.606 -13.04,0 0,82.606 z"
         id="path13047"
         inkscape:connector-curvature="0" /></clipPath><clipPath
       clipPathUnits="userSpaceOnUse"
       id="clipPath13085"><path
         d="m 640.049,802.87 107.154,0 0,-624.046 -107.154,0 0,624.046 z"
         id="path13087"
         inkscape:connector-curvature="0" /></clipPath><clipPath
       clipPathUnits="userSpaceOnUse"
       id="clipPath13133"><path
         d="m 791.004,783.189 10.492,0 0,-95.206 -10.492,0 0,95.206 z"
         id="path13135"
         inkscape:connector-curvature="0" /></clipPath><clipPath
       clipPathUnits="userSpaceOnUse"
       id="clipPath13161"><path
         d="m 786.823,703.798 7.9,0 0,-9.892 -7.9,0 0,9.892 z"
         id="path13163"
         inkscape:connector-curvature="0" /></clipPath><clipPath
       clipPathUnits="userSpaceOnUse"
       id="clipPath13181"><path
         d="m 788.565,646.72 4.811,0 0,-6.944 -4.811,0 0,6.944 z"
         id="path13183"
         inkscape:connector-curvature="0" /></clipPath><clipPath
       clipPathUnits="userSpaceOnUse"
       id="clipPath13217"><path
         d="m 599.452,783.189 10.492,0 0,-95.206 -10.492,0 0,95.206 z"
         id="path13219"
         inkscape:connector-curvature="0" /></clipPath><clipPath
       clipPathUnits="userSpaceOnUse"
       id="clipPath13245"><path
         d="m 606.225,703.798 7.9,0 0,-9.892 -7.9,0 0,9.892 z"
         id="path13247"
         inkscape:connector-curvature="0" /></clipPath><clipPath
       clipPathUnits="userSpaceOnUse"
       id="clipPath13265"><path
         d="m 607.572,646.72 4.811,0 0,-6.944 -4.811,0 0,6.944 z"
         id="path13267"
         inkscape:connector-curvature="0" /></clipPath></defs><sodipodi:namedview
     pagecolor="#ffffff"
     bordercolor="#666666"
     borderopacity="1"
     objecttolerance="10"
     gridtolerance="10"
     guidetolerance="10"
     inkscape:pageopacity="0"
     inkscape:pageshadow="2"
     inkscape:window-width="1920"
     inkscape:window-height="1137"
     id="namedview12689"
     showgrid="false"
     fit-margin-top="0"
     fit-margin-left="0"
     fit-margin-right="0"
     fit-margin-bottom="0"
     inkscape:zoom="0.13875"
     inkscape:cx="526.80656"
     inkscape:cy="471.79575"
     inkscape:window-x="-8"
     inkscape:window-y="-8"
     inkscape:window-maximized="1"
     inkscape:current-layer="g12695" /><g
     id="g12695"
     inkscape:groupmode="layer"
     inkscape:label="Congas"
     transform="matrix(1.25,0,0,-1.25,-673.19344,1043.7499)"><g
       id="g12697"><g
         id="g12699"
         clip-path="url(#clipPath12701)"><g
           id="g12705"
           transform="translate(934.1768,768.7061)"><path
             d="M 0,0 C 0.443,1.075 -0.414,2.251 -1.57,2.129 -2.862,1.994 -4.59,1.475 -6.529,0.004 c -5.4,-4.095 -4.449,-29.344 -4.449,-29.344 0.249,-23.889 -0.613,-33.687 -3.425,-49.225 -0.158,-0.873 0.403,-1.715 1.269,-1.908 l 2.172,-0.483 c 0.985,-0.22 1.936,0.487 2.01,1.495 l 2.632,36.077 c 0.164,2.079 0.19,4.167 0.076,6.25 l -0.333,21.175 c 0.661,5.455 2.024,9.288 4.144,11.372 0.66,0.649 1.143,1.456 1.496,2.312 L 0,0 Z"
             style="fill:#ece6e6;fill-opacity:1;fill-rule:nonzero;stroke:none"
             id="path12707"
             inkscape:connector-curvature="0" /></g><g
           id="g12709"><g
             id="g12711" /><g
             id="g12717"><g
               clip-path="url(#clipPath12713)"
               id="g12719"
               style="opacity:0.30000299"><g
                 transform="translate(932.6064,770.8354)"
                 id="g12721"><path
                   d="m 0,0 c -1.292,-0.136 -3.02,-0.655 -4.959,-2.125 -5.399,-4.095 -4.448,-29.344 -4.448,-29.344 0.249,-23.889 -0.614,-33.688 -3.426,-49.226 -0.157,-0.872 0.404,-1.714 1.27,-1.907 0,0 3.577,29.919 3.679,34.733 0.102,4.813 -0.478,23.105 0.253,29.083 0.73,5.978 1.266,12.587 3.386,14.671 C -3.584,-3.466 1.156,0.122 0,0"
                   style="fill:#8c8c8c;fill-opacity:1;fill-rule:nonzero;stroke:none"
                   id="path12723"
                   inkscape:connector-curvature="0" /></g></g></g></g><g
           id="g12725"
           transform="translate(913.1577,673.8052)"><path
             d="m 0,0 c 0.424,5.375 2.918,14.777 3.712,16.874 0.146,0.841 0.957,1.397 1.794,1.23 l 16.035,-3.191 c 0.829,-0.165 1.376,-0.961 1.233,-1.795 L 20.048,-3.405 C 14.148,-0.678 7.952,-0.407 0,0"
             style="fill:#211926;fill-opacity:1;fill-rule:nonzero;stroke:none"
             id="path12727"
             inkscape:connector-curvature="0" /></g><g
           id="g12729"
           transform="translate(916.394,665.1597)"><path
             d="m 0,0 c 0.877,-0.87 0.666,-1.43 -0.225,-1.797 1,-0.422 0.675,-0.835 -0.156,-1.245 0.917,-0.773 1.121,-1.438 -0.234,-1.866 0.688,-0.734 1.486,-1.498 -0.199,-1.59 1.19,-0.835 0.951,-1.31 -0.195,-1.555 1.049,-0.739 1.386,-1.389 -0.225,-1.798 l -0.234,-1.866 6.335,-0.793 c 0,0 -0.465,2.059 0.247,1.969 -0.759,0.096 -0.634,1.098 0.126,1.003 -0.443,0.793 -0.821,1.302 0.208,1.659 -0.665,0.083 -0.435,1.915 0.229,1.832 -1.044,0.13 -0.866,1.548 0.177,1.417 -0.806,0.101 -0.655,1.311 0.152,1.21 -0.712,0.089 -0.418,2.439 0.294,2.35 L 0,0 Z"
             style="fill:#736d79;fill-opacity:1;fill-rule:nonzero;stroke:none"
             id="path12731"
             inkscape:connector-curvature="0" /></g><g
           id="g12733"
           transform="translate(914.9414,668.3091)"><path
             d="m 0,0 c -0.299,-1.394 -0.321,-3.048 -0.308,-3.923 0.006,-0.361 0.247,-0.664 0.581,-0.736 L 1.456,-4.914 C 1.481,-4.919 1.507,-4.923 1.533,-4.926 L 7.129,-5.491 9.316,-5.7 c 0.373,-0.036 0.712,0.233 0.786,0.621 l 0.687,3.655 c 0.082,0.436 -0.201,0.853 -0.618,0.91 C 8.266,-0.251 3.299,0.416 0.766,0.604 0.404,0.631 0.08,0.374 0,0"
             style="fill:#b5b5b5;fill-opacity:1;fill-rule:nonzero;stroke:none"
             id="path12735"
             inkscape:connector-curvature="0" /></g><g
           id="g12737"
           transform="translate(913.8428,654.5386)"><path
             d="m 0,0 c 0,0 -3.218,-9.789 2.76,-10.89 5.978,-1.102 5.374,9.685 5.374,9.685 C 5.352,0.112 2.634,0.598 0,0"
             style="fill:#16101a;fill-opacity:1;fill-rule:nonzero;stroke:none"
             id="path12739"
             inkscape:connector-curvature="0" /></g><g
           id="g12741"
           transform="translate(933.2061,670.3999)"><path
             d="m 0,0 c -0.852,0.937 -5.25,2.696 -10.779,2.961 -5.529,0.265 -9.269,0.444 -9.269,0.444 0,0 -2.073,-2.426 1.466,-3.411 3.539,-0.985 15.654,-1.565 16.874,-1.624 C -0.488,-1.688 0.852,-0.937 0,0"
             style="fill:#a3aab0;fill-opacity:1;fill-rule:nonzero;stroke:none"
             id="path12743"
             inkscape:connector-curvature="0" /></g><g
           id="g12745"
           transform="translate(1204.7461,768.7061)"><path
             d="M 0,0 C -0.443,1.075 0.414,2.251 1.57,2.129 2.861,1.994 4.59,1.475 6.528,0.004 c 5.401,-4.095 4.45,-29.344 4.45,-29.344 -0.249,-23.889 0.613,-33.687 3.424,-49.225 0.159,-0.873 -0.403,-1.715 -1.268,-1.908 l -2.172,-0.483 c -0.985,-0.22 -1.937,0.487 -2.01,1.495 l -2.633,36.077 c -0.164,2.079 -0.189,4.167 -0.076,6.25 l 0.334,21.175 C 5.916,-10.504 4.553,-6.671 2.433,-4.587 1.772,-3.938 1.29,-3.131 0.937,-2.275 L 0,0 Z"
             style="fill:#ece6e6;fill-opacity:1;fill-rule:nonzero;stroke:none"
             id="path12747"
             inkscape:connector-curvature="0" /></g><g
           id="g12749"><g
             id="g12751" /><g
             id="g12757"><g
               clip-path="url(#clipPath12753)"
               id="g12759"
               style="opacity:0.30000299"><g
                 transform="translate(1206.3164,770.8354)"
                 id="g12761"><path
                   d="m 0,0 c 1.291,-0.136 3.02,-0.655 4.958,-2.125 5.4,-4.095 4.449,-29.344 4.449,-29.344 -0.249,-23.889 0.614,-33.688 3.425,-49.226 0.158,-0.872 -0.403,-1.714 -1.269,-1.907 0,0 -3.578,29.919 -3.679,34.733 -0.102,4.813 0.478,23.105 -0.253,29.083 C 6.9,-12.808 6.364,-6.199 4.244,-4.115 3.584,-3.466 -1.156,0.122 0,0"
                   style="fill:#8c8c8c;fill-opacity:1;fill-rule:nonzero;stroke:none"
                   id="path12763"
                   inkscape:connector-curvature="0" /></g></g></g></g><g
           id="g12765"
           transform="translate(1225.7646,673.8052)"><path
             d="m 0,0 c -0.424,5.375 -2.918,14.777 -3.713,16.874 -0.145,0.841 -0.956,1.397 -1.793,1.23 L -21.54,14.913 c -0.83,-0.165 -1.377,-0.961 -1.233,-1.795 l 2.724,-16.523 C -14.148,-0.678 -7.952,-0.407 0,0"
             style="fill:#211926;fill-opacity:1;fill-rule:nonzero;stroke:none"
             id="path12767"
             inkscape:connector-curvature="0" /></g><g
           id="g12769"
           transform="translate(1222.5283,665.1597)"><path
             d="m 0,0 c -0.877,-0.87 -0.666,-1.43 0.226,-1.797 -1,-0.422 -0.675,-0.835 0.155,-1.245 -0.916,-0.773 -1.12,-1.438 0.234,-1.866 -0.687,-0.734 -1.486,-1.498 0.199,-1.59 -1.19,-0.835 -0.952,-1.31 0.195,-1.555 -1.048,-0.739 -1.386,-1.389 0.225,-1.798 l 0.234,-1.866 -6.335,-0.793 c 0,0 0.465,2.059 -0.247,1.969 0.76,0.096 0.634,1.098 -0.125,1.003 0.442,0.793 0.82,1.302 -0.208,1.659 0.664,0.083 0.434,1.915 -0.23,1.832 1.044,0.13 0.866,1.548 -0.177,1.417 0.806,0.101 0.655,1.311 -0.152,1.21 0.712,0.089 0.417,2.439 -0.294,2.35 L 0,0 Z"
             style="fill:#736d79;fill-opacity:1;fill-rule:nonzero;stroke:none"
             id="path12771"
             inkscape:connector-curvature="0" /></g><g
           id="g12773"
           transform="translate(1223.9814,668.3091)"><path
             d="M 0,0 C 0.299,-1.394 0.321,-3.048 0.308,-3.923 0.302,-4.284 0.061,-4.587 -0.273,-4.659 L -1.456,-4.914 C -1.481,-4.919 -1.507,-4.923 -1.533,-4.926 L -7.13,-5.491 -9.316,-5.7 c -0.373,-0.036 -0.713,0.233 -0.786,0.621 l -0.687,3.655 c -0.082,0.436 0.2,0.853 0.617,0.91 1.905,0.263 6.873,0.93 9.406,1.118 C -0.404,0.631 -0.08,0.374 0,0"
             style="fill:#b5b5b5;fill-opacity:1;fill-rule:nonzero;stroke:none"
             id="path12775"
             inkscape:connector-curvature="0" /></g><g
           id="g12777"
           transform="translate(1225.0791,654.5386)"><path
             d="m 0,0 c 0,0 3.219,-9.789 -2.759,-10.89 -5.978,-1.102 -5.375,9.685 -5.375,9.685 C -5.351,0.112 -2.633,0.598 0,0"
             style="fill:#16101a;fill-opacity:1;fill-rule:nonzero;stroke:none"
             id="path12779"
             inkscape:connector-curvature="0" /></g><g
           id="g12781"
           transform="translate(1205.7158,670.3999)"><path
             d="m 0,0 c 0.852,0.937 5.25,2.696 10.779,2.961 5.53,0.265 9.27,0.444 9.27,0.444 0,0 2.072,-2.426 -1.466,-3.411 C 15.044,-0.991 2.929,-1.571 1.709,-1.63 0.489,-1.688 -0.852,-0.937 0,0"
             style="fill:#a3aab0;fill-opacity:1;fill-rule:nonzero;stroke:none"
             id="path12783"
             inkscape:connector-curvature="0" /></g><g
           id="g12785"
           transform="translate(1194.8789,802.8701)"><path
             d="M 0,0 C 0,0 47.553,-219.449 10.752,-359.776 0,-432.926 -45.004,-604.604 -45.004,-604.604 c -57.103,-23.579 -113.504,-28.175 -168.691,0 0,0 -70.91,241.842 -64.193,361.27 C -271.17,-123.907 -249.461,0 -249.461,0 L 0,0 Z"
             style="fill:#c56323;fill-opacity:1;fill-rule:nonzero;stroke:none"
             id="path12787"
             inkscape:connector-curvature="0" /></g><g
           id="g12789"><g
             id="g12791" /><g
             id="g12797"><g
               clip-path="url(#clipPath12793)"
               id="g12799"
               style="opacity:0.30000299"><g
                 transform="translate(1014.0488,494.5293)"
                 id="g12801"><path
                   d="m 0,0 c 0,-128.221 8.373,-242.093 21.326,-313.822 21.485,-3.198 43.123,-2.22 64.887,2.15 12.734,71.844 20.94,184.728 20.94,311.672 0,125.001 -7.957,236.366 -20.358,308.341 l -66.436,0 C 7.958,236.366 0,125.001 0,0"
                   style="fill:#9e9e9e;fill-opacity:1;fill-rule:nonzero;stroke:none"
                   id="path12803"
                   inkscape:connector-curvature="0" /></g></g></g></g><g
           id="g12805"
           transform="translate(1149.875,198.2666)"><path
             d="m 0,0 c 0,0 -1.306,-18.007 -11.942,-24.072 -33.776,-15.489 -132.241,-18.261 -153.825,8.859 -6.75,16.426 -0.308,20.04 -0.308,20.04 C -110.803,-20.212 -58.034,-21.312 0,0"
             style="fill:#0e0b14;fill-opacity:1;fill-rule:nonzero;stroke:none"
             id="path12807"
             inkscape:connector-curvature="0" /></g><g
           id="g12809"
           transform="translate(945.853,796.1519)"><path
             d="m 0,0 -1.272,7.633 c -0.9,5.4 0.056,10.998 2.949,15.645 1.776,2.853 4.152,5.193 7.031,5.833 51.752,18.411 218.148,6.184 230.396,0 1.935,0 3.963,-1.775 5.711,-4.227 3.673,-5.152 4.851,-11.68 3.517,-17.865 L 246.818,0 C 162.442,8.55 80.621,6.714 0,0"
             style="fill:#dcbb95;fill-opacity:1;fill-rule:nonzero;stroke:none"
             id="path12811"
             inkscape:connector-curvature="0" /></g><g
           id="g12813"
           transform="translate(1216.3604,787.8501)"><path
             d="m 0,0 c -0.459,-3.06 -7.05,-1.839 -6.938,-24.084 0.005,-1.105 -0.718,-2.082 -1.776,-2.404 -2.459,-0.749 -6.137,-0.764 -8.488,-0.676 -1.283,0.048 -2.318,1.058 -2.399,2.339 l -1.876,29.386 c -0.109,1.711 1.499,3.022 3.154,2.569 L -1.832,2.622 C -0.669,2.304 0.179,1.192 0,0"
             style="fill:#151017;fill-opacity:1;fill-rule:nonzero;stroke:none"
             id="path12815"
             inkscape:connector-curvature="0" /></g><g
           id="g12817"
           transform="translate(923.7192,789.5054)"><path
             d="m 0,0 c 0.302,-3.079 6.946,-2.197 5.697,-24.408 -0.062,-1.103 0.611,-2.115 1.65,-2.491 2.418,-0.874 6.09,-1.077 8.444,-1.109 1.283,-0.017 2.367,0.938 2.515,2.213 L 21.681,3.456 C 21.878,5.16 20.339,6.551 18.664,6.184 L 1.963,2.524 C 0.786,2.266 -0.117,1.2 0,0"
             style="fill:#151017;fill-opacity:1;fill-rule:nonzero;stroke:none"
             id="path12819"
             inkscape:connector-curvature="0" /></g><g
           id="g12821"
           transform="translate(1167.0498,790.3672)"><path
             d="m 0,0 c -4.105,-0.933 -4.105,-9.89 -4.105,-9.89 l 7.65,0 c 0,0 0.56,10.823 -3.545,9.89 m -185.493,0 c -2.919,-0.664 -3.763,-5.385 -4.006,-8.058 -0.09,-0.986 0.696,-1.832 1.687,-1.832 l 5.865,0 c 0,0 0.559,10.823 -3.546,9.89 M 49.258,-2.923 c -6.923,4.157 -16.097,6.245 -28.112,5.722 -0.002,0 -0.005,-10e-4 -0.007,-0.002 -5.111,-2.928 -7.571,-8.128 -6.715,-16.169 l 0,-0.002 c -0.376,-4.377 -0.916,-8.175 -2.736,-7.463 l -22.891,1.243 c -2.525,-0.537 -2.924,2.207 -2.985,5.474 l -2.488,0.829 C -14.149,4.581 -35.391,6.78 -35.502,6.78 l -117.206,0 c -7.157,-1.119 -18.025,-7.538 -16.635,-18.788 -0.067,-0.081 -0.128,-0.167 -0.18,-0.259 l -3.903,-6.829 -25.378,-1.741 -0.995,4.727 -1.991,3.235 0.599,1.796 c 3.942,10.552 -11.049,22.586 -40.693,8.905 -0.841,0.142 -1.457,0.87 -1.457,1.723 l 0,13.7 c 3.369,6.549 15.508,9.022 29.36,10.699 76.007,4.971 146.779,6.773 206.261,1.741 20.324,-1.18 36.967,-3.541 49.513,-7.215 8.446,-2.316 8.396,-11.5 7.465,-21.397"
             style="fill:#302c3a;fill-opacity:1;fill-rule:nonzero;stroke:none"
             id="path12823"
             inkscape:connector-curvature="0" /></g><g
           id="g12825"
           transform="translate(1180.6592,669.3193)"><path
             d="M 0,0 C 0.111,-0.729 0.104,-1.334 0.08,-1.709 0.064,-1.947 -0.104,-2.132 -0.316,-2.147 l -6.598,-0.479 -5.726,-0.422 c -0.231,-0.017 -0.431,0.176 -0.451,0.436 l -0.121,1.633 c -0.02,0.272 0.163,0.507 0.406,0.515 1.928,0.063 9.599,0.341 12.319,0.864 C -0.253,0.446 -0.04,0.263 0,0"
             style="fill:#a59890;fill-opacity:1;fill-rule:nonzero;stroke:none"
             id="path12827"
             inkscape:connector-curvature="0" /></g><g
           id="g12829"
           transform="translate(1181.7871,712.752)"><path
             d="m 0,0 -19.398,-2.872 c -0.213,-0.043 -0.431,-0.043 -0.644,-0.002 l -24.867,4.842 c -1.277,0.248 -2.33,-1.002 -1.869,-2.218 l 28.186,-80.197 c 0.593,-1.564 4.843,-5.342 7.055,0.801 L 1.955,-1.941 C 2.178,-0.783 1.156,0.231 0,0"
             style="fill:#211926;fill-opacity:1;fill-rule:nonzero;stroke:none"
             id="path12831"
             inkscape:connector-curvature="0" /></g><g
           id="g12833"
           transform="translate(1163.3008,780.8301)"><path
             d="m 0,0 c -0.448,1.255 0.598,2.555 1.914,2.352 1.471,-0.227 3.422,-0.915 5.561,-2.705 5.957,-4.984 3.483,-33.838 3.483,-33.838 -1.596,-27.334 -1.145,-38.6 1.221,-56.542 0.133,-1.008 -0.556,-1.941 -1.558,-2.114 l -2.513,-0.435 c -1.14,-0.197 -2.189,0.665 -2.218,1.822 l -1.035,41.446 c -0.074,2.39 0.012,4.782 0.256,7.16 l 1.543,24.223 c -0.458,6.281 -1.808,10.744 -4.121,13.246 -0.72,0.78 -1.228,1.73 -1.585,2.73 L 0,0 Z"
             style="fill:#ece6e6;fill-opacity:1;fill-rule:nonzero;stroke:none"
             id="path12835"
             inkscape:connector-curvature="0" /></g><g
           id="g12837"><g
             id="g12839" /><g
             id="g12845"><g
               clip-path="url(#clipPath12841)"
               id="g12847"
               style="opacity:0.30000299"><g
                 transform="translate(1165.2148,783.1821)"
                 id="g12849"><path
                   d="m 0,0 c 1.471,-0.227 3.422,-0.916 5.561,-2.705 5.957,-4.984 3.483,-33.838 3.483,-33.838 -1.596,-27.334 -1.146,-38.6 1.221,-56.542 0.132,-1.008 -0.556,-1.941 -1.558,-2.114 0,0 -2.454,34.448 -2.307,39.965 0.148,5.516 1.815,26.425 1.306,33.309 C 7.197,-15.042 6.946,-7.446 4.634,-4.944 3.914,-4.165 -1.316,0.203 0,0"
                   style="fill:#8c8c8c;fill-opacity:1;fill-rule:nonzero;stroke:none"
                   id="path12851"
                   inkscape:connector-curvature="0" /></g></g></g></g><g
           id="g12853"
           transform="translate(1182.1582,671.0327)"><path
             d="m 0,0 c -0.19,6.176 -2.531,17.077 -3.325,19.521 -0.121,0.972 -1.018,1.652 -1.986,1.507 l -18.532,-2.774 c -0.958,-0.144 -1.628,-1.025 -1.51,-1.987 l 2.214,-19.066 C -16.234,0 -9.126,-0.03 0,0"
             style="fill:#211926;fill-opacity:1;fill-rule:nonzero;stroke:none"
             id="path12855"
             inkscape:connector-curvature="0" /></g><g
           id="g12857"
           transform="translate(1177.9785,661.3125)"><path
             d="m 0,0 c -1.052,-0.948 -0.841,-1.601 0.159,-2.07 -1.168,-0.428 -0.818,-0.919 0.111,-1.433 -1.092,-0.835 -1.362,-1.585 0.165,-2.149 -0.828,-0.803 -1.784,-1.634 0.141,-1.831 -1.408,-0.891 -1.161,-1.448 0.138,-1.792 -1.241,-0.788 -1.663,-1.514 0.159,-2.07 l 0.165,-2.149 -7.296,-0.561 c 0,0 0.645,2.332 -0.175,2.269 0.874,0.067 0.786,1.222 -0.088,1.154 0.55,0.883 1.01,1.446 -0.147,1.911 0.765,0.059 0.603,2.168 -0.163,2.11 1.203,0.092 1.077,1.724 -0.125,1.632 0.929,0.071 0.822,1.464 -0.107,1.393 0.82,0.063 0.612,2.77 -0.208,2.707 L 0,0 Z"
             style="fill:#736d79;fill-opacity:1;fill-rule:nonzero;stroke:none"
             id="path12859"
             inkscape:connector-curvature="0" /></g><g
           id="g12861"
           transform="translate(1169.0771,700.1191)"><path
             d="m 0,0 c 0,-3.432 -2.321,-6.213 -5.185,-6.213 -2.863,0 -5.184,2.781 -5.184,6.213 0,3.432 2.321,6.213 5.184,6.213 C -2.321,6.213 0,3.432 0,0"
             style="fill:#c9beba;fill-opacity:1;fill-rule:nonzero;stroke:none"
             id="path12863"
             inkscape:connector-curvature="0" /></g><g
           id="g12865"><g
             id="g12867" /><g
             id="g12873"><g
               clip-path="url(#clipPath12869)"
               id="g12875"
               style="opacity:0.30000299"><g
                 transform="translate(1168.7227,698.8516)"
                 id="g12877"><path
                   d="m 0,0 c 0,-2.731 -1.769,-4.946 -3.95,-4.946 -2.181,0 -3.949,2.215 -3.949,4.946 0,2.732 1.768,4.946 3.949,4.946 C -1.769,4.946 0,2.732 0,0"
                   style="fill:#b5b5b5;fill-opacity:1;fill-rule:nonzero;stroke:none"
                   id="path12879"
                   inkscape:connector-curvature="0" /></g></g></g></g><g
           id="g12881"
           transform="translate(1172.5605,641.7734)"><path
             d="m 0,0 c 0,-3.432 -2.321,-6.213 -5.185,-6.213 -2.863,0 -5.184,2.781 -5.184,6.213 0,3.432 2.321,6.213 5.184,6.213 C -2.321,6.213 0,3.432 0,0"
             style="fill:#c9beba;fill-opacity:1;fill-rule:nonzero;stroke:none"
             id="path12883"
             inkscape:connector-curvature="0" /></g><g
           id="g12885"><g
             id="g12887" /><g
             id="g12893"><g
               clip-path="url(#clipPath12889)"
               id="g12895"
               style="opacity:0.30000299"><g
                 transform="translate(1167.376,643.248)"
                 id="g12897"><path
                   d="m 0,0 c 0,-1.917 -1.077,-3.472 -2.405,-3.472 -1.329,0 -2.407,1.555 -2.407,3.472 0,1.917 1.078,3.472 2.407,3.472 C -1.077,3.472 0,1.917 0,0"
                   style="fill:#b5b5b5;fill-opacity:1;fill-rule:nonzero;stroke:none"
                   id="path12899"
                   inkscape:connector-curvature="0" /></g></g></g></g><g
           id="g12901"
           transform="translate(1179.8145,664.8384)"><path
             d="M 0,0 C 0.266,-1.612 0.201,-3.507 0.138,-4.509 0.111,-4.92 -0.182,-5.254 -0.567,-5.318 l -1.37,-0.227 c -0.029,-0.005 -0.058,-0.009 -0.087,-0.01 l -6.439,-0.34 -2.515,-0.12 c -0.428,-0.02 -0.802,0.306 -0.865,0.755 l -0.587,4.222 c -0.069,0.504 0.277,0.965 0.757,1.008 2.195,0.196 7.919,0.687 10.829,0.764 C -0.428,0.745 -0.071,0.432 0,0"
             style="fill:#b5b5b5;fill-opacity:1;fill-rule:nonzero;stroke:none"
             id="path12903"
             inkscape:connector-curvature="0" /></g><g
           id="g12905"
           transform="translate(1180.3164,649.0132)"><path
             d="M 0,0 C 0,0 3.148,-11.383 -3.756,-12.316 -10.661,-13.249 -9.378,-0.933 -9.378,-0.933 -6.12,0.422 -2.981,0.83 0,0"
             style="fill:#16101a;fill-opacity:1;fill-rule:nonzero;stroke:none"
             id="path12907"
             inkscape:connector-curvature="0" /></g><g
           id="g12909"
           transform="translate(1159.0195,668.2339)"><path
             d="m 0,0 c 1.026,1.026 6.157,2.799 12.502,2.799 l 10.637,0 c 0,0 2.239,-2.892 -1.867,-3.825 C 17.167,-1.959 3.266,-1.959 1.865,-1.959 0.466,-1.959 -1.026,-1.026 0,0"
             style="fill:#a3aab0;fill-opacity:1;fill-rule:nonzero;stroke:none"
             id="path12911"
             inkscape:connector-curvature="0" /></g><g
           id="g12913"
           transform="translate(967.1611,712.752)"><path
             d="m 0,0 19.398,-2.872 c 0.212,-0.043 0.431,-0.043 0.643,-0.002 l 24.867,4.842 c 1.278,0.248 2.33,-1.002 1.869,-2.218 L 18.592,-80.447 c -0.594,-1.564 -4.844,-5.342 -7.055,0.801 L -1.955,-1.941 C -2.179,-0.783 -1.156,0.231 0,0"
             style="fill:#211926;fill-opacity:1;fill-rule:nonzero;stroke:none"
             id="path12915"
             inkscape:connector-curvature="0" /></g><g
           id="g12917"
           transform="translate(985.6475,780.8301)"><path
             d="m 0,0 c 0.448,1.255 -0.598,2.555 -1.915,2.352 -1.471,-0.227 -3.422,-0.915 -5.561,-2.705 -5.956,-4.984 -3.482,-33.838 -3.482,-33.838 1.596,-27.334 1.145,-38.6 -1.222,-56.542 -0.133,-1.008 0.557,-1.941 1.558,-2.114 l 2.513,-0.435 c 1.14,-0.197 2.19,0.665 2.218,1.822 l 1.036,41.446 c 0.073,2.39 -0.012,4.782 -0.256,7.16 l -1.543,24.223 c 0.457,6.281 1.807,10.744 4.12,13.246 0.721,0.78 1.228,1.73 1.585,2.73 L 0,0 Z"
             style="fill:#ece6e6;fill-opacity:1;fill-rule:nonzero;stroke:none"
             id="path12919"
             inkscape:connector-curvature="0" /></g><g
           id="g12921"><g
             id="g12923" /><g
             id="g12929"><g
               clip-path="url(#clipPath12925)"
               id="g12931"
               style="opacity:0.30000299"><g
                 transform="translate(983.7324,783.1821)"
                 id="g12933"><path
                   d="m 0,0 c -1.471,-0.227 -3.422,-0.916 -5.561,-2.705 -5.956,-4.984 -3.482,-33.838 -3.482,-33.838 1.596,-27.334 1.145,-38.6 -1.222,-56.542 -0.132,-1.008 0.557,-1.941 1.558,-2.114 0,0 2.455,34.448 2.308,39.965 -0.149,5.516 -1.816,26.425 -1.307,33.309 0.509,6.883 0.76,14.479 3.072,16.981 C -3.913,-4.165 1.317,0.203 0,0"
                   style="fill:#8c8c8c;fill-opacity:1;fill-rule:nonzero;stroke:none"
                   id="path12935"
                   inkscape:connector-curvature="0" /></g></g></g></g><g
           id="g12937"
           transform="translate(966.7891,671.0327)"><path
             d="m 0,0 c 0.19,6.176 2.531,17.077 3.325,19.521 0.121,0.972 1.018,1.652 1.986,1.507 l 18.532,-2.774 c 0.959,-0.144 1.628,-1.025 1.51,-1.987 L 23.14,-2.799 C 16.235,0 9.127,-0.03 0,0"
             style="fill:#211926;fill-opacity:1;fill-rule:nonzero;stroke:none"
             id="path12939"
             inkscape:connector-curvature="0" /></g><g
           id="g12941"
           transform="translate(970.9687,661.3125)"><path
             d="m 0,0 c 1.053,-0.948 0.841,-1.601 -0.159,-2.07 1.168,-0.428 0.818,-0.919 -0.111,-1.433 1.092,-0.835 1.363,-1.585 -0.165,-2.149 0.828,-0.803 1.784,-1.634 -0.14,-1.831 1.408,-0.891 1.161,-1.448 -0.138,-1.792 1.24,-0.788 1.663,-1.514 -0.159,-2.07 l -0.165,-2.149 7.296,-0.561 c 0,0 -0.646,2.332 0.174,2.269 -0.874,0.067 -0.786,1.222 0.088,1.154 -0.549,0.883 -1.01,1.446 0.148,1.911 -0.766,0.059 -0.604,2.168 0.162,2.11 -1.202,0.092 -1.077,1.724 0.125,1.632 -0.929,0.071 -0.821,1.464 0.107,1.393 -0.819,0.063 -0.611,2.77 0.208,2.707 L 0,0 Z"
             style="fill:#736d79;fill-opacity:1;fill-rule:nonzero;stroke:none"
             id="path12943"
             inkscape:connector-curvature="0" /></g><g
           id="g12945"
           transform="translate(979.8701,700.1191)"><path
             d="m 0,0 c 0,-3.432 2.321,-6.213 5.185,-6.213 2.863,0 5.184,2.781 5.184,6.213 0,3.432 -2.321,6.213 -5.184,6.213 C 2.321,6.213 0,3.432 0,0"
             style="fill:#c9beba;fill-opacity:1;fill-rule:nonzero;stroke:none"
             id="path12947"
             inkscape:connector-curvature="0" /></g><g
           id="g12949"><g
             id="g12951" /><g
             id="g12957"><g
               clip-path="url(#clipPath12953)"
               id="g12959"
               style="opacity:0.30000299"><g
                 transform="translate(980.2246,698.8516)"
                 id="g12961"><path
                   d="M 0,0 C 0,-2.731 1.769,-4.946 3.95,-4.946 6.132,-4.946 7.9,-2.731 7.9,0 7.9,2.732 6.132,4.946 3.95,4.946 1.769,4.946 0,2.732 0,0"
                   style="fill:#b5b5b5;fill-opacity:1;fill-rule:nonzero;stroke:none"
                   id="path12963"
                   inkscape:connector-curvature="0" /></g></g></g></g><g
           id="g12965"
           transform="translate(976.3867,641.7734)"><path
             d="m 0,0 c 0,-3.432 2.321,-6.213 5.185,-6.213 2.863,0 5.184,2.781 5.184,6.213 0,3.432 -2.321,6.213 -5.184,6.213 C 2.321,6.213 0,3.432 0,0"
             style="fill:#c9beba;fill-opacity:1;fill-rule:nonzero;stroke:none"
             id="path12967"
             inkscape:connector-curvature="0" /></g><g
           id="g12969"><g
             id="g12971" /><g
             id="g12977"><g
               clip-path="url(#clipPath12973)"
               id="g12979"
               style="opacity:0.30000299"><g
                 transform="translate(981.5713,643.248)"
                 id="g12981"><path
                   d="m 0,0 c 0,-1.917 1.077,-3.472 2.406,-3.472 1.328,0 2.406,1.555 2.406,3.472 0,1.917 -1.078,3.472 -2.406,3.472 C 1.077,3.472 0,1.917 0,0"
                   style="fill:#b5b5b5;fill-opacity:1;fill-rule:nonzero;stroke:none"
                   id="path12983"
                   inkscape:connector-curvature="0" /></g></g></g></g><g
           id="g12985"
           transform="translate(969.1328,664.8384)"><path
             d="M 0,0 C -0.266,-1.612 -0.2,-3.507 -0.137,-4.509 -0.11,-4.92 0.182,-5.254 0.568,-5.318 l 1.369,-0.227 c 0.029,-0.005 0.058,-0.009 0.088,-0.01 l 6.438,-0.34 2.515,-0.12 c 0.429,-0.02 0.803,0.306 0.866,0.755 l 0.586,4.222 C 12.5,-0.534 12.153,-0.073 11.673,-0.03 9.478,0.166 3.754,0.657 0.844,0.734 0.429,0.745 0.071,0.432 0,0"
             style="fill:#b5b5b5;fill-opacity:1;fill-rule:nonzero;stroke:none"
             id="path12987"
             inkscape:connector-curvature="0" /></g><g
           id="g12989"
           transform="translate(968.6309,649.0132)"><path
             d="M 0,0 C 0,0 -3.147,-11.383 3.757,-12.316 10.661,-13.249 9.378,-0.933 9.378,-0.933 6.12,0.422 2.982,0.83 0,0"
             style="fill:#16101a;fill-opacity:1;fill-rule:nonzero;stroke:none"
             id="path12991"
             inkscape:connector-curvature="0" /></g><g
           id="g12993"
           transform="translate(989.9287,668.2339)"><path
             d="m 0,0 c -1.026,1.026 -6.158,2.799 -12.503,2.799 l -10.637,0 c 0,0 -2.239,-2.892 1.867,-3.825 4.105,-0.933 18.007,-0.933 19.407,-0.933 1.399,0 2.892,0.933 1.866,1.959"
             style="fill:#a3aab0;fill-opacity:1;fill-rule:nonzero;stroke:none"
             id="path12995"
             inkscape:connector-curvature="0" /></g><g
           id="g12997"
           transform="translate(560.1768,768.7061)"><path
             d="M 0,0 C 0.443,1.075 -0.414,2.251 -1.57,2.129 -2.862,1.994 -4.59,1.475 -6.529,0.004 c -5.4,-4.095 -4.449,-29.344 -4.449,-29.344 0.249,-23.889 -0.613,-33.687 -3.425,-49.225 -0.158,-0.873 0.403,-1.715 1.269,-1.908 l 2.172,-0.483 c 0.985,-0.22 1.936,0.487 2.01,1.495 l 2.632,36.077 c 0.164,2.079 0.19,4.167 0.076,6.25 l -0.333,21.175 c 0.661,5.455 2.024,9.288 4.144,11.372 0.66,0.649 1.143,1.456 1.496,2.312 L 0,0 Z"
             style="fill:#ece6e6;fill-opacity:1;fill-rule:nonzero;stroke:none"
             id="path12999"
             inkscape:connector-curvature="0" /></g><g
           id="g13001"><g
             id="g13003" /><g
             id="g13009"><g
               clip-path="url(#clipPath13005)"
               id="g13011"
               style="opacity:0.30000299"><g
                 transform="translate(558.6064,770.8354)"
                 id="g13013"><path
                   d="m 0,0 c -1.292,-0.136 -3.02,-0.655 -4.959,-2.125 -5.399,-4.095 -4.448,-29.344 -4.448,-29.344 0.249,-23.889 -0.614,-33.688 -3.426,-49.226 -0.157,-0.872 0.404,-1.714 1.27,-1.907 0,0 3.577,29.919 3.679,34.733 0.102,4.813 -0.478,23.105 0.253,29.083 0.73,5.978 1.266,12.587 3.386,14.671 C -3.584,-3.466 1.156,0.122 0,0"
                   style="fill:#8c8c8c;fill-opacity:1;fill-rule:nonzero;stroke:none"
                   id="path13015"
                   inkscape:connector-curvature="0" /></g></g></g></g><g
           id="g13017"
           transform="translate(539.1577,673.8052)"><path
             d="m 0,0 c 0.424,5.375 2.918,14.777 3.712,16.874 0.146,0.841 0.957,1.397 1.794,1.23 l 16.035,-3.191 c 0.829,-0.165 1.376,-0.961 1.233,-1.795 L 20.048,-3.405 C 14.148,-0.678 7.952,-0.407 0,0"
             style="fill:#211926;fill-opacity:1;fill-rule:nonzero;stroke:none"
             id="path13019"
             inkscape:connector-curvature="0" /></g><g
           id="g13021"
           transform="translate(542.394,665.1597)"><path
             d="m 0,0 c 0.877,-0.87 0.666,-1.43 -0.225,-1.797 1,-0.422 0.675,-0.835 -0.156,-1.245 0.917,-0.773 1.121,-1.438 -0.234,-1.866 0.688,-0.734 1.486,-1.498 -0.199,-1.59 1.19,-0.835 0.951,-1.31 -0.195,-1.555 1.049,-0.739 1.386,-1.389 -0.225,-1.798 l -0.234,-1.866 6.335,-0.793 c 0,0 -0.465,2.059 0.247,1.969 -0.759,0.096 -0.634,1.098 0.126,1.003 -0.443,0.793 -0.821,1.302 0.208,1.659 -0.665,0.083 -0.435,1.915 0.229,1.832 -1.044,0.13 -0.866,1.548 0.177,1.417 -0.806,0.101 -0.655,1.311 0.152,1.21 -0.712,0.089 -0.418,2.439 0.294,2.35 L 0,0 Z"
             style="fill:#736d79;fill-opacity:1;fill-rule:nonzero;stroke:none"
             id="path13023"
             inkscape:connector-curvature="0" /></g><g
           id="g13025"
           transform="translate(540.9414,668.3091)"><path
             d="m 0,0 c -0.299,-1.394 -0.321,-3.048 -0.308,-3.923 0.006,-0.361 0.247,-0.664 0.581,-0.736 L 1.456,-4.914 C 1.481,-4.919 1.507,-4.923 1.533,-4.926 L 7.129,-5.491 9.316,-5.7 c 0.373,-0.036 0.712,0.233 0.786,0.621 l 0.687,3.655 c 0.082,0.436 -0.201,0.853 -0.618,0.91 C 8.266,-0.251 3.299,0.416 0.766,0.604 0.404,0.631 0.08,0.374 0,0"
             style="fill:#b5b5b5;fill-opacity:1;fill-rule:nonzero;stroke:none"
             id="path13027"
             inkscape:connector-curvature="0" /></g><g
           id="g13029"
           transform="translate(539.8428,654.5386)"><path
             d="m 0,0 c 0,0 -3.218,-9.789 2.76,-10.89 5.978,-1.102 5.374,9.685 5.374,9.685 C 5.352,0.112 2.634,0.598 0,0"
             style="fill:#16101a;fill-opacity:1;fill-rule:nonzero;stroke:none"
             id="path13031"
             inkscape:connector-curvature="0" /></g><g
           id="g13033"
           transform="translate(559.2061,670.3999)"><path
             d="m 0,0 c -0.852,0.937 -5.25,2.696 -10.779,2.961 -5.529,0.265 -9.269,0.444 -9.269,0.444 0,0 -2.073,-2.426 1.466,-3.411 3.539,-0.985 15.654,-1.565 16.874,-1.624 C -0.488,-1.688 0.852,-0.937 0,0"
             style="fill:#a3aab0;fill-opacity:1;fill-rule:nonzero;stroke:none"
             id="path13035"
             inkscape:connector-curvature="0" /></g><g
           id="g13037"
           transform="translate(830.7461,768.7061)"><path
             d="M 0,0 C -0.443,1.075 0.414,2.251 1.57,2.129 2.861,1.994 4.59,1.475 6.529,0.004 c 5.399,-4.095 4.449,-29.344 4.449,-29.344 -0.25,-23.889 0.613,-33.687 3.424,-49.225 0.158,-0.873 -0.403,-1.715 -1.269,-1.908 l -2.171,-0.483 c -0.986,-0.22 -1.937,0.487 -2.01,1.495 L 6.32,-43.384 c -0.164,2.079 -0.19,4.167 -0.076,6.25 l 0.333,21.175 C 5.916,-10.504 4.553,-6.671 2.433,-4.587 1.772,-3.938 1.29,-3.131 0.937,-2.275 L 0,0 Z"
             style="fill:#ece6e6;fill-opacity:1;fill-rule:nonzero;stroke:none"
             id="path13039"
             inkscape:connector-curvature="0" /></g><g
           id="g13041"><g
             id="g13043" /><g
             id="g13049"><g
               clip-path="url(#clipPath13045)"
               id="g13051"
               style="opacity:0.30000299"><g
                 transform="translate(832.3164,770.8354)"
                 id="g13053"><path
                   d="m 0,0 c 1.291,-0.136 3.02,-0.655 4.958,-2.125 5.4,-4.095 4.449,-29.344 4.449,-29.344 -0.249,-23.889 0.614,-33.688 3.425,-49.226 0.158,-0.872 -0.403,-1.714 -1.269,-1.907 0,0 -3.578,29.919 -3.679,34.733 -0.102,4.813 0.478,23.105 -0.253,29.083 C 6.9,-12.808 6.364,-6.199 4.244,-4.115 3.584,-3.466 -1.156,0.122 0,0"
                   style="fill:#8c8c8c;fill-opacity:1;fill-rule:nonzero;stroke:none"
                   id="path13055"
                   inkscape:connector-curvature="0" /></g></g></g></g><g
           id="g13057"
           transform="translate(851.7651,673.8052)"><path
             d="m 0,0 c -0.424,5.375 -2.919,14.777 -3.713,16.874 -0.146,0.841 -0.956,1.397 -1.793,1.23 l -16.035,-3.191 c -0.829,-0.165 -1.376,-0.961 -1.233,-1.795 l 2.725,-16.523 C -14.148,-0.678 -7.952,-0.407 0,0"
             style="fill:#211926;fill-opacity:1;fill-rule:nonzero;stroke:none"
             id="path13059"
             inkscape:connector-curvature="0" /></g><g
           id="g13061"
           transform="translate(848.5288,665.1597)"><path
             d="m 0,0 c -0.877,-0.87 -0.666,-1.43 0.225,-1.797 -1,-0.422 -0.675,-0.835 0.156,-1.245 -0.917,-0.773 -1.121,-1.438 0.234,-1.866 -0.688,-0.734 -1.486,-1.498 0.198,-1.59 -1.189,-0.835 -0.951,-1.31 0.195,-1.555 -1.048,-0.739 -1.385,-1.389 0.226,-1.798 l 0.233,-1.866 -6.335,-0.793 c 0,0 0.465,2.059 -0.246,1.969 0.759,0.096 0.633,1.098 -0.126,1.003 0.443,0.793 0.821,1.302 -0.208,1.659 0.665,0.083 0.435,1.915 -0.229,1.832 1.044,0.13 0.866,1.548 -0.178,1.417 0.807,0.101 0.655,1.311 -0.151,1.21 0.712,0.089 0.417,2.439 -0.295,2.35 L 0,0 Z"
             style="fill:#736d79;fill-opacity:1;fill-rule:nonzero;stroke:none"
             id="path13063"
             inkscape:connector-curvature="0" /></g><g
           id="g13065"
           transform="translate(849.981,668.3091)"><path
             d="M 0,0 C 0.299,-1.394 0.322,-3.048 0.308,-3.923 0.302,-4.284 0.062,-4.587 -0.272,-4.659 L -1.456,-4.914 C -1.481,-4.919 -1.507,-4.923 -1.532,-4.926 L -7.129,-5.491 -9.315,-5.7 c -0.373,-0.036 -0.713,0.233 -0.787,0.621 l -0.687,3.655 c -0.082,0.436 0.201,0.853 0.618,0.91 1.905,0.263 6.872,0.93 9.405,1.118 C -0.404,0.631 -0.08,0.374 0,0"
             style="fill:#b5b5b5;fill-opacity:1;fill-rule:nonzero;stroke:none"
             id="path13067"
             inkscape:connector-curvature="0" /></g><g
           id="g13069"
           transform="translate(851.0796,654.5386)"><path
             d="m 0,0 c 0,0 3.219,-9.789 -2.76,-10.89 -5.978,-1.102 -5.374,9.685 -5.374,9.685 C -5.352,0.112 -2.633,0.598 0,0"
             style="fill:#16101a;fill-opacity:1;fill-rule:nonzero;stroke:none"
             id="path13071"
             inkscape:connector-curvature="0" /></g><g
           id="g13073"
           transform="translate(831.7163,670.3999)"><path
             d="m 0,0 c 0.852,0.937 5.25,2.696 10.779,2.961 5.53,0.265 9.27,0.444 9.27,0.444 0,0 2.072,-2.426 -1.467,-3.411 C 15.043,-0.991 2.928,-1.571 1.708,-1.63 0.488,-1.688 -0.852,-0.937 0,0"
             style="fill:#a3aab0;fill-opacity:1;fill-rule:nonzero;stroke:none"
             id="path13075"
             inkscape:connector-curvature="0" /></g><g
           id="g13077"
           transform="translate(820.8784,802.8701)"><path
             d="M 0,0 C 0,0 47.554,-219.449 10.753,-359.776 0,-432.926 -45.003,-604.604 -45.003,-604.604 c -57.104,-23.579 -113.505,-28.175 -168.692,0 0,0 -70.91,241.842 -64.192,361.27 C -271.169,-123.907 -249.461,0 -249.461,0 L 0,0 Z"
             style="fill:#c56323;fill-opacity:1;fill-rule:nonzero;stroke:none"
             id="path13079"
             inkscape:connector-curvature="0" /></g><g
           id="g13081"><g
             id="g13083" /><g
             id="g13089"><g
               clip-path="url(#clipPath13085)"
               id="g13091"
               style="opacity:0.30000299"><g
                 transform="translate(640.0488,494.5293)"
                 id="g13093"><path
                   d="m 0,0 c 0,-128.221 8.373,-242.093 21.327,-313.822 21.484,-3.198 43.122,-2.22 64.886,2.15 12.734,71.844 20.941,184.728 20.941,311.672 0,125.001 -7.958,236.366 -20.36,308.341 l -66.435,0 C 7.958,236.366 0,125.001 0,0"
                   style="fill:#9e9e9e;fill-opacity:1;fill-rule:nonzero;stroke:none"
                   id="path13095"
                   inkscape:connector-curvature="0" /></g></g></g></g><g
           id="g13097"
           transform="translate(775.8755,198.2666)"><path
             d="m 0,0 c 0,0 -1.306,-18.007 -11.943,-24.072 -33.775,-15.489 -132.241,-18.261 -153.825,8.859 -6.749,16.426 -0.307,20.04 -0.307,20.04 C -110.804,-20.212 -58.035,-21.312 0,0"
             style="fill:#0e0b14;fill-opacity:1;fill-rule:nonzero;stroke:none"
             id="path13099"
             inkscape:connector-curvature="0" /></g><g
           id="g13101"
           transform="translate(571.853,796.1519)"><path
             d="m 0,0 -1.272,7.633 c -0.9,5.4 0.056,10.998 2.949,15.645 1.776,2.853 4.152,5.193 7.031,5.833 51.752,18.411 218.148,6.184 230.396,0 1.935,0 3.962,-1.775 5.711,-4.227 3.673,-5.152 4.851,-11.68 3.516,-17.865 L 246.817,0 C 162.442,8.55 80.621,6.714 0,0"
             style="fill:#dcbb95;fill-opacity:1;fill-rule:nonzero;stroke:none"
             id="path13103"
             inkscape:connector-curvature="0" /></g><g
           id="g13105"
           transform="translate(842.3599,787.8501)"><path
             d="m 0,0 c -0.458,-3.06 -7.049,-1.839 -6.938,-24.084 0.006,-1.105 -0.718,-2.082 -1.775,-2.404 -2.459,-0.749 -6.137,-0.764 -8.489,-0.676 -1.283,0.048 -2.317,1.058 -2.399,2.339 l -1.875,29.386 c -0.109,1.711 1.498,3.022 3.153,2.569 L -1.831,2.622 C -0.668,2.304 0.179,1.192 0,0"
             style="fill:#151017;fill-opacity:1;fill-rule:nonzero;stroke:none"
             id="path13107"
             inkscape:connector-curvature="0" /></g><g
           id="g13109"
           transform="translate(549.7192,789.5054)"><path
             d="m 0,0 c 0.302,-3.079 6.946,-2.197 5.697,-24.408 -0.062,-1.103 0.611,-2.115 1.65,-2.491 2.418,-0.874 6.09,-1.077 8.444,-1.109 1.283,-0.017 2.367,0.938 2.515,2.213 L 21.681,3.456 C 21.878,5.16 20.339,6.551 18.664,6.184 L 1.963,2.524 C 0.786,2.266 -0.117,1.2 0,0"
             style="fill:#151017;fill-opacity:1;fill-rule:nonzero;stroke:none"
             id="path13111"
             inkscape:connector-curvature="0" /></g><g
           id="g13113"
           transform="translate(793.0493,790.3672)"><path
             d="m 0,0 c -4.105,-0.933 -4.105,-9.89 -4.105,-9.89 l 7.651,0 C 3.546,-9.89 4.105,0.933 0,0 m -185.492,0 c -2.92,-0.664 -3.763,-5.385 -4.007,-8.058 -0.09,-0.986 0.697,-1.832 1.687,-1.832 l 5.865,0 c 0,0 0.56,10.823 -3.545,9.89 m 234.75,-2.923 c -6.922,4.157 -16.096,6.245 -28.112,5.722 -0.002,0 -0.004,-10e-4 -0.007,-0.002 -5.111,-2.928 -7.571,-8.128 -6.714,-16.169 l 0,-0.002 c -0.377,-4.377 -0.917,-8.175 -2.737,-7.463 l -22.891,1.243 c -2.524,-0.537 -2.924,2.207 -2.985,5.474 l -2.487,0.829 C -14.149,4.581 -35.39,6.78 -35.501,6.78 l -117.207,0 c -7.157,-1.119 -18.024,-7.538 -16.634,-18.788 -0.068,-0.081 -0.129,-0.167 -0.181,-0.259 l -3.902,-6.829 -25.379,-1.741 -0.995,4.727 -1.99,3.235 0.599,1.796 c 3.941,10.552 -11.049,22.586 -40.694,8.905 -0.841,0.142 -1.456,0.87 -1.456,1.723 l 0,13.7 c 3.369,6.549 15.507,9.022 29.359,10.699 76.008,4.971 146.779,6.773 206.262,1.741 20.323,-1.18 36.967,-3.541 49.512,-7.215 8.447,-2.316 8.397,-11.5 7.465,-21.397"
             style="fill:#302c3a;fill-opacity:1;fill-rule:nonzero;stroke:none"
             id="path13115"
             inkscape:connector-curvature="0" /></g><g
           id="g13117"
           transform="translate(806.6597,669.3193)"><path
             d="M 0,0 C 0.111,-0.729 0.104,-1.334 0.08,-1.709 0.064,-1.947 -0.104,-2.132 -0.317,-2.147 l -6.597,-0.479 -5.726,-0.422 c -0.231,-0.017 -0.432,0.176 -0.451,0.436 l -0.121,1.633 c -0.02,0.272 0.163,0.507 0.406,0.515 1.928,0.063 9.599,0.341 12.318,0.864 C -0.253,0.446 -0.041,0.263 0,0"
             style="fill:#a59890;fill-opacity:1;fill-rule:nonzero;stroke:none"
             id="path13119"
             inkscape:connector-curvature="0" /></g><g
           id="g13121"
           transform="translate(807.7866,712.752)"><path
             d="m 0,0 -19.398,-2.872 c -0.212,-0.043 -0.431,-0.043 -0.643,-0.002 l -24.868,4.842 c -1.277,0.248 -2.33,-1.002 -1.868,-2.218 l 28.186,-80.197 c 0.593,-1.564 4.843,-5.342 7.054,0.801 L 1.956,-1.941 C 2.178,-0.783 1.156,0.231 0,0"
             style="fill:#211926;fill-opacity:1;fill-rule:nonzero;stroke:none"
             id="path13123"
             inkscape:connector-curvature="0" /></g><g
           id="g13125"
           transform="translate(789.3008,780.8301)"><path
             d="m 0,0 c -0.448,1.255 0.598,2.555 1.915,2.352 1.47,-0.227 3.421,-0.915 5.56,-2.705 5.956,-4.984 3.483,-33.838 3.483,-33.838 -1.596,-27.334 -1.145,-38.6 1.221,-56.542 0.133,-1.008 -0.556,-1.941 -1.558,-2.114 l -2.512,-0.435 c -1.141,-0.197 -2.191,0.665 -2.219,1.822 l -1.035,41.446 c -0.074,2.39 0.012,4.782 0.256,7.16 l 1.543,24.223 c -0.458,6.281 -1.808,10.744 -4.121,13.246 -0.72,0.78 -1.228,1.73 -1.585,2.73 L 0,0 Z"
             style="fill:#ece6e6;fill-opacity:1;fill-rule:nonzero;stroke:none"
             id="path13127"
             inkscape:connector-curvature="0" /></g><g
           id="g13129"><g
             id="g13131" /><g
             id="g13137"><g
               clip-path="url(#clipPath13133)"
               id="g13139"
               style="opacity:0.30000299"><g
                 transform="translate(791.2153,783.1821)"
                 id="g13141"><path
                   d="m 0,0 c 1.471,-0.227 3.421,-0.916 5.56,-2.705 5.957,-4.984 3.483,-33.838 3.483,-33.838 -1.595,-27.334 -1.145,-38.6 1.221,-56.542 0.133,-1.008 -0.556,-1.941 -1.557,-2.114 0,0 -2.455,34.448 -2.307,39.965 0.147,5.516 1.815,26.425 1.306,33.309 C 7.197,-15.042 6.946,-7.446 4.633,-4.944 3.913,-4.165 -1.317,0.203 0,0"
                   style="fill:#8c8c8c;fill-opacity:1;fill-rule:nonzero;stroke:none"
                   id="path13143"
                   inkscape:connector-curvature="0" /></g></g></g></g><g
           id="g13145"
           transform="translate(808.1582,671.0327)"><path
             d="m 0,0 c -0.19,6.176 -2.531,17.077 -3.325,19.521 -0.121,0.972 -1.018,1.652 -1.986,1.507 l -18.531,-2.774 c -0.959,-0.144 -1.629,-1.025 -1.511,-1.987 l 2.214,-19.066 C -16.235,0 -9.126,-0.03 0,0"
             style="fill:#211926;fill-opacity:1;fill-rule:nonzero;stroke:none"
             id="path13147"
             inkscape:connector-curvature="0" /></g><g
           id="g13149"
           transform="translate(803.979,661.3125)"><path
             d="m 0,0 c -1.052,-0.948 -0.841,-1.601 0.159,-2.07 -1.168,-0.428 -0.818,-0.919 0.11,-1.433 -1.092,-0.835 -1.362,-1.585 0.166,-2.149 -0.828,-0.803 -1.784,-1.634 0.14,-1.831 -1.408,-0.891 -1.161,-1.448 0.138,-1.792 -1.24,-0.788 -1.663,-1.514 0.159,-2.07 l 0.166,-2.149 -7.297,-0.561 c 0,0 0.646,2.332 -0.174,2.269 0.874,0.067 0.786,1.222 -0.089,1.154 0.551,0.883 1.011,1.446 -0.147,1.911 0.765,0.059 0.603,2.168 -0.162,2.11 1.202,0.092 1.077,1.724 -0.126,1.632 0.93,0.071 0.822,1.464 -0.107,1.393 0.82,0.063 0.612,2.77 -0.208,2.707 L 0,0 Z"
             style="fill:#736d79;fill-opacity:1;fill-rule:nonzero;stroke:none"
             id="path13151"
             inkscape:connector-curvature="0" /></g><g
           id="g13153"
           transform="translate(795.0771,700.1191)"><path
             d="m 0,0 c 0,-3.432 -2.321,-6.213 -5.185,-6.213 -2.863,0 -5.184,2.781 -5.184,6.213 0,3.432 2.321,6.213 5.184,6.213 C -2.321,6.213 0,3.432 0,0"
             style="fill:#c9beba;fill-opacity:1;fill-rule:nonzero;stroke:none"
             id="path13155"
             inkscape:connector-curvature="0" /></g><g
           id="g13157"><g
             id="g13159" /><g
             id="g13165"><g
               clip-path="url(#clipPath13161)"
               id="g13167"
               style="opacity:0.30000299"><g
                 transform="translate(794.7227,698.8516)"
                 id="g13169"><path
                   d="m 0,0 c 0,-2.731 -1.769,-4.946 -3.95,-4.946 -2.181,0 -3.949,2.215 -3.949,4.946 0,2.732 1.768,4.946 3.949,4.946 C -1.769,4.946 0,2.732 0,0"
                   style="fill:#b5b5b5;fill-opacity:1;fill-rule:nonzero;stroke:none"
                   id="path13171"
                   inkscape:connector-curvature="0" /></g></g></g></g><g
           id="g13173"
           transform="translate(798.5605,641.7734)"><path
             d="m 0,0 c 0,-3.432 -2.321,-6.213 -5.185,-6.213 -2.863,0 -5.184,2.781 -5.184,6.213 0,3.432 2.321,6.213 5.184,6.213 C -2.321,6.213 0,3.432 0,0"
             style="fill:#c9beba;fill-opacity:1;fill-rule:nonzero;stroke:none"
             id="path13175"
             inkscape:connector-curvature="0" /></g><g
           id="g13177"><g
             id="g13179" /><g
             id="g13185"><g
               clip-path="url(#clipPath13181)"
               id="g13187"
               style="opacity:0.30000299"><g
                 transform="translate(793.376,643.248)"
                 id="g13189"><path
                   d="m 0,0 c 0,-1.917 -1.077,-3.472 -2.406,-3.472 -1.328,0 -2.406,1.555 -2.406,3.472 0,1.917 1.078,3.472 2.406,3.472 C -1.077,3.472 0,1.917 0,0"
                   style="fill:#b5b5b5;fill-opacity:1;fill-rule:nonzero;stroke:none"
                   id="path13191"
                   inkscape:connector-curvature="0" /></g></g></g></g><g
           id="g13193"
           transform="translate(805.8145,664.8384)"><path
             d="M 0,0 C 0.266,-1.612 0.201,-3.507 0.137,-4.509 0.111,-4.92 -0.182,-5.254 -0.568,-5.318 l -1.369,-0.227 c -0.029,-0.005 -0.058,-0.009 -0.088,-0.01 l -6.438,-0.34 -2.515,-0.12 c -0.429,-0.02 -0.803,0.306 -0.865,0.755 l -0.586,4.222 c -0.071,0.504 0.276,0.965 0.757,1.008 2.195,0.196 7.918,0.687 10.829,0.764 C -0.428,0.745 -0.071,0.432 0,0"
             style="fill:#b5b5b5;fill-opacity:1;fill-rule:nonzero;stroke:none"
             id="path13195"
             inkscape:connector-curvature="0" /></g><g
           id="g13197"
           transform="translate(806.3164,649.0132)"><path
             d="M 0,0 C 0,0 3.148,-11.383 -3.756,-12.316 -10.661,-13.249 -9.377,-0.933 -9.377,-0.933 -6.12,0.422 -2.982,0.83 0,0"
             style="fill:#16101a;fill-opacity:1;fill-rule:nonzero;stroke:none"
             id="path13199"
             inkscape:connector-curvature="0" /></g><g
           id="g13201"
           transform="translate(785.019,668.2339)"><path
             d="m 0,0 c 1.026,1.026 6.158,2.799 12.503,2.799 l 10.636,0 c 0,0 2.239,-2.892 -1.866,-3.825 C 17.168,-1.959 3.266,-1.959 1.866,-1.959 0.467,-1.959 -1.026,-1.026 0,0"
             style="fill:#a3aab0;fill-opacity:1;fill-rule:nonzero;stroke:none"
             id="path13203"
             inkscape:connector-curvature="0" /></g><g
           id="g13205"
           transform="translate(593.1611,712.752)"><path
             d="m 0,0 19.398,-2.872 c 0.212,-0.043 0.431,-0.043 0.643,-0.002 l 24.867,4.842 c 1.277,0.248 2.331,-1.002 1.869,-2.218 L 18.591,-80.447 c -0.593,-1.564 -4.843,-5.342 -7.054,0.801 L -1.956,-1.941 C -2.178,-0.783 -1.156,0.231 0,0"
             style="fill:#211926;fill-opacity:1;fill-rule:nonzero;stroke:none"
             id="path13207"
             inkscape:connector-curvature="0" /></g><g
           id="g13209"
           transform="translate(611.647,780.8301)"><path
             d="m 0,0 c 0.448,1.255 -0.598,2.555 -1.915,2.352 -1.47,-0.227 -3.421,-0.915 -5.56,-2.705 -5.957,-4.984 -3.483,-33.838 -3.483,-33.838 1.596,-27.334 1.145,-38.6 -1.221,-56.542 -0.133,-1.008 0.556,-1.941 1.557,-2.114 l 2.513,-0.435 c 1.141,-0.197 2.19,0.665 2.219,1.822 l 1.035,41.446 c 0.073,2.39 -0.012,4.782 -0.256,7.16 l -1.543,24.223 c 0.458,6.281 1.808,10.744 4.12,13.246 0.721,0.78 1.229,1.73 1.586,2.73 L 0,0 Z"
             style="fill:#ece6e6;fill-opacity:1;fill-rule:nonzero;stroke:none"
             id="path13211"
             inkscape:connector-curvature="0" /></g><g
           id="g13213"><g
             id="g13215" /><g
             id="g13221"><g
               clip-path="url(#clipPath13217)"
               id="g13223"
               style="opacity:0.30000299"><g
                 transform="translate(609.7324,783.1821)"
                 id="g13225"><path
                   d="m 0,0 c -1.471,-0.227 -3.421,-0.916 -5.56,-2.705 -5.957,-4.984 -3.483,-33.838 -3.483,-33.838 1.595,-27.334 1.145,-38.6 -1.221,-56.542 -0.133,-1.008 0.556,-1.941 1.557,-2.114 0,0 2.455,34.448 2.307,39.965 -0.147,5.516 -1.815,26.425 -1.306,33.309 0.509,6.883 0.76,14.479 3.073,16.981 C -3.913,-4.165 1.317,0.203 0,0"
                   style="fill:#8c8c8c;fill-opacity:1;fill-rule:nonzero;stroke:none"
                   id="path13227"
                   inkscape:connector-curvature="0" /></g></g></g></g><g
           id="g13229"
           transform="translate(592.7896,671.0327)"><path
             d="m 0,0 c 0.19,6.176 2.531,17.077 3.325,19.521 0.121,0.972 1.018,1.652 1.986,1.507 l 18.531,-2.774 c 0.959,-0.144 1.629,-1.025 1.511,-1.987 L 23.139,-2.799 C 16.234,0 9.126,-0.03 0,0"
             style="fill:#211926;fill-opacity:1;fill-rule:nonzero;stroke:none"
             id="path13231"
             inkscape:connector-curvature="0" /></g><g
           id="g13233"
           transform="translate(596.9687,661.3125)"><path
             d="m 0,0 c 1.052,-0.948 0.841,-1.601 -0.159,-2.07 1.168,-0.428 0.818,-0.919 -0.111,-1.433 1.092,-0.835 1.362,-1.585 -0.165,-2.149 0.828,-0.803 1.784,-1.634 -0.14,-1.831 1.408,-0.891 1.161,-1.448 -0.138,-1.792 1.24,-0.788 1.663,-1.514 -0.159,-2.07 l -0.166,-2.149 7.297,-0.561 c 0,0 -0.646,2.332 0.174,2.269 -0.874,0.067 -0.786,1.222 0.089,1.154 -0.551,0.883 -1.011,1.446 0.147,1.911 -0.765,0.059 -0.603,2.168 0.162,2.11 -1.202,0.092 -1.077,1.724 0.126,1.632 -0.93,0.071 -0.823,1.464 0.106,1.393 -0.819,0.063 -0.611,2.77 0.208,2.707 L 0,0 Z"
             style="fill:#736d79;fill-opacity:1;fill-rule:nonzero;stroke:none"
             id="path13235"
             inkscape:connector-curvature="0" /></g><g
           id="g13237"
           transform="translate(605.8701,700.1191)"><path
             d="m 0,0 c 0,-3.432 2.321,-6.213 5.185,-6.213 2.863,0 5.184,2.781 5.184,6.213 0,3.432 -2.321,6.213 -5.184,6.213 C 2.321,6.213 0,3.432 0,0"
             style="fill:#c9beba;fill-opacity:1;fill-rule:nonzero;stroke:none"
             id="path13239"
             inkscape:connector-curvature="0" /></g><g
           id="g13241"><g
             id="g13243" /><g
             id="g13249"><g
               clip-path="url(#clipPath13245)"
               id="g13251"
               style="opacity:0.30000299"><g
                 transform="translate(606.2251,698.8516)"
                 id="g13253"><path
                   d="m 0,0 c 0,-2.731 1.768,-4.946 3.95,-4.946 2.181,0 3.949,2.215 3.949,4.946 0,2.732 -1.768,4.946 -3.949,4.946 C 1.768,4.946 0,2.732 0,0"
                   style="fill:#b5b5b5;fill-opacity:1;fill-rule:nonzero;stroke:none"
                   id="path13255"
                   inkscape:connector-curvature="0" /></g></g></g></g><g
           id="g13257"
           transform="translate(602.3872,641.7734)"><path
             d="m 0,0 c 0,-3.432 2.321,-6.213 5.185,-6.213 2.863,0 5.184,2.781 5.184,6.213 0,3.432 -2.321,6.213 -5.184,6.213 C 2.321,6.213 0,3.432 0,0"
             style="fill:#c9beba;fill-opacity:1;fill-rule:nonzero;stroke:none"
             id="path13259"
             inkscape:connector-curvature="0" /></g><g
           id="g13261"><g
             id="g13263" /><g
             id="g13269"><g
               clip-path="url(#clipPath13265)"
               id="g13271"
               style="opacity:0.30000299"><g
                 transform="translate(607.5718,643.248)"
                 id="g13273"><path
                   d="m 0,0 c 0,-1.917 1.077,-3.472 2.405,-3.472 1.329,0 2.406,1.555 2.406,3.472 0,1.917 -1.077,3.472 -2.406,3.472 C 1.077,3.472 0,1.917 0,0"
                   style="fill:#b5b5b5;fill-opacity:1;fill-rule:nonzero;stroke:none"
                   id="path13275"
                   inkscape:connector-curvature="0" /></g></g></g></g><g
           id="g13277"
           transform="translate(595.1333,664.8384)"><path
             d="m 0,0 c -0.266,-1.612 -0.201,-3.507 -0.137,-4.509 0.026,-0.411 0.318,-0.745 0.705,-0.809 l 1.369,-0.227 c 0.029,-0.005 0.058,-0.009 0.087,-0.01 l 6.438,-0.34 2.515,-0.12 c 0.43,-0.02 0.804,0.306 0.866,0.755 l 0.586,4.222 C 12.5,-0.534 12.153,-0.073 11.672,-0.03 9.477,0.166 3.753,0.657 0.843,0.734 0.428,0.745 0.071,0.432 0,0"
             style="fill:#b5b5b5;fill-opacity:1;fill-rule:nonzero;stroke:none"
             id="path13279"
             inkscape:connector-curvature="0" /></g><g
           id="g13281"
           transform="translate(594.6309,649.0132)"><path
             d="M 0,0 C 0,0 -3.148,-11.383 3.757,-12.316 10.661,-13.249 9.378,-0.933 9.378,-0.933 6.121,0.422 2.982,0.83 0,0"
             style="fill:#16101a;fill-opacity:1;fill-rule:nonzero;stroke:none"
             id="path13283"
             inkscape:connector-curvature="0" /></g><g
           id="g13285"
           transform="translate(615.9287,668.2339)"><path
             d="m 0,0 c -1.026,1.026 -6.158,2.799 -12.503,2.799 l -10.636,0 c 0,0 -2.239,-2.892 1.866,-3.825 4.105,-0.933 18.007,-0.933 19.407,-0.933 1.399,0 2.892,0.933 1.866,1.959"
             style="fill:#a3aab0;fill-opacity:1;fill-rule:nonzero;stroke:none"
             id="path13287"
             inkscape:connector-curvature="0" /></g></g></g></g></svg>