<?xml version="1.0" encoding="UTF-8" standalone="no"?>
<!-- Created with Inkscape (http://www.inkscape.org/) -->

<svg
   xmlns:dc="http://purl.org/dc/elements/1.1/"
   xmlns:cc="http://creativecommons.org/ns#"
   xmlns:rdf="http://www.w3.org/1999/02/22-rdf-syntax-ns#"
   xmlns:svg="http://www.w3.org/2000/svg"
   xmlns="http://www.w3.org/2000/svg"
   xmlns:sodipodi="http://sodipodi.sourceforge.net/DTD/sodipodi-0.dtd"
   xmlns:inkscape="http://www.inkscape.org/namespaces/inkscape"
   width="274.04169mm"
   height="263.6868mm"
   viewBox="0 0 971.0138 934.32326"
   id="svg2"
   version="1.1"
   inkscape:version="0.91 r13725"
   sodipodi:docname="cowbell.svg">
  <defs
     id="defs4">
    <clipPath
       id="clipPath4150"
       clipPathUnits="userSpaceOnUse">
      <path
         inkscape:connector-curvature="0"
         id="path4152"
         d="m 0,1080 1920,0 L 1920,0 0,0 0,1080 Z" />
    </clipPath>
    <clipPath
       id="clipPath4166"
       clipPathUnits="userSpaceOnUse">
      <path
         inkscape:connector-curvature="0"
         id="path4168"
         d="m 942.129,692.569 154.091,0 0,-510.23 -154.091,0 0,510.23 z" />
    </clipPath>
    <clipPath
       id="clipPath4883"
       clipPathUnits="userSpaceOnUse">
      <path
         inkscape:connector-curvature="0"
         id="path4885"
         d="m 0,1080 1920,0 L 1920,0 0,0 0,1080 Z" />
    </clipPath>
    <clipPath
       id="clipPath4911"
       clipPathUnits="userSpaceOnUse">
      <path
         inkscape:connector-curvature="0"
         id="path4913"
         d="m 990.776,791.688 484.274,0 0,-38.68 -484.274,0 0,38.68 z" />
    </clipPath>
    <clipPath
       id="clipPath4931"
       clipPathUnits="userSpaceOnUse">
      <path
         inkscape:connector-curvature="0"
         id="path4933"
         d="m 999.022,601.943 477.198,0 0,-38.055 -477.198,0 0,38.055 z" />
    </clipPath>
    <clipPath
       id="clipPath4947"
       clipPathUnits="userSpaceOnUse">
      <path
         inkscape:connector-curvature="0"
         id="path4949"
         d="m 997.383,572.12 471.727,0 0,-34.648 -471.727,0 0,34.648 z" />
    </clipPath>
    <clipPath
       id="clipPath4963"
       clipPathUnits="userSpaceOnUse">
      <path
         inkscape:connector-curvature="0"
         id="path4965"
         d="m 1002.38,545.925 466.73,0 0,-34.019 -466.73,0 0,34.019 z" />
    </clipPath>
    <clipPath
       id="clipPath4979"
       clipPathUnits="userSpaceOnUse">
      <path
         inkscape:connector-curvature="0"
         id="path4981"
         d="m 997.383,516.8 473.247,0 0,-35.698 -473.247,0 0,35.698 z" />
    </clipPath>
    <clipPath
       id="clipPath5007"
       clipPathUnits="userSpaceOnUse">
      <path
         inkscape:connector-curvature="0"
         id="path5009"
         d="m 1433.49,646.439 54.19,0 0,-307.764 -54.19,0 0,307.764 z" />
    </clipPath>
    <clipPath
       id="clipPath5027"
       clipPathUnits="userSpaceOnUse">
      <path
         inkscape:connector-curvature="0"
         id="path5029"
         d="m 1013.52,645.012 54.2,0 0,-307.764 -54.2,0 0,307.764 z" />
    </clipPath>
    <clipPath
       id="clipPath5097"
       clipPathUnits="userSpaceOnUse">
      <path
         inkscape:connector-curvature="0"
         id="path5099"
         d="m 437.751,780.453 408.728,0 0,-38.681 -408.728,0 0,38.681 z" />
    </clipPath>
    <clipPath
       id="clipPath5117"
       clipPathUnits="userSpaceOnUse">
      <path
         inkscape:connector-curvature="0"
         id="path5119"
         d="m 444.242,590.708 403.691,0 0,-38.056 -403.691,0 0,38.056 z" />
    </clipPath>
    <clipPath
       id="clipPath5133"
       clipPathUnits="userSpaceOnUse">
      <path
         inkscape:connector-curvature="0"
         id="path5135"
         d="m 442.859,560.884 399.074,0 0,-34.647 -399.074,0 0,34.647 z" />
    </clipPath>
    <clipPath
       id="clipPath5149"
       clipPathUnits="userSpaceOnUse">
      <path
         inkscape:connector-curvature="0"
         id="path5151"
         d="m 447.079,534.689 394.854,0 0,-34.019 -394.854,0 0,34.019 z" />
    </clipPath>
    <clipPath
       id="clipPath5165"
       clipPathUnits="userSpaceOnUse">
      <path
         inkscape:connector-curvature="0"
         id="path5167"
         d="m 442.859,505.564 400.361,0 0,-35.698 -400.361,0 0,35.698 z" />
    </clipPath>
    <clipPath
       id="clipPath5193"
       clipPathUnits="userSpaceOnUse">
      <path
         inkscape:connector-curvature="0"
         id="path5195"
         d="m 811.4,635.203 45.74,0 0,-307.764 -45.74,0 0,307.764 z" />
    </clipPath>
    <clipPath
       id="clipPath5213"
       clipPathUnits="userSpaceOnUse">
      <path
         inkscape:connector-curvature="0"
         id="path5215"
         d="m 456.95,633.776 45.74,0 0,-307.764 -45.74,0 0,307.764 z" />
    </clipPath>
    <clipPath
       id="clipPath5443"
       clipPathUnits="userSpaceOnUse">
      <path
         inkscape:connector-curvature="0"
         id="path5445"
         d="m 0,1080 1920,0 L 1920,0 0,0 0,1080 Z" />
    </clipPath>
    <clipPath
       id="clipPath5455"
       clipPathUnits="userSpaceOnUse">
      <path
         inkscape:connector-curvature="0"
         id="path5457"
         d="m 642.484,870.663 539.406,0 0,-786.082 -539.406,0 0,786.082 z" />
    </clipPath>
    <clipPath
       id="clipPath5471"
       clipPathUnits="userSpaceOnUse">
      <path
         inkscape:connector-curvature="0"
         id="path5473"
         d="m 882.842,640.612 102.274,0 0,-208.386 -102.274,0 0,208.386 z" />
    </clipPath>
    <clipPath
       id="clipPath5491"
       clipPathUnits="userSpaceOnUse">
      <path
         inkscape:connector-curvature="0"
         id="path5493"
         d="m 823,1004.68 361.6,0 0,-879.68 -361.6,0 0,879.68 z" />
    </clipPath>
    <clipPath
       id="clipPath5550"
       clipPathUnits="userSpaceOnUse">
      <path
         inkscape:connector-curvature="0"
         id="path5552"
         d="m 0,1080 1920,0 L 1920,0 0,0 0,1080 Z" />
    </clipPath>
    <clipPath
       id="clipPath5570"
       clipPathUnits="userSpaceOnUse">
      <path
         inkscape:connector-curvature="0"
         id="path5572"
         d="m 939.25,916.333 20.75,0 0,-70.666 -20.75,0 0,70.666 z" />
    </clipPath>
    <clipPath
       id="clipPath5594"
       clipPathUnits="userSpaceOnUse">
      <path
         inkscape:connector-curvature="0"
         id="path5596"
         d="m 725.939,715 428.591,0 0,-490.822 -428.591,0 0,490.822 z" />
    </clipPath>
    <clipPath
       id="clipPath5618"
       clipPathUnits="userSpaceOnUse">
      <path
         inkscape:connector-curvature="0"
         id="path5620"
         d="m 862.45,572.305 89.011,0 0,-89.011 -89.011,0 0,89.011 z" />
    </clipPath>
  </defs>
  <sodipodi:namedview
     id="base"
     pagecolor="#ffffff"
     bordercolor="#666666"
     borderopacity="1.0"
     inkscape:pageopacity="0.0"
     inkscape:pageshadow="2"
     inkscape:zoom="0.35"
     inkscape:cx="1449.3015"
     inkscape:cy="899.74044"
     inkscape:document-units="px"
     inkscape:current-layer="layer1"
     showgrid="false"
     fit-margin-top="0"
     fit-margin-left="0"
     fit-margin-right="0"
     fit-margin-bottom="0"
     inkscape:window-width="1920"
     inkscape:window-height="1137"
     inkscape:window-x="-8"
     inkscape:window-y="-8"
     inkscape:window-maximized="1" />
  <metadata
     id="metadata7">
    <rdf:RDF>
      <cc:Work
         rdf:about="">
        <dc:format>image/svg+xml</dc:format>
        <dc:type
           rdf:resource="http://purl.org/dc/dcmitype/StillImage" />
        <dc:title></dc:title>
      </cc:Work>
    </rdf:RDF>
  </metadata>
  <g
     inkscape:label="Layer 1"
     inkscape:groupmode="layer"
     id="layer1"
     transform="translate(1501.4444,-497.77922)">
    <g
       transform="matrix(1.25,0,0,-1.25,-2011.8417,1643.1961)"
       inkscape:label="Cowbell"
       id="g5544">
      <g
         id="g5546">
        <g
           clip-path="url(#clipPath5550)"
           id="g5548">
          <g
             transform="translate(968.6758,897.3154)"
             id="g5554">
            <path
               inkscape:connector-curvature="0"
               id="path5556"
               style="fill:#dddddd;fill-opacity:1;fill-rule:nonzero;stroke:none"
               d="m 0,0 c -0.007,2.004 1.146,3.839 2.973,4.663 3.968,1.79 12.963,4.177 32.851,4.397 36.875,0.406 32.5,-15.042 32.5,-15.042 0,0 0.161,-18.083 -13.333,-18.667 -8.968,-0.388 -32.44,1.415 -45.611,2.522 -5.269,0.442 -9.319,4.836 -9.338,10.124 L 0,0 Z" />
          </g>
          <g
             transform="translate(939.25,897.3154)"
             id="g5558">
            <path
               inkscape:connector-curvature="0"
               id="path5560"
               style="fill:#dddddd;fill-opacity:1;fill-rule:nonzero;stroke:none"
               d="m 0,0 c 0.007,2.004 -1.146,3.839 -2.973,4.663 -3.968,1.79 -12.963,4.177 -32.851,4.397 -36.875,0.406 -32.5,-15.042 -32.5,-15.042 0,0 -0.161,-18.083 13.333,-18.667 8.968,-0.388 32.44,1.415 45.611,2.522 5.269,0.442 9.32,4.836 9.338,10.124 L 0,0 Z" />
          </g>
          <g
             transform="translate(958.6665,845.6665)"
             id="g5562">
            <path
               inkscape:connector-curvature="0"
               id="path5564"
               style="fill:#b2b2b2;fill-opacity:1;fill-rule:nonzero;stroke:none"
               d="m 0,0 -16,0 c -6.6,0 -12,5.4 -12,12 l 0,46.667 c 0,6.6 5.4,12 12,12 l 16,0 c 6.6,0 12,-5.4 12,-12 L 12,12 C 12,5.4 6.6,0 0,0" />
          </g>
          <g
             id="g5566">
            <g
               id="g5568" />
            <g
               id="g5574">
              <g
                 style="opacity:0.30000299"
                 id="g5576"
                 clip-path="url(#clipPath5570)">
                <g
                   id="g5578"
                   transform="translate(960,916.2539)">
                  <path
                     inkscape:connector-curvature="0"
                     id="path5580"
                     style="fill:#b2b2b2;fill-opacity:1;fill-rule:nonzero;stroke:none"
                     d="m 0,0 c -0.438,0.049 -0.882,0.08 -1.333,0.08 l -16,0 c -1.187,0 -2.333,-0.181 -3.417,-0.506 l 0,-69.656 c 1.084,-0.325 2.23,-0.505 3.417,-0.505 l 16,0 c 0.451,0 0.895,0.03 1.333,0.079 L 0,0 Z" />
                </g>
              </g>
            </g>
          </g>
          <g
             transform="translate(949.5,739.5)"
             id="g5582">
            <path
               inkscape:connector-curvature="0"
               id="path5584"
               style="fill:#1f1f29;fill-opacity:1;fill-rule:nonzero;stroke:none"
               d="M 0,0 C -14.083,0 -25.5,11.417 -25.5,25.5 -25.5,39.583 -14.083,51 0,51 14.083,51 25.5,39.583 25.5,25.5 25.5,11.417 14.083,0 0,0 m 49.5,119.5 -98,0 c -6.6,0 -12,-5.4 -12,-12 l 0,-149.5 c 0,-6.6 5.4,-12 12,-12 l 98,0 c 6.6,0 12,5.4 12,12 l 0,149.5 c 0,6.6 -5.4,12 -12,12" />
          </g>
          <g
             transform="translate(783.6846,715)"
             id="g5586">
            <path
               inkscape:connector-curvature="0"
               id="path5588"
               style="fill:#1f1f29;fill-opacity:1;fill-rule:nonzero;stroke:none"
               d="m 0,0 324.325,0 c 21.734,0 25.096,-16.12 27.91,-37.671 L 398.931,-454 c 3.383,-25.906 7.565,-36.926 -18.561,-36.926 L -72.685,-486 c -26.265,0 -29.475,16.208 -25.864,42.224 l 68.684,406.449 C -26.896,-15.93 -21.602,0 0,0" />
          </g>
          <g
             id="g5590">
            <g
               id="g5592" />
            <g
               id="g5598">
              <g
                 style="opacity:0.30000299"
                 id="g5600"
                 clip-path="url(#clipPath5594)">
                <g
                   id="g5602"
                   transform="translate(791.5747,715)">
                  <path
                     inkscape:connector-curvature="0"
                     id="path5604"
                     style="fill:#2f3034;fill-opacity:1;fill-rule:nonzero;stroke:none"
                     d="m 0,0 -65.636,-486.162 428.594,-4.66 L 301.223,0 0,0 Z" />
                </g>
              </g>
            </g>
          </g>
          <g
             transform="translate(924.062,522.626)"
             id="g5606">
            <path
               inkscape:connector-curvature="0"
               id="path5608"
               style="fill:#ccb492;fill-opacity:1;fill-rule:nonzero;stroke:none"
               d="m 0,0 -497.627,-351.66 c -5.169,-3.646 -12.381,-2.4 -16.026,2.769 -3.646,5.169 -2.4,12.38 2.769,16.027 L -13.257,18.795 C -8.088,22.44 -0.876,21.194 2.769,16.025 6.415,10.857 5.168,3.646 0,0" />
          </g>
          <g
             transform="translate(959.5039,531.1025)"
             id="g5610">
            <path
               inkscape:connector-curvature="0"
               id="path5612"
               style="fill:#fedfab;fill-opacity:1;fill-rule:nonzero;stroke:none"
               d="m 0,0 c 3.706,-26.528 -14.794,-51.038 -41.323,-54.744 -26.528,-3.707 -51.038,14.794 -54.744,41.322 -3.706,26.528 14.795,51.038 41.323,54.744 C -28.216,45.029 -3.706,26.528 0,0" />
          </g>
          <g
             id="g5614">
            <g
               id="g5616" />
            <g
               id="g5622">
              <g
                 style="opacity:0.30000299"
                 id="g5624"
                 clip-path="url(#clipPath5618)">
                <g
                   id="g5626"
                   transform="translate(951.0273,533.957)">
                  <path
                     inkscape:connector-curvature="0"
                     id="path5628"
                     style="fill:#a0a0a0;fill-opacity:1;fill-rule:nonzero;stroke:none"
                     d="m 0,0 c 3.4,-24.341 -13.574,-46.829 -37.915,-50.229 -24.34,-3.401 -46.828,13.574 -50.229,37.915 -3.4,24.339 13.575,46.828 37.915,50.229 C -25.889,41.315 -3.4,24.34 0,0" />
                </g>
              </g>
            </g>
          </g>
        </g>
      </g>
    </g>
  </g>
</svg>
