<?xml version="1.0" encoding="UTF-8" standalone="no"?>
<!-- Created with Inkscape (http://www.inkscape.org/) -->

<svg
   xmlns:dc="http://purl.org/dc/elements/1.1/"
   xmlns:cc="http://creativecommons.org/ns#"
   xmlns:rdf="http://www.w3.org/1999/02/22-rdf-syntax-ns#"
   xmlns:svg="http://www.w3.org/2000/svg"
   xmlns="http://www.w3.org/2000/svg"
   xmlns:sodipodi="http://sodipodi.sourceforge.net/DTD/sodipodi-0.dtd"
   xmlns:inkscape="http://www.inkscape.org/namespaces/inkscape"
   id="svg12687"
   version="1.1"
   inkscape:version="0.91 r13725"
   xml:space="preserve"
   width="826.14569"
   height="722.99432"
   viewBox="0 0 826.1457 722.99432"
   sodipodi:docname="kickdrum.svg"><metadata
     id="metadata12693"><rdf:RDF><cc:Work
         rdf:about=""><dc:format>image/svg+xml</dc:format><dc:type
           rdf:resource="http://purl.org/dc/dcmitype/StillImage" /><dc:title></dc:title></cc:Work></rdf:RDF></metadata><defs
     id="defs12691"><clipPath
       id="clipPath15762"
       clipPathUnits="userSpaceOnUse"><path
         inkscape:connector-curvature="0"
         id="path15764"
         d="m 0,1080 1920,0 L 1920,0 0,0 0,1080 Z" /></clipPath><clipPath
       id="clipPath15774"
       clipPathUnits="userSpaceOnUse"><path
         inkscape:connector-curvature="0"
         id="path15776"
         d="m 1184.46,482.718 80.56,0 0,-160.14 -80.56,0 0,160.14 z" /></clipPath><clipPath
       id="clipPath15794"
       clipPathUnits="userSpaceOnUse"><path
         inkscape:connector-curvature="0"
         id="path15796"
         d="m 1261.83,325.037 27.41,0 0,-41.137 -27.41,0 0,41.137 z" /></clipPath><clipPath
       id="clipPath15846"
       clipPathUnits="userSpaceOnUse"><path
         inkscape:connector-curvature="0"
         id="path15848"
         d="m 643.58,792.491 185.064,0 0,-369.919 -185.064,0 0,369.919 z" /></clipPath><clipPath
       id="clipPath15894"
       clipPathUnits="userSpaceOnUse"><path
         inkscape:connector-curvature="0"
         id="path15896"
         d="m 703.985,443.977 24.8,0 0,-176.703 -24.8,0 0,176.703 z" /></clipPath><clipPath
       id="clipPath15914"
       clipPathUnits="userSpaceOnUse"><path
         inkscape:connector-curvature="0"
         id="path15916"
         d="m 697.971,268.802 16.133,0 0,-43.89 -16.133,0 0,43.89 z" /></clipPath></defs><sodipodi:namedview
     pagecolor="#ffffff"
     bordercolor="#666666"
     borderopacity="1"
     objecttolerance="10"
     gridtolerance="10"
     guidetolerance="10"
     inkscape:pageopacity="0"
     inkscape:pageshadow="2"
     inkscape:window-width="1920"
     inkscape:window-height="1137"
     id="namedview12689"
     showgrid="false"
     fit-margin-top="0"
     fit-margin-left="0"
     fit-margin-right="0"
     fit-margin-bottom="0"
     inkscape:zoom="0.13875"
     inkscape:cx="2888.3748"
     inkscape:cy="1458.6284"
     inkscape:window-x="-8"
     inkscape:window-y="-8"
     inkscape:window-maximized="1"
     inkscape:current-layer="g12695" /><g
     id="g12695"
     inkscape:groupmode="layer"
     inkscape:label="Congas"
     transform="matrix(1.25,0,0,-1.25,1688.3748,-60.633987)"><g
       transform="translate(-1979.0273,-851.81439)"
       inkscape:label="Kick drum"
       id="g15756"><g
         id="g15758"><g
           clip-path="url(#clipPath15762)"
           id="g15760"><g
             transform="translate(1262.7363,322.5781)"
             id="g15766"><path
               inkscape:connector-curvature="0"
               id="path15768"
               style="fill:#2b2f32;fill-opacity:1;fill-rule:nonzero;stroke:none"
               d="m 0,0 0,0 c -2.246,-1.101 -4.985,-0.163 -6.086,2.084 l -74.273,151.595 c -1.102,2.247 -0.163,4.985 2.083,6.087 2.247,1.1 4.986,0.163 6.087,-2.084 L 2.084,6.087 C 3.185,3.84 2.247,1.102 0,0" /></g><g
             id="g15770"><g
               id="g15772" /><g
               id="g15778"><g
                 style="opacity:0.30000299"
                 id="g15780"
                 clip-path="url(#clipPath15774)"><g
                   id="g15782"
                   transform="translate(1262.7363,322.5781)"><path
                     inkscape:connector-curvature="0"
                     id="path15784"
                     style="fill:#a0a0a0;fill-opacity:1;fill-rule:nonzero;stroke:none"
                     d="m 0,0 0,0 c -11.369,23.206 -68.072,138.939 -78.276,159.766 2.247,1.1 5.216,-0.309 6.599,-3.131 L 1.571,7.134 C 2.954,4.312 2.247,1.102 0,0" /></g></g></g></g><g
             transform="translate(1281.252,284.2285)"
             id="g15786"><path
               inkscape:connector-curvature="0"
               id="path15788"
               style="fill:#131313;fill-opacity:1;fill-rule:nonzero;stroke:none"
               d="m 0,0 -0.699,-0.329 c -5.81,-2.728 -12.606,-1.054 -16.566,3.644 -1.279,1.519 -1.964,3.452 -2.073,5.435 l -0.479,8.813 c -0.21,3.851 -1.127,7.619 -2.575,11.193 -1.874,4.632 -2.23,8.355 2.965,10.795 l 0.699,0.329 c 5.196,2.439 7.834,-0.213 10.201,-4.613 1.827,-3.397 4.14,-6.508 6.969,-9.129 L 4.917,20.14 C 6.374,18.79 7.424,17.028 7.775,15.073 8.861,9.026 5.81,2.728 0,0" /></g><g
             id="g15790"><g
               id="g15792" /><g
               id="g15798"><g
                 style="opacity:0.30000299"
                 id="g15800"
                 clip-path="url(#clipPath15794)"><g
                   id="g15802"
                   transform="translate(1281.252,284.2285)"><path
                     inkscape:connector-curvature="0"
                     id="path15804"
                     style="fill:#939393;fill-opacity:1;fill-rule:nonzero;stroke:none"
                     d="m 0,0 -0.699,-0.329 c -7.132,16.85 -18.728,39.88 -18.728,39.88 l 0.699,0.329 c 5.196,2.439 7.834,-0.213 10.201,-4.613 1.827,-3.397 4.14,-6.508 6.969,-9.129 L 4.917,20.14 C 6.374,18.79 7.424,17.028 7.775,15.073 8.861,9.026 5.81,2.728 0,0" /></g></g></g></g><g
             transform="translate(1269.4844,324.7158)"
             id="g15806"><path
               inkscape:connector-curvature="0"
               id="path15808"
               style="fill:#565c58;fill-opacity:1;fill-rule:nonzero;stroke:none"
               d="m 0,0 -12.572,-6.159 c -1.4,-0.686 -3.106,-0.102 -3.791,1.298 -0.686,1.399 -0.102,3.104 1.298,3.791 L -2.493,5.089 C -1.094,5.774 0.612,5.19 1.298,3.791 1.983,2.392 1.399,0.686 0,0" /></g><g
             transform="translate(679.0864,707.8335)"
             id="g15810"><path
               inkscape:connector-curvature="0"
               id="path15812"
               style="fill:#2b2f32;fill-opacity:1;fill-rule:nonzero;stroke:none"
               d="m 0,0 c 0,-5.663 -4.59,-10.253 -10.253,-10.253 -5.663,0 -10.253,4.59 -10.253,10.253 0,5.663 4.59,10.253 10.253,10.253 C -4.59,10.253 0,5.663 0,0" /></g><g
             transform="translate(773.8159,779.3271)"
             id="g15814"><path
               inkscape:connector-curvature="0"
               id="path15816"
               style="fill:#2b2f32;fill-opacity:1;fill-rule:nonzero;stroke:none"
               d="m 0,0 c 0,-5.663 -4.59,-10.253 -10.253,-10.253 -5.663,0 -10.253,4.59 -10.253,10.253 0,5.663 4.59,10.253 10.253,10.253 C -4.59,10.253 0,5.663 0,0" /></g><g
             transform="translate(872.3335,793.0542)"
             id="g15818"><path
               inkscape:connector-curvature="0"
               id="path15820"
               style="fill:#2b2f32;fill-opacity:1;fill-rule:nonzero;stroke:none"
               d="m 0,0 c 0,-5.663 -4.591,-10.253 -10.253,-10.253 -5.663,0 -10.253,4.59 -10.253,10.253 0,5.663 4.59,10.253 10.253,10.253 C -4.591,10.253 0,5.663 0,0" /></g><g
             transform="translate(648.8335,581.8335)"
             id="g15822"><path
               inkscape:connector-curvature="0"
               id="path15824"
               style="fill:#2b2f32;fill-opacity:1;fill-rule:nonzero;stroke:none"
               d="m 0,0 c 0,-5.663 -4.591,-10.253 -10.253,-10.253 -5.663,0 -10.253,4.59 -10.253,10.253 0,5.663 4.59,10.253 10.253,10.253 C -4.591,10.253 0,5.663 0,0" /></g><g
             transform="translate(689.3394,471.0801)"
             id="g15826"><path
               inkscape:connector-curvature="0"
               id="path15828"
               style="fill:#2b2f32;fill-opacity:1;fill-rule:nonzero;stroke:none"
               d="m 0,0 c 0,-5.662 -4.59,-10.253 -10.253,-10.253 -5.663,0 -10.253,4.591 -10.253,10.253 0,5.663 4.59,10.253 10.253,10.253 C -4.59,10.253 0,5.663 0,0" /></g><g
             transform="translate(1188.2422,513.708)"
             id="g15830"><path
               inkscape:connector-curvature="0"
               id="path15832"
               style="fill:#e5ded6;fill-opacity:1;fill-rule:nonzero;stroke:none"
               d="m 0,0 c -8.429,-130.755 -108.53,-230.74 -223.585,-223.324 -115.054,7.416 -201.491,119.427 -193.063,250.181 8.428,130.755 108.531,230.741 223.586,223.325 C -78.009,242.766 8.429,130.755 0,0" /></g><g
             transform="translate(861.6665,792.3335)"
             id="g15834"><path
               inkscape:connector-curvature="0"
               id="path15836"
               style="fill:#282c2b;fill-opacity:1;fill-rule:nonzero;stroke:none"
               d="m 0,0 189.333,-28.667 c 0,0 -245.333,41.334 -278.666,-242 C -94,-451.333 21.833,-474.669 21.833,-474.669 c 0,0 -73.833,31.336 -170.5,122.002 C -174,-326 -244,-281.333 -208,-134 -162.667,18.667 0,0 0,0" /></g><g
             transform="translate(1109,739)"
             id="g15838"><path
               inkscape:connector-curvature="0"
               id="path15840"
               style="fill:#101211;fill-opacity:1;fill-rule:nonzero;stroke:none"
               d="m 0,0 c -142.667,88 -257,-14 -257,-14 0,0 -103.406,-93.9 -91,-225 12.333,-130.333 82,-210 219,-216 93.667,0 165,68.667 203,141.667 22,51 73.333,204.666 -74,313.333 m -134,-438 c -197.157,0.002 -200.19,196.113 -197.639,224 C -326.333,-156 -296,-2 -149,18 60.667,40 78.667,-164.667 78.667,-164.667 c 0,0 30.666,-232 -212.667,-273.333" /></g><g
             id="g15842"><g
               id="g15844" /><g
               id="g15850"><g
                 style="opacity:0.30000299"
                 id="g15852"
                 clip-path="url(#clipPath15846)"><g
                   id="g15854"
                   transform="translate(726.5571,631)"><path
                     inkscape:connector-curvature="0"
                     id="path15856"
                     style="fill:#999999;fill-opacity:1;fill-rule:nonzero;stroke:none"
                     d="M 0,0 C 21.929,94 51.157,139.67 102.087,161.491 52.085,158.095 -40.447,136.59 -72.891,27.333 c -36,-147.333 34,-192 59.334,-218.666 6.348,-5.954 12.594,-11.646 18.73,-17.096 C -2.475,-167.032 -23.155,-99.254 0,0" /></g></g></g></g><g
             transform="translate(1081.333,767.8335)"
             id="g15858"><path
               inkscape:connector-curvature="0"
               id="path15860"
               style="fill:#2b2f32;fill-opacity:1;fill-rule:nonzero;stroke:none"
               d="m 0,0 c 0,-8.008 -6.491,-14.5 -14.5,-14.5 -8.008,0 -14.5,6.492 -14.5,14.5 0,8.008 6.492,14.5 14.5,14.5 C -6.491,14.5 0,8.008 0,0" /></g><g
             transform="translate(1192,691.1665)"
             id="g15862"><path
               inkscape:connector-curvature="0"
               id="path15864"
               style="fill:#2b2f32;fill-opacity:1;fill-rule:nonzero;stroke:none"
               d="m 0,0 c 0,-8.008 -6.492,-14.5 -14.5,-14.5 -8.008,0 -14.5,6.492 -14.5,14.5 0,8.008 6.492,14.5 14.5,14.5 C -6.492,14.5 0,8.008 0,0" /></g><g
             transform="translate(1236,550.5)"
             id="g15866"><path
               inkscape:connector-curvature="0"
               id="path15868"
               style="fill:#2b2f32;fill-opacity:1;fill-rule:nonzero;stroke:none"
               d="m 0,0 c 0,-8.008 -6.492,-14.5 -14.5,-14.5 -8.008,0 -14.5,6.492 -14.5,14.5 0,8.008 6.492,14.5 14.5,14.5 C -6.492,14.5 0,8.008 0,0" /></g><g
             transform="translate(1200.667,403.167)"
             id="g15870"><path
               inkscape:connector-curvature="0"
               id="path15872"
               style="fill:#2b2f32;fill-opacity:1;fill-rule:nonzero;stroke:none"
               d="m 0,0 c 0,-8.009 -6.492,-14.5 -14.5,-14.5 -8.009,0 -14.5,6.491 -14.5,14.5 0,8.008 6.491,14.5 14.5,14.5 C -6.492,14.5 0,8.008 0,0" /></g><g
             transform="translate(1095.833,299.167)"
             id="g15874"><path
               inkscape:connector-curvature="0"
               id="path15876"
               style="fill:#2b2f32;fill-opacity:1;fill-rule:nonzero;stroke:none"
               d="m 0,0 c 0,-8.009 -6.491,-14.5 -14.5,-14.5 -8.008,0 -14.5,6.491 -14.5,14.5 0,8.008 6.492,14.5 14.5,14.5 C -6.491,14.5 0,8.008 0,0" /></g><g
             transform="translate(960,277.833)"
             id="g15878"><path
               inkscape:connector-curvature="0"
               id="path15880"
               style="fill:#2b2f32;fill-opacity:1;fill-rule:nonzero;stroke:none"
               d="m 0,0 c 0,-8.008 -6.492,-14.5 -14.5,-14.5 -8.008,0 -14.5,6.492 -14.5,14.5 0,8.009 6.492,14.5 14.5,14.5 C -6.492,14.5 0,8.009 0,0" /></g><g
             transform="translate(837.3335,349.167)"
             id="g15882"><path
               inkscape:connector-curvature="0"
               id="path15884"
               style="fill:#2b2f32;fill-opacity:1;fill-rule:nonzero;stroke:none"
               d="m 0,0 c 0,-8.009 -6.492,-14.5 -14.5,-14.5 -8.008,0 -14.5,6.491 -14.5,14.5 0,8.008 6.492,14.5 14.5,14.5 C -6.492,14.5 0,8.008 0,0" /></g><g
             transform="translate(703.9849,267.2988)"
             id="g15886"><path
               inkscape:connector-curvature="0"
               id="path15888"
               style="fill:#2b2f32;fill-opacity:1;fill-rule:nonzero;stroke:none"
               d="m 0,0 0,0 c -2.484,0.294 -4.277,2.567 -3.983,5.052 l 19.836,167.642 c 0.293,2.486 2.567,4.278 5.052,3.984 2.485,-0.294 4.277,-2.568 3.983,-5.052 L 5.052,3.983 C 4.758,1.498 2.485,-0.294 0,0" /></g><g
             id="g15890"><g
               id="g15892" /><g
               id="g15898"><g
                 style="opacity:0.30000299"
                 id="g15900"
                 clip-path="url(#clipPath15894)"><g
                   id="g15902"
                   transform="translate(703.9849,267.2988)"><path
                     inkscape:connector-curvature="0"
                     id="path15904"
                     style="fill:#a0a0a0;fill-opacity:1;fill-rule:nonzero;stroke:none"
                     d="m 0,0 0,0 c 3.037,25.663 18.18,153.647 20.905,176.678 2.485,-0.294 4.215,-3.089 3.846,-6.21 L 5.189,5.141 C 4.82,2.02 2.485,-0.294 0,0" /></g></g></g></g><g
             transform="translate(698.7368,225.0371)"
             id="g15906"><path
               inkscape:connector-curvature="0"
               id="path15908"
               style="fill:#131313;fill-opacity:1;fill-rule:nonzero;stroke:none"
               d="m 0,0 -0.766,0.104 c -6.36,0.859 -11.161,5.953 -11.939,12.046 -0.252,1.971 0.221,3.966 1.206,5.691 l 4.377,7.665 c 1.913,3.348 3.186,7.011 3.91,10.799 0.938,4.908 2.658,8.229 8.346,7.461 L 5.9,43.662 c 5.687,-0.768 6.465,-4.428 6.066,-9.408 -0.307,-3.845 -0.051,-7.713 0.904,-11.45 l 2.186,-8.551 C 15.548,12.329 15.474,10.279 14.708,8.446 12.34,2.777 6.36,-0.859 0,0" /></g><g
             id="g15910"><g
               id="g15912" /><g
               id="g15918"><g
                 style="opacity:0.30000299"
                 id="g15920"
                 clip-path="url(#clipPath15914)"><g
                   id="g15922"
                   transform="translate(698.7368,225.0371)"><path
                     inkscape:connector-curvature="0"
                     id="path15924"
                     style="fill:#939393;fill-opacity:1;fill-rule:nonzero;stroke:none"
                     d="m 0,0 -0.766,0.104 c 3.149,18.024 5.9,43.662 5.9,43.662 L 5.9,43.662 c 5.687,-0.768 6.465,-4.428 6.066,-9.408 -0.307,-3.845 -0.051,-7.713 0.904,-11.45 l 2.186,-8.551 C 15.548,12.329 15.474,10.279 14.708,8.446 12.34,2.777 6.36,-0.859 0,0" /></g></g></g></g><g
             transform="translate(710.8135,265.4346)"
             id="g15926"><path
               inkscape:connector-curvature="0"
               id="path15928"
               style="fill:#565c58;fill-opacity:1;fill-rule:nonzero;stroke:none"
               d="m 0,0 -13.903,1.645 c -1.548,0.183 -2.664,1.599 -2.481,3.146 0.183,1.548 1.599,2.664 3.147,2.481 L 0.666,5.627 C 2.213,5.444 3.33,4.028 3.146,2.48 2.963,0.933 1.547,-0.184 0,0" /></g><g
             transform="translate(947.5674,779.3271)"
             id="g15930"><path
               inkscape:connector-curvature="0"
               id="path15932"
               style="fill:none;stroke:#b9b9ba;stroke-width:7;stroke-linecap:round;stroke-linejoin:round;stroke-miterlimit:10;stroke-dasharray:none;stroke-opacity:1"
               d="m 0,0 c 0,0 -129.029,-6.86 -181.245,-167.327 -47.178,-144.984 14.158,-227.317 14.158,-227.317" /></g><g
             transform="translate(878,785.8755)"
             id="g15934"><path
               inkscape:connector-curvature="0"
               id="path15936"
               style="fill:none;stroke:#b9b9ba;stroke-width:7;stroke-linecap:round;stroke-linejoin:round;stroke-miterlimit:10;stroke-dasharray:none;stroke-opacity:1"
               d="M 0,0 C 0,0 -157,23.125 -211.24,-113.375 -256,-248.875 -180,-325.048 -180,-325.048" /></g><g
             transform="translate(701.3218,693.4355)"
             id="g15938"><path
               inkscape:connector-curvature="0"
               id="path15940"
               style="fill:#b9b9ba;fill-opacity:1;fill-rule:nonzero;stroke:none"
               d="m 0,0 0,0 c -0.708,-1.865 -2.813,-2.811 -4.678,-2.102 l -27.546,12.316 c -1.865,0.709 -2.811,2.814 -2.103,4.679 0.709,1.864 2.814,2.81 4.679,2.102 L -2.102,4.678 C -0.238,3.97 0.708,1.865 0,0" /></g><g
             transform="translate(794.5288,765.5537)"
             id="g15942"><path
               inkscape:connector-curvature="0"
               id="path15944"
               style="fill:#b9b9ba;fill-opacity:1;fill-rule:nonzero;stroke:none"
               d="m 0,0 0,0 c -0.708,-1.864 -2.813,-2.811 -4.678,-2.102 l -27.547,12.316 c -1.864,0.709 -2.81,2.814 -2.102,4.679 0.708,1.864 2.814,2.81 4.678,2.102 L -2.103,4.678 C -0.238,3.97 0.708,1.865 0,0" /></g><g
             transform="translate(889.0288,781.9292)"
             id="g15946"><path
               inkscape:connector-curvature="0"
               id="path15948"
               style="fill:#b9b9ba;fill-opacity:1;fill-rule:nonzero;stroke:none"
               d="m 0,0 0,0 c -0.708,-1.864 -2.813,-2.811 -4.678,-2.102 l -27.547,12.316 c -1.864,0.709 -2.81,2.814 -2.102,4.679 0.708,1.864 2.814,2.81 4.678,2.102 L -2.103,4.678 C -0.238,3.97 0.708,1.865 0,0" /></g><g
             transform="translate(671.1162,575.9028)"
             id="g15950"><path
               inkscape:connector-curvature="0"
               id="path15952"
               style="fill:#b9b9ba;fill-opacity:1;fill-rule:nonzero;stroke:none"
               d="M 0,0 0,0 C -0.226,-1.982 -2.032,-3.419 -4.013,-3.193 L -33.75,1.932 c -1.981,0.226 -3.418,2.032 -3.193,4.013 0.226,1.982 2.032,3.419 4.013,3.194 L -3.193,4.013 C -1.212,3.788 0.225,1.982 0,0" /></g><g
             transform="translate(710.8892,473.2646)"
             id="g15954"><path
               inkscape:connector-curvature="0"
               id="path15956"
               style="fill:#b9b9ba;fill-opacity:1;fill-rule:nonzero;stroke:none"
               d="M 0,0 0,0 C 0.225,-1.981 -1.212,-3.787 -3.194,-4.013 L -33.322,-5.69 c -1.982,-0.225 -3.788,1.212 -4.012,3.194 -0.226,1.981 1.212,3.787 3.193,4.013 L -4.013,3.194 C -2.031,3.419 -0.225,1.981 0,0" /></g><g
             transform="translate(763.9146,495.0811)"
             id="g15958"><path
               inkscape:connector-curvature="0"
               id="path15960"
               style="fill:#b9b9ba;fill-opacity:1;fill-rule:nonzero;stroke:none"
               d="M 0,0 0,0 C 0.225,-1.981 -1.212,-3.787 -3.194,-4.012 L -33.322,-5.69 c -1.982,-0.225 -3.787,1.212 -4.012,3.194 -0.226,1.982 1.212,3.788 3.194,4.013 L -4.012,3.194 C -2.03,3.42 -0.225,1.982 0,0" /></g><g
             transform="translate(806.5269,655.8257)"
             id="g15962"><path
               inkscape:connector-curvature="0"
               id="path15964"
               style="fill:#b9b9ba;fill-opacity:1;fill-rule:nonzero;stroke:none"
               d="m 0,0 0,0 c -0.532,-1.922 -2.54,-3.06 -4.462,-2.528 l -28.573,9.702 c -1.922,0.532 -3.06,2.54 -2.528,4.463 0.532,1.922 2.541,3.059 4.463,2.528 L -2.528,4.462 C -0.606,3.93 0.532,1.922 0,0" /></g><g
             transform="translate(930.1147,762.0151)"
             id="g15966"><path
               inkscape:connector-curvature="0"
               id="path15968"
               style="fill:#b9b9ba;fill-opacity:1;fill-rule:nonzero;stroke:none"
               d="m 0,0 0,0 c -0.532,-1.922 -2.54,-3.06 -4.462,-2.528 l -28.573,9.702 c -1.922,0.532 -3.06,2.54 -2.528,4.462 0.532,1.923 2.541,3.06 4.463,2.529 L -2.528,4.462 C -0.606,3.93 0.532,1.922 0,0" /></g><g
             transform="translate(785.3335,495.833)"
             id="g15970"><path
               inkscape:connector-curvature="0"
               id="path15972"
               style="fill:#2b2f32;fill-opacity:1;fill-rule:nonzero;stroke:none"
               d="m 0,0 c 0,-8.008 -6.492,-14.5 -14.5,-14.5 -8.008,0 -14.5,6.492 -14.5,14.5 0,8.009 6.492,14.5 14.5,14.5 C -6.492,14.5 0,8.009 0,0" /></g><g
             transform="translate(828,653.1665)"
             id="g15974"><path
               inkscape:connector-curvature="0"
               id="path15976"
               style="fill:#2b2f32;fill-opacity:1;fill-rule:nonzero;stroke:none"
               d="m 0,0 c 0,-8.008 -6.492,-14.5 -14.5,-14.5 -8.008,0 -14.5,6.492 -14.5,14.5 0,8.008 6.492,14.5 14.5,14.5 C -6.492,14.5 0,8.008 0,0" /></g><g
             transform="translate(941.3335,758.5)"
             id="g15978"><path
               inkscape:connector-curvature="0"
               id="path15980"
               style="fill:#2b2f32;fill-opacity:1;fill-rule:nonzero;stroke:none"
               d="m 0,0 c 0,-8.008 -6.492,-14.5 -14.5,-14.5 -8.008,0 -14.5,6.492 -14.5,14.5 0,8.008 6.492,14.5 14.5,14.5 C -6.492,14.5 0,8.008 0,0" /></g></g></g></g></g></svg>