<?xml version="1.0" encoding="UTF-8" standalone="no"?>
<!-- Created with Inkscape (http://www.inkscape.org/) -->

<svg
   xmlns:dc="http://purl.org/dc/elements/1.1/"
   xmlns:cc="http://creativecommons.org/ns#"
   xmlns:rdf="http://www.w3.org/1999/02/22-rdf-syntax-ns#"
   xmlns:svg="http://www.w3.org/2000/svg"
   xmlns="http://www.w3.org/2000/svg"
   xmlns:sodipodi="http://sodipodi.sourceforge.net/DTD/sodipodi-0.dtd"
   xmlns:inkscape="http://www.inkscape.org/namespaces/inkscape"
   id="svg12687"
   version="1.1"
   inkscape:version="0.91 r13725"
   xml:space="preserve"
   width="1816.2505"
   height="599.06311"
   viewBox="0 0 1816.2505 599.06311"
   sodipodi:docname="trumpet.svg"><metadata
     id="metadata12693"><rdf:RDF><cc:Work
         rdf:about=""><dc:format>image/svg+xml</dc:format><dc:type
           rdf:resource="http://purl.org/dc/dcmitype/StillImage" /><dc:title></dc:title></cc:Work></rdf:RDF></metadata><defs
     id="defs12691"><clipPath
       id="clipPath16109"
       clipPathUnits="userSpaceOnUse"><path
         inkscape:connector-curvature="0"
         id="path16111"
         d="m 0,1080 1920,0 L 1920,0 0,0 0,1080 Z" /></clipPath><clipPath
       id="clipPath16121"
       clipPathUnits="userSpaceOnUse"><path
         inkscape:connector-curvature="0"
         id="path16123"
         d="m 439.235,595.75 336.515,0 0,-195.426 -336.515,0 0,195.426 z" /></clipPath><clipPath
       id="clipPath16153"
       clipPathUnits="userSpaceOnUse"><path
         inkscape:connector-curvature="0"
         id="path16155"
         d="m 1082.83,372.976 160.42,0 0,-5.976 -160.42,0 0,5.976 z" /></clipPath><clipPath
       id="clipPath16171"
       clipPathUnits="userSpaceOnUse"><path
         inkscape:connector-curvature="0"
         id="path16173"
         d="m 921.667,461.841 347.663,0 0,-61.54 -347.663,0 0,61.54 z" /></clipPath><clipPath
       id="clipPath16189"
       clipPathUnits="userSpaceOnUse"><path
         inkscape:connector-curvature="0"
         id="path16191"
         d="m 772,688 7.5,0 0,-52.5 -7.5,0 0,52.5 z" /></clipPath><clipPath
       id="clipPath16223"
       clipPathUnits="userSpaceOnUse"><path
         inkscape:connector-curvature="0"
         id="path16225"
         d="m 753.5,635.5 26.5,0 0,-95.5 -26.5,0 0,95.5 z" /></clipPath><clipPath
       id="clipPath16243"
       clipPathUnits="userSpaceOnUse"><path
         inkscape:connector-curvature="0"
         id="path16245"
         d="m 753.5,535.809 28,0 0,-233.796 -28,0 0,233.796 z" /></clipPath><clipPath
       id="clipPath16269"
       clipPathUnits="userSpaceOnUse"><path
         inkscape:connector-curvature="0"
         id="path16271"
         d="m 836.812,688 7.501,0 0,-52.5 -7.501,0 0,52.5 z" /></clipPath><clipPath
       id="clipPath16303"
       clipPathUnits="userSpaceOnUse"><path
         inkscape:connector-curvature="0"
         id="path16305"
         d="m 818.313,635.5 26.499,0 0,-95.5 -26.499,0 0,95.5 z" /></clipPath><clipPath
       id="clipPath16323"
       clipPathUnits="userSpaceOnUse"><path
         inkscape:connector-curvature="0"
         id="path16325"
         d="m 818.313,535.809 27.999,0 0,-233.796 -27.999,0 0,233.796 z" /></clipPath><clipPath
       id="clipPath16349"
       clipPathUnits="userSpaceOnUse"><path
         inkscape:connector-curvature="0"
         id="path16351"
         d="m 901.812,688 7.501,0 0,-52.5 -7.501,0 0,52.5 z" /></clipPath><clipPath
       id="clipPath16383"
       clipPathUnits="userSpaceOnUse"><path
         inkscape:connector-curvature="0"
         id="path16385"
         d="m 883.313,635.5 26.499,0 0,-95.5 -26.499,0 0,95.5 z" /></clipPath><clipPath
       id="clipPath16403"
       clipPathUnits="userSpaceOnUse"><path
         inkscape:connector-curvature="0"
         id="path16405"
         d="m 883.313,535.809 27.999,0 0,-233.796 -27.999,0 0,233.796 z" /></clipPath><clipPath
       id="clipPath16431"
       clipPathUnits="userSpaceOnUse"><path
         inkscape:connector-curvature="0"
         id="path16433"
         d="m 432.789,623.725 1233.911,0 0,-175.833 -1233.911,0 0,175.833 z" /></clipPath><clipPath
       id="clipPath16451"
       clipPathUnits="userSpaceOnUse"><path
         inkscape:connector-curvature="0"
         id="path16453"
         d="m 331,601.333 99.667,0 0,-15.166 -99.667,0 0,15.166 z" /></clipPath><clipPath
       id="clipPath16489"
       clipPathUnits="userSpaceOnUse"><path
         inkscape:connector-curvature="0"
         id="path16491"
         d="m 243.417,600.167 66.25,0 0,-37 -66.25,0 0,37 z" /></clipPath><clipPath
       id="clipPath16513"
       clipPathUnits="userSpaceOnUse"><path
         inkscape:connector-curvature="0"
         id="path16515"
         d="m 429,623.105 974.5,0 0,-213.582 -974.5,0 0,213.582 z" /></clipPath></defs><sodipodi:namedview
     pagecolor="#ffffff"
     bordercolor="#666666"
     borderopacity="1"
     objecttolerance="10"
     gridtolerance="10"
     guidetolerance="10"
     inkscape:pageopacity="0"
     inkscape:pageshadow="2"
     inkscape:window-width="1920"
     inkscape:window-height="1137"
     id="namedview12689"
     showgrid="false"
     fit-margin-top="0"
     fit-margin-left="0"
     fit-margin-right="0"
     fit-margin-bottom="0"
     inkscape:zoom="0.13875"
     inkscape:cx="3501.0045"
     inkscape:cy="1520.3221"
     inkscape:window-x="-8"
     inkscape:window-y="-8"
     inkscape:window-maximized="1"
     inkscape:current-layer="g12695" /><g
     id="g12695"
     inkscape:groupmode="layer"
     inkscape:label="Congas"
     transform="matrix(1.25,0,0,-1.25,2301.0045,-246.25891)"><g
       transform="translate(-2071.4701,-978.27033)"
       inkscape:label="Trumpet"
       id="g16103"><g
         id="g16105"><g
           clip-path="url(#clipPath16109)"
           id="g16107"><g
             transform="translate(499.6646,610.0557)"
             id="g16113"><path
               inkscape:connector-curvature="0"
               id="path16115"
               style="fill:#f5c405;fill-opacity:1;fill-rule:nonzero;stroke:none"
               d="m 0,0 c 0,0 -93.915,-25.389 -72.915,-141.723 21,-116.333 248.25,-78.333 248.25,-78.333 l -85.333,28.911 c 0,0 -141.333,-22.578 -132,92.089 0.667,65.334 82.667,68 82.667,68 l 235.416,0 0,32.5 L 0,0 Z" /></g><g
             id="g16117"><g
               id="g16119" /><g
               id="g16125"><g
                 style="opacity:0.30000299"
                 id="g16127"
                 clip-path="url(#clipPath16121)"><g
                   id="g16129"
                   transform="translate(499.73,591.3892)"><path
                     inkscape:connector-curvature="0"
                     id="path16131"
                     style="fill:#9e9e9e;fill-opacity:1;fill-rule:nonzero;stroke:none"
                     d="m 0,0 c -15.195,-4.288 -71.071,-26.324 -58.73,-116.389 20,-101.5 189.972,-70.083 189.972,-70.083 l -41.305,13.994 c 0,0 -141.333,-22.578 -132,92.089 0.667,65.333 82.667,68 82.667,68 l 235.416,0 0,16.749 L 6.525,0.938 C 4.316,0.91 2.126,0.6 0,0" /></g></g></g></g><g
             transform="translate(1437.2051,509.5059)"
             id="g16133"><path
               inkscape:connector-curvature="0"
               id="path16135"
               style="fill:#f0be45;fill-opacity:1;fill-rule:nonzero;stroke:none"
               d="m 0,0 c 0,0 -16.788,-25.006 -20.538,-34.506 -3.75,-9.5 -5.381,-17.714 -6.855,-20.375 -1.875,-3.386 -7.25,-10.187 -11.691,-6.621 -4.112,3.303 -9.387,7.829 -9.387,7.829 l -4.859,-8.083 6.291,-5.223 c 4.552,-3.78 5.126,-10.581 1.23,-15.036 -1.806,-2.067 -3.529,-3.871 -4.521,-4.491 -3,-1.875 -5.375,-2.75 -6.875,0.75 -1.125,2.625 -6.117,2.227 -8.543,1.863 -0.85,-0.127 -1.654,-0.439 -2.375,-0.905 -3.368,-2.181 -13.748,-9.111 -13.957,-11.833 -0.25,-3.25 -0.021,-3.921 3.5,-4.625 1.875,-0.375 -5,-9.949 7.75,-7 12.75,2.949 41.159,16.581 48.211,43.917 7.417,28.75 21.921,57.123 24.664,62.083 C 5.295,3.619 0,0 0,0" /></g><g
             transform="translate(819.7251,397.667)"
             id="g16137"><path
               inkscape:connector-curvature="0"
               id="path16139"
               style="fill:none;stroke:#f9ca1c;stroke-width:30;stroke-linecap:butt;stroke-linejoin:miter;stroke-miterlimit:10;stroke-dasharray:none;stroke-opacity:1"
               d="m 0,0 -203.304,0 c -17.649,0 -32.088,14.439 -32.088,32.087 0,17.648 14.439,32.088 32.088,32.088 L 0,64.175 c 17.648,0 32.087,-14.44 32.087,-32.088 C 32.087,14.439 17.648,0 0,0 Z" /></g><path
             inkscape:connector-curvature="0"
             id="path16141"
             style="fill:#cc9d29;fill-opacity:1;fill-rule:nonzero;stroke:none"
             d="m 1099,371.694 -13.667,0 0,23.973 13.667,0 0,-23.973 z" /><path
             inkscape:connector-curvature="0"
             id="path16143"
             style="fill:#cc9d29;fill-opacity:1;fill-rule:nonzero;stroke:none"
             d="m 1142.806,371.694 -13.667,0 0,23.973 13.667,0 0,-23.973 z" /><path
             inkscape:connector-curvature="0"
             id="path16145"
             style="fill:#ffca25;fill-opacity:1;fill-rule:nonzero;stroke:none"
             d="m 921.667,350.5 -142.167,0 0,16.5 142.167,0 0,-16.5 z" /><path
             inkscape:connector-curvature="0"
             id="path16147"
             style="fill:#ffca25;fill-opacity:1;fill-rule:nonzero;stroke:none"
             d="m 1243.25,367 -160.417,0 0,11.951 160.417,0 0,-11.951 z" /><g
             id="g16149"><g
               id="g16151" /><g
               id="g16157"><g
                 style="opacity:0.30000299"
                 id="g16159"
                 clip-path="url(#clipPath16153)"><path
                   inkscape:connector-curvature="0"
                   id="path16161"
                   style="fill:#a3a3a3;fill-opacity:1;fill-rule:nonzero;stroke:none"
                   d="m 1243.25,367 -160.417,0 0,5.976 160.417,0 0,-5.976 z" /></g></g></g><g
             transform="translate(921.6665,475)"
             id="g16163"><path
               inkscape:connector-curvature="0"
               id="path16165"
               style="fill:#eec025;fill-opacity:1;fill-rule:nonzero;stroke:none"
               d="m 0,0 318.833,2.5 c 0,0 39.5,3.417 43.5,-41.5 C 366.042,-80.648 322,-84.667 322,-84.667 l -322,0 L 0,0 Z" /></g><g
             id="g16167"><g
               id="g16169" /><g
               id="g16175"><g
                 style="opacity:0.30000299"
                 id="g16177"
                 clip-path="url(#clipPath16171)"><g
                   id="g16179"
                   transform="translate(921.6665,458.333)"><path
                     inkscape:connector-curvature="0"
                     id="path16181"
                     style="fill:#999999;fill-opacity:1;fill-rule:nonzero;stroke:none"
                     d="m 0,0 318.833,3.334 c 0,0 16.976,3.611 28.5,-22 C 351.042,-60.314 322,-58.009 322,-58.009 l -322,0 L 0,0 Z" /></g></g></g></g><path
             inkscape:connector-curvature="0"
             id="path16183"
             style="fill:#e5a548;fill-opacity:1;fill-rule:nonzero;stroke:none"
             d="m 787,635.5 -15,0 0,52.5 15,0 0,-52.5 z" /><g
             id="g16185"><g
               id="g16187" /><g
               id="g16193"><g
                 style="opacity:0.30000299"
                 id="g16195"
                 clip-path="url(#clipPath16189)"><path
                   inkscape:connector-curvature="0"
                   id="path16197"
                   style="fill:#afafaf;fill-opacity:1;fill-rule:nonzero;stroke:none"
                   d="m 779.5,635.5 -7.5,0 0,52.5 7.5,0 0,-52.5 z" /></g></g></g><g
             transform="translate(798.6665,683.6665)"
             id="g16199"><path
               inkscape:connector-curvature="0"
               id="path16201"
               style="fill:#ffe644;fill-opacity:1;fill-rule:nonzero;stroke:none"
               d="m 0,0 -37.333,0 c -2.383,0 -4.334,1.95 -4.334,4.333 0,2.384 1.951,4.334 4.334,4.334 L 0,8.667 c 2.383,0 4.333,-1.95 4.333,-4.334 C 4.333,1.95 2.383,0 0,0" /></g><g
             transform="translate(792.4375,641)"
             id="g16203"><path
               inkscape:connector-curvature="0"
               id="path16205"
               style="fill:#ffe644;fill-opacity:1;fill-rule:nonzero;stroke:none"
               d="m 0,0 -24.437,0 c -1.204,0 -2.188,0.984 -2.188,2.188 0,1.203 0.984,2.187 2.188,2.187 L 0,4.375 C 1.203,4.375 2.188,3.391 2.188,2.188 2.188,0.984 1.203,0 0,0" /></g><g
             transform="translate(792.4375,636.625)"
             id="g16207"><path
               inkscape:connector-curvature="0"
               id="path16209"
               style="fill:#ffe644;fill-opacity:1;fill-rule:nonzero;stroke:none"
               d="m 0,0 -24.437,0 c -1.204,0 -2.188,0.984 -2.188,2.188 0,1.203 0.984,2.187 2.188,2.187 L 0,4.375 C 1.203,4.375 2.188,3.391 2.188,2.188 2.188,0.984 1.203,0 0,0" /></g><g
             transform="translate(808.9375,629.1821)"
             id="g16211"><path
               inkscape:connector-curvature="0"
               id="path16213"
               style="fill:#efb31f;fill-opacity:1;fill-rule:nonzero;stroke:none"
               d="m 0,0 -57.438,0 c -1.203,0 -2.187,0.984 -2.187,2.188 l 0,5.01 c 0,1.203 0.984,2.188 2.187,2.188 L 0,9.386 c 1.203,0 2.188,-0.985 2.188,-2.188 l 0,-5.01 C 2.188,0.984 1.203,0 0,0" /></g><g
             transform="translate(795.5,540)"
             id="g16215"><path
               inkscape:connector-curvature="0"
               id="path16217"
               style="fill:#cc9d29;fill-opacity:1;fill-rule:nonzero;stroke:none"
               d="m 0,0 -30,0 c -6.6,0 -12,5.4 -12,12 l 0,71.5 c 0,6.6 5.4,12 12,12 l 30,0 c 6.6,0 12,-5.4 12,-12 L 12,12 C 12,5.4 6.6,0 0,0" /></g><g
             id="g16219"><g
               id="g16221" /><g
               id="g16227"><g
                 style="opacity:0.30000299"
                 id="g16229"
                 clip-path="url(#clipPath16223)"><g
                   id="g16231"
                   transform="translate(780,540)"><path
                     inkscape:connector-curvature="0"
                     id="path16233"
                     style="fill:#a0a0a0;fill-opacity:1;fill-rule:nonzero;stroke:none"
                     d="m 0,0 -14.5,0 c -6.6,0 -12,5.4 -12,12 l 0,71.5 c 0,6.6 5.4,12 12,12 L 0,95.5 0,0 Z" /></g></g></g></g><g
             transform="translate(790.0063,302.0127)"
             id="g16235"><path
               inkscape:connector-curvature="0"
               id="path16237"
               style="fill:#cc9d29;fill-opacity:1;fill-rule:nonzero;stroke:none"
               d="m 0,0 -19.013,0 c -9.621,0 -17.493,7.872 -17.493,17.494 l 0,210.815 c 0,3.018 2.469,5.487 5.486,5.487 l 43.027,0 c 3.017,0 5.487,-2.469 5.487,-5.487 l 0,-210.815 C 17.494,7.872 9.622,0 0,0" /></g><g
             id="g16239"><g
               id="g16241" /><g
               id="g16247"><g
                 style="opacity:0.30000299"
                 id="g16249"
                 clip-path="url(#clipPath16243)"><g
                   id="g16251"
                   transform="translate(781.5,302.0127)"><path
                     inkscape:connector-curvature="0"
                     id="path16253"
                     style="fill:#9e9e9e;fill-opacity:1;fill-rule:nonzero;stroke:none"
                     d="M 0,0 -10.506,0 C -20.128,0 -28,7.872 -28,17.494 l 0,210.815 c 0,3.018 2.469,5.487 5.487,5.487 L 0,233.796 0,0 Z" /></g></g></g></g><g
             transform="translate(804,538)"
             id="g16255"><path
               inkscape:connector-curvature="0"
               id="path16257"
               style="fill:#bd7c14;fill-opacity:1;fill-rule:nonzero;stroke:none"
               d="m 0,0 -48.356,0 c -1.926,0 -3.5,1.575 -3.5,3.5 0,1.925 1.574,3.5 3.5,3.5 L 0,7 C 1.925,7 3.5,5.425 3.5,3.5 3.5,1.575 1.925,0 0,0" /></g><g
             transform="translate(804,531)"
             id="g16259"><path
               inkscape:connector-curvature="0"
               id="path16261"
               style="fill:#bd7c14;fill-opacity:1;fill-rule:nonzero;stroke:none"
               d="m 0,0 -48.356,0 c -1.926,0 -3.5,1.575 -3.5,3.5 0,1.925 1.574,3.5 3.5,3.5 L 0,7 C 1.925,7 3.5,5.425 3.5,3.5 3.5,1.575 1.925,0 0,0" /></g><path
             inkscape:connector-curvature="0"
             id="path16263"
             style="fill:#e5a548;fill-opacity:1;fill-rule:nonzero;stroke:none"
             d="m 851.812,635.5 -15,0 0,52.5 15,0 0,-52.5 z" /><g
             id="g16265"><g
               id="g16267" /><g
               id="g16273"><g
                 style="opacity:0.30000299"
                 id="g16275"
                 clip-path="url(#clipPath16269)"><path
                   inkscape:connector-curvature="0"
                   id="path16277"
                   style="fill:#afafaf;fill-opacity:1;fill-rule:nonzero;stroke:none"
                   d="m 844.312,635.5 -7.5,0 0,52.5 7.5,0 0,-52.5 z" /></g></g></g><g
             transform="translate(863.479,683.6665)"
             id="g16279"><path
               inkscape:connector-curvature="0"
               id="path16281"
               style="fill:#ffe644;fill-opacity:1;fill-rule:nonzero;stroke:none"
               d="m 0,0 -37.333,0 c -2.383,0 -4.334,1.95 -4.334,4.333 0,2.384 1.951,4.334 4.334,4.334 L 0,8.667 c 2.383,0 4.333,-1.95 4.333,-4.334 C 4.333,1.95 2.383,0 0,0" /></g><g
             transform="translate(857.25,641)"
             id="g16283"><path
               inkscape:connector-curvature="0"
               id="path16285"
               style="fill:#ffe644;fill-opacity:1;fill-rule:nonzero;stroke:none"
               d="m 0,0 -24.437,0 c -1.204,0 -2.188,0.984 -2.188,2.188 0,1.203 0.984,2.187 2.188,2.187 L 0,4.375 C 1.203,4.375 2.188,3.391 2.188,2.188 2.188,0.984 1.203,0 0,0" /></g><g
             transform="translate(857.25,636.625)"
             id="g16287"><path
               inkscape:connector-curvature="0"
               id="path16289"
               style="fill:#ffe644;fill-opacity:1;fill-rule:nonzero;stroke:none"
               d="m 0,0 -24.437,0 c -1.204,0 -2.188,0.984 -2.188,2.188 0,1.203 0.984,2.187 2.188,2.187 L 0,4.375 C 1.203,4.375 2.188,3.391 2.188,2.188 2.188,0.984 1.203,0 0,0" /></g><g
             transform="translate(873.75,629.1821)"
             id="g16291"><path
               inkscape:connector-curvature="0"
               id="path16293"
               style="fill:#efb31f;fill-opacity:1;fill-rule:nonzero;stroke:none"
               d="m 0,0 -57.438,0 c -1.203,0 -2.187,0.984 -2.187,2.188 l 0,5.01 c 0,1.203 0.984,2.188 2.187,2.188 L 0,9.386 c 1.203,0 2.188,-0.985 2.188,-2.188 l 0,-5.01 C 2.188,0.984 1.203,0 0,0" /></g><g
             transform="translate(860.3125,540)"
             id="g16295"><path
               inkscape:connector-curvature="0"
               id="path16297"
               style="fill:#cc9d29;fill-opacity:1;fill-rule:nonzero;stroke:none"
               d="m 0,0 -30,0 c -6.6,0 -12,5.4 -12,12 l 0,71.5 c 0,6.6 5.4,12 12,12 l 30,0 c 6.6,0 12,-5.4 12,-12 L 12,12 C 12,5.4 6.6,0 0,0" /></g><g
             id="g16299"><g
               id="g16301" /><g
               id="g16307"><g
                 style="opacity:0.30000299"
                 id="g16309"
                 clip-path="url(#clipPath16303)"><g
                   id="g16311"
                   transform="translate(844.8125,540)"><path
                     inkscape:connector-curvature="0"
                     id="path16313"
                     style="fill:#a0a0a0;fill-opacity:1;fill-rule:nonzero;stroke:none"
                     d="m 0,0 -14.5,0 c -6.6,0 -12,5.4 -12,12 l 0,71.5 c 0,6.6 5.4,12 12,12 L 0,95.5 0,0 Z" /></g></g></g></g><g
             transform="translate(854.8188,302.0127)"
             id="g16315"><path
               inkscape:connector-curvature="0"
               id="path16317"
               style="fill:#cc9d29;fill-opacity:1;fill-rule:nonzero;stroke:none"
               d="m 0,0 -19.013,0 c -9.621,0 -17.493,7.872 -17.493,17.494 l 0,210.815 c 0,3.018 2.469,5.487 5.486,5.487 l 43.027,0 c 3.017,0 5.487,-2.469 5.487,-5.487 l 0,-210.815 C 17.494,7.872 9.622,0 0,0" /></g><g
             id="g16319"><g
               id="g16321" /><g
               id="g16327"><g
                 style="opacity:0.30000299"
                 id="g16329"
                 clip-path="url(#clipPath16323)"><g
                   id="g16331"
                   transform="translate(846.3125,302.0127)"><path
                     inkscape:connector-curvature="0"
                     id="path16333"
                     style="fill:#9e9e9e;fill-opacity:1;fill-rule:nonzero;stroke:none"
                     d="M 0,0 -10.506,0 C -20.128,0 -28,7.872 -28,17.494 l 0,210.815 c 0,3.018 2.469,5.487 5.487,5.487 L 0,233.796 0,0 Z" /></g></g></g></g><g
             transform="translate(868.8125,538)"
             id="g16335"><path
               inkscape:connector-curvature="0"
               id="path16337"
               style="fill:#bd7c14;fill-opacity:1;fill-rule:nonzero;stroke:none"
               d="m 0,0 -48.356,0 c -1.926,0 -3.5,1.575 -3.5,3.5 0,1.925 1.574,3.5 3.5,3.5 L 0,7 C 1.925,7 3.5,5.425 3.5,3.5 3.5,1.575 1.925,0 0,0" /></g><g
             transform="translate(868.8125,531)"
             id="g16339"><path
               inkscape:connector-curvature="0"
               id="path16341"
               style="fill:#bd7c14;fill-opacity:1;fill-rule:nonzero;stroke:none"
               d="m 0,0 -48.356,0 c -1.926,0 -3.5,1.575 -3.5,3.5 0,1.925 1.574,3.5 3.5,3.5 L 0,7 C 1.925,7 3.5,5.425 3.5,3.5 3.5,1.575 1.925,0 0,0" /></g><path
             inkscape:connector-curvature="0"
             id="path16343"
             style="fill:#e5a548;fill-opacity:1;fill-rule:nonzero;stroke:none"
             d="m 916.812,635.5 -15,0 0,52.5 15,0 0,-52.5 z" /><g
             id="g16345"><g
               id="g16347" /><g
               id="g16353"><g
                 style="opacity:0.30000299"
                 id="g16355"
                 clip-path="url(#clipPath16349)"><path
                   inkscape:connector-curvature="0"
                   id="path16357"
                   style="fill:#afafaf;fill-opacity:1;fill-rule:nonzero;stroke:none"
                   d="m 909.312,635.5 -7.5,0 0,52.5 7.5,0 0,-52.5 z" /></g></g></g><g
             transform="translate(928.479,683.6665)"
             id="g16359"><path
               inkscape:connector-curvature="0"
               id="path16361"
               style="fill:#ffe644;fill-opacity:1;fill-rule:nonzero;stroke:none"
               d="m 0,0 -37.333,0 c -2.383,0 -4.334,1.95 -4.334,4.333 0,2.384 1.951,4.334 4.334,4.334 L 0,8.667 c 2.383,0 4.333,-1.95 4.333,-4.334 C 4.333,1.95 2.383,0 0,0" /></g><g
             transform="translate(922.25,641)"
             id="g16363"><path
               inkscape:connector-curvature="0"
               id="path16365"
               style="fill:#ffe644;fill-opacity:1;fill-rule:nonzero;stroke:none"
               d="m 0,0 -24.437,0 c -1.204,0 -2.188,0.984 -2.188,2.188 0,1.203 0.984,2.187 2.188,2.187 L 0,4.375 C 1.203,4.375 2.188,3.391 2.188,2.188 2.188,0.984 1.203,0 0,0" /></g><g
             transform="translate(922.25,636.625)"
             id="g16367"><path
               inkscape:connector-curvature="0"
               id="path16369"
               style="fill:#ffe644;fill-opacity:1;fill-rule:nonzero;stroke:none"
               d="m 0,0 -24.437,0 c -1.204,0 -2.188,0.984 -2.188,2.188 0,1.203 0.984,2.187 2.188,2.187 L 0,4.375 C 1.203,4.375 2.188,3.391 2.188,2.188 2.188,0.984 1.203,0 0,0" /></g><g
             transform="translate(938.75,629.1821)"
             id="g16371"><path
               inkscape:connector-curvature="0"
               id="path16373"
               style="fill:#efb31f;fill-opacity:1;fill-rule:nonzero;stroke:none"
               d="m 0,0 -57.438,0 c -1.203,0 -2.187,0.984 -2.187,2.188 l 0,5.01 c 0,1.203 0.984,2.188 2.187,2.188 L 0,9.386 c 1.203,0 2.188,-0.985 2.188,-2.188 l 0,-5.01 C 2.188,0.984 1.203,0 0,0" /></g><g
             transform="translate(925.3125,540)"
             id="g16375"><path
               inkscape:connector-curvature="0"
               id="path16377"
               style="fill:#cc9d29;fill-opacity:1;fill-rule:nonzero;stroke:none"
               d="m 0,0 -30,0 c -6.6,0 -12,5.4 -12,12 l 0,71.5 c 0,6.6 5.4,12 12,12 l 30,0 c 6.6,0 12,-5.4 12,-12 L 12,12 C 12,5.4 6.6,0 0,0" /></g><g
             id="g16379"><g
               id="g16381" /><g
               id="g16387"><g
                 style="opacity:0.30000299"
                 id="g16389"
                 clip-path="url(#clipPath16383)"><g
                   id="g16391"
                   transform="translate(909.8125,540)"><path
                     inkscape:connector-curvature="0"
                     id="path16393"
                     style="fill:#a0a0a0;fill-opacity:1;fill-rule:nonzero;stroke:none"
                     d="m 0,0 -14.5,0 c -6.6,0 -12,5.4 -12,12 l 0,71.5 c 0,6.6 5.4,12 12,12 L 0,95.5 0,0 Z" /></g></g></g></g><g
             transform="translate(919.8188,302.0127)"
             id="g16395"><path
               inkscape:connector-curvature="0"
               id="path16397"
               style="fill:#cc9d29;fill-opacity:1;fill-rule:nonzero;stroke:none"
               d="m 0,0 -19.013,0 c -9.621,0 -17.493,7.872 -17.493,17.494 l 0,210.815 c 0,3.018 2.469,5.487 5.486,5.487 l 43.027,0 c 3.017,0 5.487,-2.469 5.487,-5.487 l 0,-210.815 C 17.494,7.872 9.622,0 0,0" /></g><g
             id="g16399"><g
               id="g16401" /><g
               id="g16407"><g
                 style="opacity:0.30000299"
                 id="g16409"
                 clip-path="url(#clipPath16403)"><g
                   id="g16411"
                   transform="translate(911.3125,302.0127)"><path
                     inkscape:connector-curvature="0"
                     id="path16413"
                     style="fill:#9e9e9e;fill-opacity:1;fill-rule:nonzero;stroke:none"
                     d="M 0,0 -10.506,0 C -20.128,0 -28,7.872 -28,17.494 l 0,210.815 c 0,3.018 2.469,5.487 5.487,5.487 L 0,233.796 0,0 Z" /></g></g></g></g><g
             transform="translate(933.8125,538)"
             id="g16415"><path
               inkscape:connector-curvature="0"
               id="path16417"
               style="fill:#bd7c14;fill-opacity:1;fill-rule:nonzero;stroke:none"
               d="m 0,0 -48.356,0 c -1.926,0 -3.5,1.575 -3.5,3.5 0,1.925 1.574,3.5 3.5,3.5 L 0,7 C 1.925,7 3.5,5.425 3.5,3.5 3.5,1.575 1.925,0 0,0" /></g><g
             transform="translate(933.8125,531)"
             id="g16419"><path
               inkscape:connector-curvature="0"
               id="path16421"
               style="fill:#bd7c14;fill-opacity:1;fill-rule:nonzero;stroke:none"
               d="m 0,0 -48.356,0 c -1.926,0 -3.5,1.575 -3.5,3.5 0,1.925 1.574,3.5 3.5,3.5 L 0,7 C 1.925,7 3.5,5.425 3.5,3.5 3.5,1.575 1.925,0 0,0" /></g><g
             transform="translate(1660.4209,781.2632)"
             id="g16423"><path
               inkscape:connector-curvature="0"
               id="path16425"
               style="fill:#e6ba1b;fill-opacity:1;fill-rule:nonzero;stroke:none"
               d="m 0,0 c -26.088,0 15.79,-148.684 -460.526,-146.053 -88.076,-2.114 -767.105,-18.421 -767.105,-18.421 l 0,-32.895 c 0,0 611.842,-3.368 769.736,-6 C -1.315,-200.737 -38.421,-283.263 0,-330.263 21.758,-356.878 23.246,-160.93 23.246,-160.93 23.246,-160.93 17.794,0 0,0" /></g><g
             id="g16427"><g
               id="g16429" /><g
               id="g16435"><g
                 style="opacity:0.30000299"
                 id="g16437"
                 clip-path="url(#clipPath16431)"><g
                   id="g16439"
                   transform="translate(1196,617)"><path
                     inkscape:connector-curvature="0"
                     id="path16441"
                     style="fill:#777777;fill-opacity:1;fill-rule:nonzero;stroke:none"
                     d="m 0,0 c -88.075,-2.115 -763.21,-0.21 -763.21,-0.21 l 0,-32.895 c 0,0 611.842,-3.369 769.736,-6 C 463.105,-36.474 426,-119 464.421,-166 486.179,-192.615 447,-40 414,-23 381,-6 377.105,18.79 0,0" /></g></g></g></g><g
             transform="translate(425.6665,586.1665)"
             id="g16443"><path
               inkscape:connector-curvature="0"
               id="path16445"
               style="fill:#eab726;fill-opacity:1;fill-rule:nonzero;stroke:none"
               d="m 0,0 -89.667,0 c -2.75,0 -5,2.25 -5,5 l 0,18 c 0,2.75 2.25,5 5,5 L 0,28 c 2.75,0 5,-2.25 5,-5 L 5,5 C 5,2.25 2.75,0 0,0" /></g><g
             id="g16447"><g
               id="g16449" /><g
               id="g16455"><g
                 style="opacity:0.30000299"
                 id="g16457"
                 clip-path="url(#clipPath16451)"><g
                   id="g16459"
                   transform="translate(425.6665,586.1665)"><path
                     inkscape:connector-curvature="0"
                     id="path16461"
                     style="fill:#a8a8a8;fill-opacity:1;fill-rule:nonzero;stroke:none"
                     d="m 0,0 -89.667,0 c -2.75,0 -5,2.25 -5,5 l 0,5.166 c 0,2.75 2.25,5 5,5 l 89.667,0 c 2.75,0 5,-2.25 5,-5 L 5,5 C 5,2.25 2.75,0 0,0" /></g></g></g></g><path
             inkscape:connector-curvature="0"
             id="path16463"
             style="fill:#eab726;fill-opacity:1;fill-rule:nonzero;stroke:none"
             d="m 332.5,588.833 -15.75,0 0,22.667 15.75,0 0,-22.667 z" /><g
             transform="translate(397.1665,580.5)"
             id="g16465"><path
               inkscape:connector-curvature="0"
               id="path16467"
               style="fill:#eab726;fill-opacity:1;fill-rule:nonzero;stroke:none"
               d="m 0,0 0,0 c -1.742,0 -3.167,1.425 -3.167,3.167 l 0,34.333 c 0,1.742 1.425,3.167 3.167,3.167 1.742,0 3.167,-1.425 3.167,-3.167 l 0,-34.333 C 3.167,1.425 1.742,0 0,0" /></g><g
             transform="translate(411.25,610)"
             id="g16469"><path
               inkscape:connector-curvature="0"
               id="path16471"
               style="fill:#f1d05c;fill-opacity:1;fill-rule:nonzero;stroke:none"
               d="m 0,0 -4.833,0 c -3.071,0 -5.584,2.513 -5.584,5.583 l 0,5.834 c 0,3.07 2.513,5.583 5.584,5.583 L 0,17 c 3.071,0 5.583,-2.513 5.583,-5.583 l 0,-5.834 C 5.583,2.513 3.071,0 0,0" /></g><g
             transform="translate(334.2861,581.8335)"
             id="g16473"><path
               inkscape:connector-curvature="0"
               id="path16475"
               style="fill:#f1d05c;fill-opacity:1;fill-rule:nonzero;stroke:none"
               d="m 0,0 -1.072,0 c -2.2,0 -4,1.8 -4,4 l 0,28.667 c 0,2.2 1.8,4 4,4 l 1.072,0 c 2.2,0 4,-1.8 4,-4 L 4,4 C 4,1.8 2.2,0 0,0" /></g><g
             transform="translate(313.9526,581.8335)"
             id="g16477"><path
               inkscape:connector-curvature="0"
               id="path16479"
               style="fill:#f1d05c;fill-opacity:1;fill-rule:nonzero;stroke:none"
               d="m 0,0 -1.072,0 c -2.2,0 -4,1.8 -4,4 l 0,28.667 c 0,2.2 1.8,4 4,4 l 1.072,0 c 2.2,0 4,-1.8 4,-4 L 4,4 C 4,1.8 2.2,0 0,0" /></g><g
             transform="translate(244.5918,635.9185)"
             id="g16481"><path
               inkscape:connector-curvature="0"
               id="path16483"
               style="fill:#f0b324;fill-opacity:1;fill-rule:nonzero;stroke:none"
               d="m 0,0 c 6.742,-0.918 8.216,-2.307 13.631,-8.941 0.513,-0.629 1.279,-1 2.089,-1.048 13.914,-0.831 24.671,-4.066 29.735,-11.636 0.541,-0.808 1.448,-1.293 2.42,-1.293 l 17.2,0 0,-26.834 -15.53,0 c -0.83,0 -1.619,-0.356 -2.176,-0.971 -4.909,-5.415 -9.802,-9.914 -14.627,-10.695 -5.653,-1.632 -11.317,-2.295 -16.989,-2.112 -1.225,0.039 -2.185,-0.772 -2.836,-1.81 -2.6,-4.145 -5.342,-7.412 -14.092,-7.412 L 0,0 Z" /></g><g
             id="g16485"><g
               id="g16487" /><g
               id="g16493"><g
                 style="opacity:0.30000299"
                 id="g16495"
                 clip-path="url(#clipPath16489)"><g
                   id="g16497"
                   transform="translate(244.5918,600.1665)"><path
                     inkscape:connector-curvature="0"
                     id="path16499"
                     style="fill:#a5a5a5;fill-opacity:1;fill-rule:nonzero;stroke:none"
                     d="m 0,0 c 6.742,-0.918 65.075,-0.624 65.075,-0.624 l 0,-13.376 -15.53,0 c -0.83,0 -1.619,-0.356 -2.176,-0.971 -4.909,-5.415 -9.802,-9.914 -14.627,-10.696 -5.653,-1.631 -11.317,-2.294 -16.989,-2.111 -1.225,0.039 -2.185,-0.772 -2.836,-1.81 C 10.317,-33.733 7.575,-37 -1.175,-37 L 0,0 Z" /></g></g></g></g><g
             transform="translate(243.4165,563.1665)"
             id="g16501"><path
               inkscape:connector-curvature="0"
               id="path16503"
               style="fill:#eaa820;fill-opacity:1;fill-rule:nonzero;stroke:none"
               d="m 0,0 -4,0 c -4.813,0 -8.75,3.938 -8.75,8.75 l 0,55.333 c 0,4.813 3.937,8.75 8.75,8.75 l 4,0 c 1.471,0 2.86,-0.367 4.081,-1.016 C 6.852,70.345 8.75,67.425 8.75,64.083 L 8.75,8.75 C 8.75,3.938 4.812,0 0,0" /></g><g
             transform="translate(429,617)"
             id="g16505"><path
               inkscape:connector-curvature="0"
               id="path16507"
               style="fill:#ffca25;fill-opacity:1;fill-rule:nonzero;stroke:none"
               d="m 0,0 839,6 c 0,0 87.5,3 110,-23 40,-38.5 26.117,-128.283 4.599,-158.873 C 924.667,-217 797,-206 797,-206 c -119.793,-0.442 -303.325,-3.09 -321,0 -10.203,4.035 -13.229,11.628 -12.667,21 6.334,17.667 21,10 87.667,9 0,0 333.667,0 357,8 6.877,2.358 41.822,2.076 32.818,94.354 -0.485,51.646 -93.485,48.979 -93.485,48.979 L 0,-35 0,0 Z" /></g><g
             id="g16509"><g
               id="g16511" /><g
               id="g16517"><g
                 style="opacity:0.30000299"
                 id="g16519"
                 clip-path="url(#clipPath16513)"><g
                   id="g16521"
                   transform="translate(429,617)"><path
                     inkscape:connector-curvature="0"
                     id="path16523"
                     style="fill:#9b9b9b;fill-opacity:1;fill-rule:nonzero;stroke:none"
                     d="m 0,0 839,6 c 0,0 87.5,3 110,-23 40,-38.5 26.117,-128.283 4.599,-158.873 C 924.667,-217 797,-206 797,-206 c -119.793,-0.442 -303.325,-3.09 -321,0 -10.203,4.035 -13.229,7.862 -12.667,17.234 28,0 410,-9.323 448.667,5.433 6.793,2.592 53.004,19.056 44,111.333 -2.667,65.333 -95.333,61.333 -95.333,61.333 L 0,-16.956 0,0 Z" /></g></g></g></g><g
             transform="translate(426.75,579)"
             id="g16525"><path
               inkscape:connector-curvature="0"
               id="path16527"
               style="fill:#eab726;fill-opacity:1;fill-rule:nonzero;stroke:none"
               d="m 0,0 0,0 c -5.638,0 -10.25,4.612 -10.25,10.25 l 0,24.165 c 0,5.638 4.612,10.25 10.25,10.25 5.638,0 10.25,-4.612 10.25,-10.25 l 0,-24.165 C 10.25,4.612 5.638,0 0,0" /></g><g
             transform="translate(1063.583,511.208)"
             id="g16529"><path
               inkscape:connector-curvature="0"
               id="path16531"
               style="fill:none;stroke:#bc8822;stroke-width:8;stroke-linecap:butt;stroke-linejoin:miter;stroke-miterlimit:10;stroke-dasharray:none;stroke-opacity:1"
               d="m 0,0 c 0,-16.729 -13.562,-30.291 -30.291,-30.291 -16.73,0 -30.292,13.562 -30.292,30.291 0,16.729 13.562,30.292 30.292,30.292 C -13.562,30.292 0,16.729 0,0 Z" /></g><g
             transform="translate(1047.9492,623.8115)"
             id="g16533"><path
               inkscape:connector-curvature="0"
               id="path16535"
               style="fill:#f9ca1c;fill-opacity:1;fill-rule:nonzero;stroke:none"
               d="m 0,0 -7.479,-3.604 c -0.968,-0.465 -2.028,-0.708 -3.101,-0.708 l -40.132,0 c -2.527,0 -4.997,0.709 -7.142,2.044 -5.735,3.568 -15.371,12.347 -13.595,30.456 1.995,20.35 28.347,24.46 38.913,25.291 1.894,0.148 3.191,-1.867 2.273,-3.531 l -3.178,-5.76 c -0.464,-0.843 -1.331,-1.378 -2.293,-1.415 -4.205,-0.163 -15.984,-0.97 -21.748,-4.944 C -64.574,32.938 -71.727,18.938 -52.199,5.438 -41.176,-0.643 -13.321,1.029 -0.597,2.181 0.678,2.296 1.152,0.555 0,0" /></g><g
             transform="translate(747.5312,534.5)"
             id="g16537"><path
               inkscape:connector-curvature="0"
               id="path16539"
               style="fill:#cc9d29;fill-opacity:1;fill-rule:nonzero;stroke:none"
               d="m 0,0 c 0,0 -6.656,6.375 -15.865,-44.833 -4.291,-11.792 -20.666,-12.107 -20.666,-12.107 0,0 -24.125,-3.06 -27,15.44 -5.5,43.5 -15.667,39.333 -15.667,39.333 0,0 3.917,-14.708 5.167,-29.833 0.945,-11.435 3.631,-22.442 8.5,-26.5 9.778,-8.148 10.323,-9.75 24.75,-8.75 14.427,1 24.625,2.125 29.75,12.5 C -5.906,-44.375 0,0 0,0" /></g><g
             transform="translate(1146.9443,371.6943)"
             id="g16541"><path
               inkscape:connector-curvature="0"
               id="path16543"
               style="fill:#ffca25;fill-opacity:1;fill-rule:nonzero;stroke:none"
               d="m 0,0 c 0,-6.06 -4.912,-10.972 -10.973,-10.972 -6.059,0 -10.971,4.912 -10.971,10.972 0,6.06 4.912,10.973 10.971,10.973 C -4.912,10.973 0,6.06 0,0" /></g><g
             transform="translate(1102.9443,371.6943)"
             id="g16545"><path
               inkscape:connector-curvature="0"
               id="path16547"
               style="fill:#ffca25;fill-opacity:1;fill-rule:nonzero;stroke:none"
               d="m 0,0 c 0,-6.06 -4.912,-10.972 -10.973,-10.972 -6.059,0 -10.971,4.912 -10.971,10.972 0,6.06 4.912,10.973 10.971,10.973 C -4.912,10.973 0,6.06 0,0" /></g><path
             inkscape:connector-curvature="0"
             id="path16549"
             style="fill:#f0be45;fill-opacity:1;fill-rule:nonzero;stroke:none"
             d="m 1222.5,467.5 -10,0 0,100 10,0 0,-100 z" /><g
             transform="translate(1218,561.3335)"
             id="g16551"><path
               inkscape:connector-curvature="0"
               id="path16553"
               style="fill:#e6ba1b;fill-opacity:1;fill-rule:nonzero;stroke:none"
               d="m 0,0 0,0 c -4.95,0 -9,4.05 -9,9 l 0,3 c 0,4.95 4.05,9 9,9 4.95,0 9,-4.05 9,-9 L 9,9 C 9,4.05 4.95,0 0,0" /></g><path
             inkscape:connector-curvature="0"
             id="path16555"
             style="fill:#f0be45;fill-opacity:1;fill-rule:nonzero;stroke:none"
             d="m 1306,467.5 -10,0 0,100 10,0 0,-100 z" /><g
             transform="translate(1301.5,561.3335)"
             id="g16557"><path
               inkscape:connector-curvature="0"
               id="path16559"
               style="fill:#e6ba1b;fill-opacity:1;fill-rule:nonzero;stroke:none"
               d="m 0,0 0,0 c -4.95,0 -9,4.05 -9,9 l 0,3 c 0,4.95 4.05,9 9,9 4.95,0 9,-4.05 9,-9 L 9,9 C 9,4.05 4.95,0 0,0" /></g><g
             transform="translate(1300.75,436.667)"
             id="g16561"><path
               inkscape:connector-curvature="0"
               id="path16563"
               style="fill:#e6ba1b;fill-opacity:1;fill-rule:nonzero;stroke:none"
               d="m 0,0 0,0 c -5.362,0 -9.75,4.387 -9.75,9.75 l 0,18.833 c 0,5.362 4.388,9.75 9.75,9.75 5.362,0 9.75,-4.388 9.75,-9.75 L 9.75,9.75 C 9.75,4.387 5.362,0 0,0" /></g></g></g></g></g></svg>