<?xml version="1.0" encoding="UTF-8" standalone="no"?>
<!-- Created with Inkscape (http://www.inkscape.org/) -->

<svg
   xmlns:dc="http://purl.org/dc/elements/1.1/"
   xmlns:cc="http://creativecommons.org/ns#"
   xmlns:rdf="http://www.w3.org/1999/02/22-rdf-syntax-ns#"
   xmlns:svg="http://www.w3.org/2000/svg"
   xmlns="http://www.w3.org/2000/svg"
   xmlns:sodipodi="http://sodipodi.sourceforge.net/DTD/sodipodi-0.dtd"
   xmlns:inkscape="http://www.inkscape.org/namespaces/inkscape"
   id="svg12687"
   version="1.1"
   inkscape:version="0.91 r13725"
   xml:space="preserve"
   width="591.72144"
   height="1066.3334"
   viewBox="0 0 591.72144 1066.3334"
   sodipodi:docname="guiro.svg"><metadata
     id="metadata12693"><rdf:RDF><cc:Work
         rdf:about=""><dc:format>image/svg+xml</dc:format><dc:type
           rdf:resource="http://purl.org/dc/dcmitype/StillImage" /><dc:title></dc:title></cc:Work></rdf:RDF></metadata><defs
     id="defs12691"><clipPath
       id="clipPath13843"
       clipPathUnits="userSpaceOnUse"><path
         inkscape:connector-curvature="0"
         id="path13845"
         d="m 0,1080 1920,0 L 1920,0 0,0 0,1080 Z" /></clipPath><clipPath
       id="clipPath13967"
       clipPathUnits="userSpaceOnUse"><path
         inkscape:connector-curvature="0"
         id="path13969"
         d="m 708.031,922.909 72.308,0 0,-735.969 -72.308,0 0,735.969 z" /></clipPath></defs><sodipodi:namedview
     pagecolor="#ffffff"
     bordercolor="#666666"
     borderopacity="1"
     objecttolerance="10"
     gridtolerance="10"
     guidetolerance="10"
     inkscape:pageopacity="0"
     inkscape:pageshadow="2"
     inkscape:window-width="1920"
     inkscape:window-height="1137"
     id="namedview12689"
     showgrid="false"
     fit-margin-top="0"
     fit-margin-left="0"
     fit-margin-right="0"
     fit-margin-bottom="0"
     inkscape:zoom="0.13875"
     inkscape:cx="2754.1988"
     inkscape:cy="1466.2237"
     inkscape:window-x="-8"
     inkscape:window-y="-8"
     inkscape:window-maximized="1"
     inkscape:current-layer="g12695" /><g
     id="g12695"
     inkscape:groupmode="layer"
     inkscape:label="Congas"
     transform="matrix(1.25,0,0,-1.25,1554.1988,275.10969)"><g
       transform="translate(-1947.0905,-752.28182)"
       inkscape:label="Guiro"
       id="g13837"><g
         id="g13839"><g
           clip-path="url(#clipPath13843)"
           id="g13841"><g
             transform="translate(918.8442,963.7778)"
             id="g13847"><path
               inkscape:connector-curvature="0"
               id="path13849"
               style="fill:#c6863c;fill-opacity:1;fill-rule:nonzero;stroke:none"
               d="m 0,0 c -61.065,15.206 -111.634,8.881 -156.846,-8.433 0,0 -16.409,-75.775 -52.281,-375.989 -40.587,-491.363 137.639,-461.503 161.905,-458.835 24.265,2.669 188.799,-1.218 124.802,451.986 C 61.745,-222.509 0,0 0,0" /></g><g
             transform="translate(954.7402,817.8867)"
             id="g13851"><path
               inkscape:connector-curvature="0"
               id="path13853"
               style="fill:#3b1c19;fill-opacity:1;fill-rule:nonzero;stroke:none"
               d="m 0,0 c 0,0 -27.049,34.127 -170.96,13.228 -1.226,-0.178 -2.295,-1.017 -2.674,-2.197 -0.596,-1.86 -0.578,-3.609 -0.342,-5.036 0.323,-1.955 2.273,-3.176 4.184,-2.65 C -131.305,13.928 -24.839,19.146 2.686,-12.172 1.287,-5.804 0,0 0,0" /></g><g
             transform="translate(959.9126,795.4185)"
             id="g13855"><path
               inkscape:connector-curvature="0"
               id="path13857"
               style="fill:#3b1c19;fill-opacity:1;fill-rule:nonzero;stroke:none"
               d="m 0,0 c -2.546,3.688 -40.142,41.387 -180.469,15.299 -1.218,-0.227 -2.296,-1.017 -2.674,-2.197 -0.597,-1.86 -0.579,-3.609 -0.343,-5.036 0.323,-1.955 2.273,-3.175 4.184,-2.65 38.488,10.583 154.463,13.73 181.988,-17.588 C 1.287,-5.804 0,0 0,0" /></g><g
             transform="translate(964.8477,775.7505)"
             id="g13859"><path
               inkscape:connector-curvature="0"
               id="path13861"
               style="fill:#3b1c19;fill-opacity:1;fill-rule:nonzero;stroke:none"
               d="m 0,0 c 0.619,1.306 -43.761,36.086 -188.778,12.854 -1.223,-0.196 -2.295,-1.017 -2.673,-2.197 -0.597,-1.86 -0.579,-3.609 -0.343,-5.036 0.323,-1.955 2.273,-3.176 4.184,-2.65 C -149.123,13.554 -24.84,19.146 2.686,-12.172 1.286,-5.804 0,0 0,0" /></g><g
             transform="translate(967.5332,754.3867)"
             id="g13863"><path
               inkscape:connector-curvature="0"
               id="path13865"
               style="fill:#3b1c19;fill-opacity:1;fill-rule:nonzero;stroke:none"
               d="m 0,0 c -0.072,2.607 -48.908,39.388 -192.662,12.854 -1.218,-0.225 -2.295,-1.017 -2.673,-2.197 -0.597,-1.86 -0.579,-3.609 -0.343,-5.036 0.323,-1.955 2.273,-3.176 4.184,-2.65 C -153.007,13.554 -24.84,19.146 2.686,-12.172 1.287,-5.804 0,0 0,0" /></g><g
             transform="translate(972.6562,733.6143)"
             id="g13867"><path
               inkscape:connector-curvature="0"
               id="path13869"
               style="fill:#3b1c19;fill-opacity:1;fill-rule:nonzero;stroke:none"
               d="m 0,0 c -0.328,5.583 -59.402,39.183 -202.994,12.854 -1.219,-0.224 -2.295,-1.017 -2.673,-2.197 -0.598,-1.86 -0.579,-3.609 -0.343,-5.036 0.323,-1.955 2.273,-3.176 4.184,-2.65 C -163.339,13.554 -24.84,19.146 2.686,-12.172 1.286,-5.804 0,0 0,0" /></g><g
             transform="translate(975.3418,713.7563)"
             id="g13871"><path
               inkscape:connector-curvature="0"
               id="path13873"
               style="fill:#3b1c19;fill-opacity:1;fill-rule:nonzero;stroke:none"
               d="m 0,0 c 0.667,3.469 -56.448,38.365 -210.802,9.099 -1.218,-0.23 -2.295,-1.016 -2.674,-2.197 -0.597,-1.86 -0.578,-3.609 -0.343,-5.035 0.323,-1.956 2.273,-3.176 4.184,-2.651 C -171.147,9.799 -24.84,19.146 2.686,-12.172 1.287,-5.804 0,0 0,0" /></g><g
             transform="translate(980.2139,692.4014)"
             id="g13875"><path
               inkscape:connector-curvature="0"
               id="path13877"
               style="fill:#3b1c19;fill-opacity:1;fill-rule:nonzero;stroke:none"
               d="m 0,0 c 0.7,3.947 -63.538,38.803 -217.923,9.1 -1.217,-0.235 -2.295,-1.017 -2.674,-2.197 -0.597,-1.86 -0.578,-3.61 -0.342,-5.036 0.322,-1.956 2.272,-3.176 4.184,-2.65 C -178.269,9.8 -24.839,19.146 2.687,-12.172 1.287,-5.804 0,0 0,0" /></g><g
             transform="translate(982.9004,668.9326)"
             id="g13879"><path
               inkscape:connector-curvature="0"
               id="path13881"
               style="fill:#3b1c19;fill-opacity:1;fill-rule:nonzero;stroke:none"
               d="m 0,0 c -4.787,8.312 -71.508,41.317 -222.184,10.081 -1.213,-0.252 -2.295,-1.018 -2.674,-2.197 -0.597,-1.861 -0.578,-3.61 -0.343,-5.036 0.324,-1.956 2.291,-3.236 4.184,-2.651 35.443,10.954 189.176,19.8 223.703,-12.369 C 1.286,-5.804 0,0 0,0" /></g><g
             transform="translate(985.5859,651.2651)"
             id="g13883"><path
               inkscape:connector-curvature="0"
               id="path13885"
               style="fill:#3b1c19;fill-opacity:1;fill-rule:nonzero;stroke:none"
               d="m 0,0 c 0.211,1.971 -75.785,34.421 -229.742,6.384 -1.219,-0.222 -2.295,-1.016 -2.674,-2.197 -0.597,-1.859 -0.578,-3.609 -0.342,-5.036 0.322,-1.955 2.273,-3.175 4.184,-2.65 C -190.087,7.084 -24.84,19.146 2.686,-12.172 1.287,-5.804 0,0 0,0" /></g><g
             transform="translate(989.959,626.5801)"
             id="g13887"><path
               inkscape:connector-curvature="0"
               id="path13889"
               style="fill:#3b1c19;fill-opacity:1;fill-rule:nonzero;stroke:none"
               d="m 0,0 c 0,0 -57.825,37.187 -235.57,9.331 -1.224,-0.192 -2.295,-1.017 -2.673,-2.197 -0.597,-1.86 -0.579,-3.609 -0.343,-5.036 0.323,-1.955 2.273,-3.176 4.184,-2.65 38.487,10.583 208.649,19.698 236.174,-11.62 C 0.374,-5.804 0,0 0,0" /></g><g
             transform="translate(993.1133,603.3013)"
             id="g13891"><path
               inkscape:connector-curvature="0"
               id="path13893"
               style="fill:#3b1c19;fill-opacity:1;fill-rule:nonzero;stroke:none"
               d="m 0,0 c 0.625,3.061 -60.345,40.519 -238.724,9.56 -1.221,-0.212 -2.295,-1.017 -2.673,-2.197 -0.598,-1.86 -0.579,-3.61 -0.343,-5.036 0.323,-1.956 2.273,-3.176 4.184,-2.65 38.487,10.583 211.41,19.698 238.935,-11.62 C -0.02,-5.575 0,0 0,0" /></g><g
             transform="translate(995.417,582.7114)"
             id="g13895"><path
               inkscape:connector-curvature="0"
               id="path13897"
               style="fill:#3b1c19;fill-opacity:1;fill-rule:nonzero;stroke:none"
               d="m 0,0 c 0.626,3.062 -65.032,38.246 -243.411,7.287 -1.221,-0.212 -2.295,-1.017 -2.673,-2.197 -0.598,-1.86 -0.579,-3.61 -0.343,-5.036 0.323,-1.956 2.273,-3.176 4.184,-2.65 38.487,10.583 215.724,23.709 243.25,-7.609 C -0.392,-3.837 0,0 0,0" /></g><g
             transform="translate(998.0605,560.6465)"
             id="g13899"><path
               inkscape:connector-curvature="0"
               id="path13901"
               style="fill:#3b1c19;fill-opacity:1;fill-rule:nonzero;stroke:none"
               d="m 0,0 c 0.626,3.061 -68.83,38.947 -247.209,7.988 -1.221,-0.212 -2.295,-1.017 -2.673,-2.197 -0.597,-1.86 -0.579,-3.609 -0.343,-5.036 0.323,-1.955 2.273,-3.175 4.184,-2.65 C -207.554,8.688 -26.27,21.814 1.256,-9.503 -0.143,-3.136 0,0 0,0" /></g><g
             transform="translate(1001.1016,536.8994)"
             id="g13903"><path
               inkscape:connector-curvature="0"
               id="path13905"
               style="fill:#3b1c19;fill-opacity:1;fill-rule:nonzero;stroke:none"
               d="m 0,0 c 0.626,3.062 -70.716,39.082 -249.095,8.123 -1.221,-0.212 -2.296,-1.017 -2.674,-2.197 -0.597,-1.86 -0.579,-3.609 -0.343,-5.036 0.323,-1.955 2.273,-3.176 4.184,-2.651 C -209.44,8.823 -26.417,21.949 1.108,-9.369 -0.291,-3.001 0,0 0,0" /></g><g
             transform="translate(1003.6924,514.2061)"
             id="g13907"><path
               inkscape:connector-curvature="0"
               id="path13909"
               style="fill:#3b1c19;fill-opacity:1;fill-rule:nonzero;stroke:none"
               d="m 0,0 c 0.626,3.062 -48.965,34.229 -251.686,7.534 -1.229,-0.162 -2.295,-1.016 -2.674,-2.197 -0.597,-1.859 -0.578,-3.609 -0.343,-5.035 0.324,-1.956 2.273,-3.177 4.184,-2.651 C -212.031,8.234 -26.491,21.36 1.034,-9.957 0.368,-4.423 0,0 0,0" /></g><g
             transform="translate(1005.7549,493.6338)"
             id="g13911"><path
               inkscape:connector-curvature="0"
               id="path13913"
               style="fill:#3b1c19;fill-opacity:1;fill-rule:nonzero;stroke:none"
               d="m 0,0 c -3.545,3.98 -93.192,35.967 -255.007,6.286 -1.219,-0.224 -2.295,-1.016 -2.674,-2.196 -0.597,-1.861 -0.578,-3.61 -0.342,-5.036 0.322,-1.956 2.273,-3.176 4.184,-2.651 C -215.353,6.986 -41.188,18.71 1.001,-11.205 0.335,-5.671 0,0 0,0" /></g><g
             transform="translate(1007.9619,467.291)"
             id="g13915"><path
               inkscape:connector-curvature="0"
               id="path13917"
               style="fill:#3b1c19;fill-opacity:1;fill-rule:nonzero;stroke:none"
               d="m 0,0 c -3.546,3.98 -95.399,35.465 -257.214,5.784 -1.219,-0.223 -2.295,-1.016 -2.674,-2.197 -0.597,-1.859 -0.578,-3.609 -0.342,-5.035 0.322,-1.956 2.272,-3.177 4.184,-2.651 C -217.56,6.484 -41.377,18.207 0.812,-11.707 0.146,-6.173 0,0 0,0" /></g><g
             transform="translate(1009.8994,445.5518)"
             id="g13919"><path
               inkscape:connector-curvature="0"
               id="path13921"
               style="fill:#3b1c19;fill-opacity:1;fill-rule:nonzero;stroke:none"
               d="m 0,0 c -3.546,3.98 -98.346,36.215 -260.161,6.534 -1.219,-0.223 -2.295,-1.016 -2.674,-2.196 -0.597,-1.86 -0.578,-3.609 -0.343,-5.036 0.324,-1.955 2.273,-3.176 4.184,-2.651 C -220.506,7.234 -42.14,18.958 0.05,-10.957 0.05,-5.997 0,0 0,0" /></g><g
             transform="translate(1010.667,421.377)"
             id="g13923"><path
               inkscape:connector-curvature="0"
               id="path13925"
               style="fill:#3b1c19;fill-opacity:1;fill-rule:nonzero;stroke:none"
               d="m 0,0 c -3.546,3.98 -96.846,36.777 -258.661,7.097 -1.219,-0.224 -2.295,-1.017 -2.673,-2.197 -0.598,-1.86 -0.579,-3.609 -0.343,-5.036 0.323,-1.956 2.273,-3.176 4.184,-2.65 C -219.006,7.797 -42.079,20.486 0.11,-9.429 0.11,-4.469 0,0 0,0" /></g><g
             transform="translate(1010.667,395.7969)"
             id="g13927"><path
               inkscape:connector-curvature="0"
               id="path13929"
               style="fill:#3b1c19;fill-opacity:1;fill-rule:nonzero;stroke:none"
               d="m 0,0 c -3.546,3.98 -96.846,36.777 -258.661,7.097 -1.219,-0.224 -2.295,-1.017 -2.673,-2.197 -0.598,-1.86 -0.579,-3.609 -0.343,-5.036 0.323,-1.956 2.273,-3.176 4.184,-2.65 C -219.006,7.797 -42.079,20.486 0.11,-9.429 0.11,-4.469 0,0 0,0" /></g><g
             transform="translate(1012.915,372.5596)"
             id="g13931"><path
               inkscape:connector-curvature="0"
               id="path13933"
               style="fill:#3b1c19;fill-opacity:1;fill-rule:nonzero;stroke:none"
               d="m 0,0 c -3.545,3.98 -96.845,36.777 -258.66,7.097 -1.219,-0.224 -2.295,-1.017 -2.674,-2.198 -0.597,-1.859 -0.578,-3.608 -0.342,-5.035 0.322,-1.956 2.273,-3.176 4.184,-2.65 C -219.005,7.797 -42.078,20.485 0.111,-9.429 0.111,-4.469 0,0 0,0" /></g><g
             transform="translate(1011.1025,348.6797)"
             id="g13935"><path
               inkscape:connector-curvature="0"
               id="path13937"
               style="fill:#3b1c19;fill-opacity:1;fill-rule:nonzero;stroke:none"
               d="m 0,0 c -3.546,3.98 -95.032,35.668 -256.848,5.987 -1.218,-0.223 -2.295,-1.016 -2.673,-2.196 -0.597,-1.86 -0.579,-3.609 -0.343,-5.036 0.323,-1.956 2.273,-3.176 4.184,-2.651 C -217.193,6.687 -42.515,20.852 -0.325,-9.063 -0.325,-4.104 0,0 0,0" /></g><g
             transform="translate(1008.8291,327.0469)"
             id="g13939"><path
               inkscape:connector-curvature="0"
               id="path13941"
               style="fill:#3b1c19;fill-opacity:1;fill-rule:nonzero;stroke:none"
               d="m 0,0 c -3.545,3.98 -87.038,33.073 -248.853,3.393 -1.219,-0.224 -2.295,-1.017 -2.674,-2.198 -0.597,-1.859 -0.578,-3.609 -0.343,-5.035 0.324,-1.956 2.273,-3.177 4.184,-2.65 C -209.198,4.093 -42.959,21.13 -0.77,-8.785 0,-4.616 0,0 0,0" /></g><g
             transform="translate(1007.1055,305.8701)"
             id="g13943"><path
               inkscape:connector-curvature="0"
               id="path13945"
               style="fill:#3b1c19;fill-opacity:1;fill-rule:nonzero;stroke:none"
               d="m 0,0 c -3.546,3.98 -87.038,33.073 -248.854,3.393 -1.218,-0.224 -2.294,-1.017 -2.673,-2.197 -0.597,-1.86 -0.578,-3.609 -0.343,-5.036 0.323,-1.955 2.273,-3.176 4.184,-2.65 C -209.199,4.093 -42.959,21.13 -0.77,-8.785 0,-4.616 0,0 0,0" /></g><g
             transform="translate(1003.1084,283.5703)"
             id="g13947"><path
               inkscape:connector-curvature="0"
               id="path13949"
               style="fill:#3b1c19;fill-opacity:1;fill-rule:nonzero;stroke:none"
               d="m 0,0 c -2.063,0.465 -70.867,22.469 -235.593,-0.307 -1.228,-0.17 -2.295,-1.016 -2.674,-2.196 -0.597,-1.86 -0.578,-3.609 -0.342,-5.036 0.323,-1.956 2.234,-3.004 4.184,-2.65 30.205,5.477 180.229,24.516 233.655,1.404 C 0,-4.617 0,0 0,0" /></g><g
             transform="translate(999.9912,263.8379)"
             id="g13951"><path
               inkscape:connector-curvature="0"
               id="path13953"
               style="fill:#3b1c19;fill-opacity:1;fill-rule:nonzero;stroke:none"
               d="m 0,0 c -3.363,-3.413 -64.124,14.031 -226.755,-2.5 -1.233,-0.125 -2.295,-1.017 -2.673,-2.196 -0.597,-1.861 -0.579,-3.61 -0.343,-5.036 0.323,-1.956 2.205,-2.754 4.184,-2.651 19.712,1.034 151.872,16.862 223.595,3.449 C -1.223,-4.765 0,0 0,0" /></g><g
             transform="translate(994.7949,242.3428)"
             id="g13955"><path
               inkscape:connector-curvature="0"
               id="path13957"
               style="fill:#3b1c19;fill-opacity:1;fill-rule:nonzero;stroke:none"
               d="m 0,0 c -25.322,2.6 -90.094,9.72 -213.969,-2.872 -1.233,-0.125 -2.295,-1.017 -2.674,-2.196 -0.596,-1.861 -0.578,-3.61 -0.342,-5.036 0.323,-1.956 2.205,-2.754 4.184,-2.651 18.583,0.976 137.099,15.097 210.705,5.476 C -2.399,-5.647 -1.187,-4.199 0,0" /></g><g
             transform="translate(986.8037,217.5234)"
             id="g13959"><path
               inkscape:connector-curvature="0"
               id="path13961"
               style="fill:#3b1c19;fill-opacity:1;fill-rule:nonzero;stroke:none"
               d="m 0,0 c -25.353,2.6 -75.401,11.487 -199.231,-1.103 -1.233,-0.125 -2.295,-1.016 -2.674,-2.196 -0.597,-1.86 -0.578,-3.609 -0.343,-5.036 0.324,-1.956 2.204,-2.58 4.185,-2.65 19.379,-0.694 114.94,14.521 194.047,0.911 C -4.32,-8.442 -1.187,-4.198 0,0" /></g><g
             id="g13963"><g
               id="g13965" /><g
               id="g13971"><g
                 style="opacity:0.30000299"
                 id="g13973"
                 clip-path="url(#clipPath13967)"><g
                   id="g13975"
                   transform="translate(738.9419,542.5156)"><path
                     inkscape:connector-curvature="0"
                     id="path13977"
                     style="fill:#9b9b9b;fill-opacity:1;fill-rule:nonzero;stroke:none"
                     d="m 0,0 c 0,-197.037 30.34,-355.575 19.828,-355.575 -10.512,0 -59.198,110.144 -49.459,310.482 C -20.287,147.118 5.243,346.049 40.59,380.394 48.156,372.682 0,197.037 0,0" /></g></g></g></g><g
             transform="translate(847.0239,662.5532)"
             id="g13979"><path
               inkscape:connector-curvature="0"
               id="path13981"
               style="fill:#e2d079;fill-opacity:1;fill-rule:nonzero;stroke:none"
               d="m 0,0 329.174,-455.581 c 1.557,-2.156 1.068,-5.193 -1.088,-6.751 l -15.401,-11.127 c -2.155,-1.558 -5.193,-1.069 -6.751,1.086 L -23.239,-16.792 c -1.558,2.156 -1.069,5.194 1.087,6.751 L -6.751,1.087 C -4.595,2.645 -1.558,2.155 0,0" /></g></g></g></g></g></svg>