<?xml version="1.0" encoding="UTF-8" standalone="no"?>
<!-- Created with Inkscape (http://www.inkscape.org/) -->

<svg
   xmlns:dc="http://purl.org/dc/elements/1.1/"
   xmlns:cc="http://creativecommons.org/ns#"
   xmlns:rdf="http://www.w3.org/1999/02/22-rdf-syntax-ns#"
   xmlns:svg="http://www.w3.org/2000/svg"
   xmlns="http://www.w3.org/2000/svg"
   xmlns:sodipodi="http://sodipodi.sourceforge.net/DTD/sodipodi-0.dtd"
   xmlns:inkscape="http://www.inkscape.org/namespaces/inkscape"
   id="svg12687"
   version="1.1"
   inkscape:version="0.91 r13725"
   xml:space="preserve"
   width="297.47815"
   height="1022.917"
   viewBox="0 0 297.47815 1022.917"
   sodipodi:docname="instructor.svg"><metadata
     id="metadata12693"><rdf:RDF><cc:Work
         rdf:about=""><dc:format>image/svg+xml</dc:format><dc:type
           rdf:resource="http://purl.org/dc/dcmitype/StillImage" /><dc:title></dc:title></cc:Work></rdf:RDF></metadata><defs
     id="defs12691"><clipPath
       id="clipPath15191"
       clipPathUnits="userSpaceOnUse"><path
         inkscape:connector-curvature="0"
         id="path15193"
         d="m 0,1080 1920,0 L 1920,0 0,0 0,1080 Z" /></clipPath><clipPath
       id="clipPath15219"
       clipPathUnits="userSpaceOnUse"><path
         inkscape:connector-curvature="0"
         id="path15221"
         d="m 896.411,638.061 185.849,0 0,-53.997 -185.849,0 0,53.997 z" /></clipPath><clipPath
       id="clipPath15239"
       clipPathUnits="userSpaceOnUse"><path
         inkscape:connector-curvature="0"
         id="path15241"
         d="m 981.566,638.061 100.694,0 0,-523.65 -100.694,0 0,523.65 z" /></clipPath><clipPath
       id="clipPath15259"
       clipPathUnits="userSpaceOnUse"><path
         inkscape:connector-curvature="0"
         id="path15261"
         d="m 987.688,543.879 14.882,0 0,-55.671 -14.882,0 0,55.671 z" /></clipPath></defs><sodipodi:namedview
     pagecolor="#ffffff"
     bordercolor="#666666"
     borderopacity="1"
     objecttolerance="10"
     gridtolerance="10"
     guidetolerance="10"
     inkscape:pageopacity="0"
     inkscape:pageshadow="2"
     inkscape:window-width="1920"
     inkscape:window-height="1137"
     id="namedview12689"
     showgrid="false"
     fit-margin-top="0"
     fit-margin-left="0"
     fit-margin-right="0"
     fit-margin-bottom="0"
     inkscape:zoom="0.13875"
     inkscape:cx="2612.7418"
     inkscape:cy="1568.4616"
     inkscape:window-x="-8"
     inkscape:window-y="-8"
     inkscape:window-maximized="1"
     inkscape:current-layer="g12695" /><g
     id="g12695"
     inkscape:groupmode="layer"
     inkscape:label="Congas"
     transform="matrix(1.25,0,0,-1.25,1412.7418,129.45546)"><g
       transform="translate(-1999.1712,-816.62273)"
       inkscape:label="Microphone"
       id="g15185"><g
         id="g15187"><g
           clip-path="url(#clipPath15191)"
           id="g15189"><g
             transform="translate(1009.1494,101.8535)"
             id="g15195"><path
               inkscape:connector-curvature="0"
               id="path15197"
               style="fill:#5f6364;fill-opacity:1;fill-rule:nonzero;stroke:none"
               d="m 0,0 -47.578,0 c -6.6,0 -12,5.4 -12,12 l 0,38.788 c 0,6.6 5.4,12 12,12 l 47.578,0 c 6.601,0 12,-5.4 12,-12 L 12,12 C 12,5.4 6.601,0 0,0" /></g><g
             transform="translate(896.4116,638.061)"
             id="g15199"><path
               inkscape:connector-curvature="0"
               id="path15201"
               style="fill:#21231e;fill-opacity:1;fill-rule:nonzero;stroke:none"
               d="m 0,0 12.366,-52.658 c 0.406,-1.727 0.669,-3.485 0.786,-5.256 l 30.381,-458.62 c 28.668,-8.688 60.129,-10.289 96.274,0 l 30.767,456.508 c 0.138,2.061 0.474,4.104 1.004,6.101 L 185.852,0 0,0 Z" /></g><g
             transform="translate(1063.083,901.3901)"
             id="g15203"><path
               inkscape:connector-curvature="0"
               id="path15205"
               style="fill:#828282;fill-opacity:1;fill-rule:nonzero;stroke:none"
               d="m 0,0 -11.642,8.408 c -9.351,6.754 -20.594,10.389 -32.129,10.389 l -58.793,0 c -11.214,0 -22.159,-3.436 -31.362,-9.844 l -14.378,-10.014 c -11.774,-8.2 -19.868,-20.685 -22.549,-34.781 l -16.361,-86.047 c -1.36,-7.156 -1.283,-14.512 0.229,-21.637 l 11.734,-55.317 c 2.073,-9.776 10.704,-16.767 20.697,-16.767 l 160.245,0 c 10.599,0 19.563,7.842 20.971,18.347 l 7.455,55.625 c 0.644,4.801 0.649,9.666 0.015,14.468 L 22.275,-37.309 C 20.3,-22.337 12.242,-8.842 0,0" /></g><g
             transform="translate(1094.3555,699.5928)"
             id="g15207"><path
               inkscape:connector-curvature="0"
               id="path15209"
               style="fill:#282828;fill-opacity:1;fill-rule:nonzero;stroke:none"
               d="m 0,0 -210.822,0 c -1.794,0 -3.056,-1.763 -2.478,-3.46 l 8.264,-24.276 c 0.361,-1.061 1.357,-1.774 2.477,-1.774 l 194.637,0 c 1.133,0 2.137,0.728 2.488,1.805 L 2.487,-3.429 C 3.04,-1.737 1.779,0 0,0" /></g><g
             transform="translate(1085.7188,671.1294)"
             id="g15211"><path
               inkscape:connector-curvature="0"
               id="path15213"
               style="fill:#000000;fill-opacity:1;fill-rule:nonzero;stroke:none"
               d="m 0,0 -193.549,0 c -1.647,0 -2.805,-2.026 -2.275,-3.976 l 7.587,-27.892 c 0.332,-1.218 1.246,-2.038 2.275,-2.038 l 178.69,0 c 1.04,0 1.961,0.838 2.284,2.074 L 2.284,-3.94 C 2.791,-1.997 1.634,0 0,0" /></g><g
             id="g15215"><g
               id="g15217" /><g
               id="g15223"><g
                 style="opacity:0.30000299"
                 id="g15225"
                 clip-path="url(#clipPath15219)"><g
                   id="g15227"
                   transform="translate(908.7778,585.4033)"><path
                     inkscape:connector-curvature="0"
                     id="path15229"
                     style="fill:#6b6b6b;fill-opacity:1;fill-rule:nonzero;stroke:none"
                     d="m 0,0 c 0.104,-0.443 0.172,-0.893 0.257,-1.34 l 158.937,0 c 0.006,0.024 0.011,0.048 0.017,0.072 l 14.275,53.926 -185.852,0 L 0,0 Z" /></g></g></g></g><g
             transform="translate(868.9863,770.3745)"
             id="g15231"><path
               inkscape:connector-curvature="0"
               id="path15233"
               style="fill:#b0b0b0;fill-opacity:1;fill-rule:nonzero;stroke:none"
               d="m 0,0 c -0.112,1.371 0.893,2.575 2.262,2.699 11.918,1.082 65.094,5.632 115.996,5.632 51.238,0 105.77,-4.611 117.438,-5.653 1.293,-0.115 2.278,-1.198 2.278,-2.495 l 0,-13.438 c 0,-1.453 -1.221,-2.602 -2.671,-2.501 -11.601,0.808 -59.68,3.978 -118.169,5.251 -58.04,1.263 -101.978,-5.254 -112.985,-7.073 -1.446,-0.239 -2.78,0.808 -2.899,2.269 L 0,0 Z" /></g><g
             id="g15235"><g
               id="g15237" /><g
               id="g15243"><g
                 style="opacity:0.30000299"
                 id="g15245"
                 clip-path="url(#clipPath15239)"><g
                   id="g15247"
                   transform="translate(989.3369,638.061)"><path
                     inkscape:connector-curvature="0"
                     id="path15249"
                     style="fill:#919191;fill-opacity:1;fill-rule:nonzero;stroke:none"
                     d="m 0,0 c 0,0 -7.771,-437.001 -7.771,-523.65 14.766,0.188 38.104,2.405 54.653,7.116 l 30.766,456.508 c 0.139,2.061 0.475,4.104 1.004,6.101 L 92.927,0 0,0 Z" /></g></g></g></g><path
             inkscape:connector-curvature="0"
             id="path15251"
             style="fill:#2f3130;fill-opacity:1;fill-rule:nonzero;stroke:#898989;stroke-width:1;stroke-linecap:butt;stroke-linejoin:miter;stroke-miterlimit:10;stroke-dasharray:none;stroke-opacity:1"
             d="m 1004.641,458.488 -33.905,0 0,87.903 33.905,0 0,-87.903 z" /><path
             inkscape:connector-curvature="0"
             id="path15253"
             style="fill:#e82e00;fill-opacity:1;fill-rule:nonzero;stroke:none"
             d="m 1002.573,488.208 -29.771,0 0,55.671 29.771,0 0,-55.671 z" /><g
             id="g15255"><g
               id="g15257" /><g
               id="g15263"><g
                 style="opacity:0.30000299"
                 id="g15265"
                 clip-path="url(#clipPath15259)"><path
                   inkscape:connector-curvature="0"
                   id="path15267"
                   style="fill:#777474;fill-opacity:1;fill-rule:nonzero;stroke:none"
                   d="m 1002.573,488.208 -14.885,0 0,55.671 14.885,0 0,-55.671 z" /></g></g></g></g></g></g></g></svg>