<?xml version="1.0" encoding="UTF-8" standalone="no"?>
<!-- Created with Inkscape (http://www.inkscape.org/) -->

<svg
   xmlns:dc="http://purl.org/dc/elements/1.1/"
   xmlns:cc="http://creativecommons.org/ns#"
   xmlns:rdf="http://www.w3.org/1999/02/22-rdf-syntax-ns#"
   xmlns:svg="http://www.w3.org/2000/svg"
   xmlns="http://www.w3.org/2000/svg"
   xmlns:sodipodi="http://sodipodi.sourceforge.net/DTD/sodipodi-0.dtd"
   xmlns:inkscape="http://www.inkscape.org/namespaces/inkscape"
   id="svg12687"
   version="1.1"
   inkscape:version="0.91 r13725"
   xml:space="preserve"
   width="647.64294"
   height="599.68158"
   viewBox="0 0 647.64295 599.68158"
   sodipodi:docname="tambora.svg"><metadata
     id="metadata12693"><rdf:RDF><cc:Work
         rdf:about=""><dc:format>image/svg+xml</dc:format><dc:type
           rdf:resource="http://purl.org/dc/dcmitype/StillImage" /><dc:title></dc:title></cc:Work></rdf:RDF></metadata><defs
     id="defs12691"><clipPath
       id="clipPath15325"
       clipPathUnits="userSpaceOnUse"><path
         inkscape:connector-curvature="0"
         id="path15327"
         d="m 0,1080 1920,0 L 1920,0 0,0 0,1080 Z" /></clipPath><clipPath
       id="clipPath15345"
       clipPathUnits="userSpaceOnUse"><path
         inkscape:connector-curvature="0"
         id="path15347"
         d="m 743.027,715.776 326.143,0 0,-22.806 -326.143,0 0,22.806 z" /></clipPath><clipPath
       id="clipPath15373"
       clipPathUnits="userSpaceOnUse"><path
         inkscape:connector-curvature="0"
         id="path15375"
         d="m 768.833,459.293 15.875,0 0,-70.253 -15.875,0 0,70.253 z" /></clipPath><clipPath
       id="clipPath15401"
       clipPathUnits="userSpaceOnUse"><path
         inkscape:connector-curvature="0"
         id="path15403"
         d="m 780.982,401.25 3.726,0 0,-64 -3.726,0 0,64 z" /></clipPath><clipPath
       id="clipPath15421"
       clipPathUnits="userSpaceOnUse"><path
         inkscape:connector-curvature="0"
         id="path15423"
         d="m 1022.33,459.293 15.88,0 0,-70.253 -15.88,0 0,70.253 z" /></clipPath><clipPath
       id="clipPath15449"
       clipPathUnits="userSpaceOnUse"><path
         inkscape:connector-curvature="0"
         id="path15451"
         d="m 1034.48,401.25 3.73,0 0,-64 -3.73,0 0,64 z" /></clipPath><clipPath
       id="clipPath15469"
       clipPathUnits="userSpaceOnUse"><path
         inkscape:connector-curvature="0"
         id="path15471"
         d="m 1038.21,585.743 15.87,0 0,-70.252 -15.87,0 0,70.252 z" /></clipPath><clipPath
       id="clipPath15497"
       clipPathUnits="userSpaceOnUse"><path
         inkscape:connector-curvature="0"
         id="path15499"
         d="m 1038.21,637.534 3.72,0 0,-64 -3.72,0 0,64 z" /></clipPath><clipPath
       id="clipPath15517"
       clipPathUnits="userSpaceOnUse"><path
         inkscape:connector-curvature="0"
         id="path15519"
         d="m 784.708,585.743 15.875,0 0,-70.252 -15.875,0 0,70.252 z" /></clipPath><clipPath
       id="clipPath15545"
       clipPathUnits="userSpaceOnUse"><path
         inkscape:connector-curvature="0"
         id="path15547"
         d="m 784.708,637.534 3.726,0 0,-64 -3.726,0 0,64 z" /></clipPath><clipPath
       id="clipPath15565"
       clipPathUnits="userSpaceOnUse"><path
         inkscape:connector-curvature="0"
         id="path15567"
         d="m 818.685,769.229 325.055,0 0,-63.276 -325.055,0 0,63.276 z" /></clipPath><clipPath
       id="clipPath15585"
       clipPathUnits="userSpaceOnUse"><path
         inkscape:connector-curvature="0"
         id="path15587"
         d="m 863.455,756.67 326.055,0 0,-57.308 -326.055,0 0,57.308 z" /></clipPath></defs><sodipodi:namedview
     pagecolor="#ffffff"
     bordercolor="#666666"
     borderopacity="1"
     objecttolerance="10"
     gridtolerance="10"
     guidetolerance="10"
     inkscape:pageopacity="0"
     inkscape:pageshadow="2"
     inkscape:window-width="1920"
     inkscape:window-height="1137"
     id="namedview12689"
     showgrid="false"
     fit-margin-top="0"
     fit-margin-left="0"
     fit-margin-right="0"
     fit-margin-bottom="0"
     inkscape:zoom="0.13875"
     inkscape:cx="3030.257"
     inkscape:cy="1342.1763"
     inkscape:window-x="-8"
     inkscape:window-y="-8"
     inkscape:window-maximized="1"
     inkscape:current-layer="g12695" /><g
     id="g12695"
     inkscape:groupmode="layer"
     inkscape:label="Congas"
     transform="matrix(1.25,0,0,-1.25,1830.2569,-67.494612)"><g
       transform="translate(-2171.235,-823.22515)"
       inkscape:label="Tambora"
       id="g15319"><g
         id="g15321"><g
           clip-path="url(#clipPath15325)"
           id="g15323"><g
             transform="translate(1095,561.3481)"
             id="g15329"><path
               inkscape:connector-curvature="0"
               id="path15331"
               style="fill:#191a1e;fill-opacity:1;fill-rule:nonzero;stroke:none"
               d="m 0,0 c 0,0 18.824,-14.997 43.5,-64.348 21.5,-43 49.623,-68.582 56.5,-83.333 11.5,-24.667 12.667,-4.667 23.333,-29.334 10.667,-24.666 6.367,-52.714 3.334,-56 -5.481,-5.937 -38.882,-16.74 -46.624,-15.409 -10.876,1.87 -26.782,-18.382 -40.043,-19.924 -13.789,-1.604 -62.867,-7.028 -74,-0.018 -10.406,6.552 -18.667,-0.649 -12.667,6.018 6,6.667 17.334,9.333 22.667,12.667 5.333,3.333 20,-13.667 38.5,-12.667 18.5,1 41.144,17.319 48,17 21.5,-1 57.5,19.167 57.5,26.5 0,7.333 -21.833,8.667 -36.5,24 -14.667,15.333 -36.5,42 -61.5,84 -19.313,32.446 -23.333,39.833 -23.333,39.833 L 0,0 Z" /></g><g
             transform="translate(1036.5654,319.4209)"
             id="g15333"><path
               inkscape:connector-curvature="0"
               id="path15335"
               style="fill:#b86e3e;fill-opacity:1;fill-rule:nonzero;stroke:none"
               d="m 0,0 -248.75,0 c -41.119,0 -74.763,33.644 -74.763,74.764 l 0,258.131 c 0,37.631 33.948,22.351 73.545,23.735 L 1.526,377.034 C 38.102,380.246 64.12,351.877 64.12,314.246 L 64.646,64.645 C 64.646,29.09 35.555,0 0,0" /></g><g
             transform="translate(895.6055,715.7964)"
             id="g15337"><path
               inkscape:connector-curvature="0"
               id="path15339"
               style="fill:#dcba9b;fill-opacity:1;fill-rule:nonzero;stroke:none"
               d="m 0,0 c -161.401,-1.51 -162.448,-12.009 -161.475,-38.023 0.914,-24.417 38.507,-27.837 38.507,-27.837 l 258.972,7.064 c 0,0 44.07,6.574 44.438,29.322 C 180.83,-5.527 157.451,-2.387 0,0" /></g><g
             id="g15341"><g
               id="g15343" /><g
               id="g15349"><g
                 style="opacity:0.30000299"
                 id="g15351"
                 clip-path="url(#clipPath15345)"><g
                   id="g15353"
                   transform="translate(1069.1689,704.373)"><path
                     inkscape:connector-curvature="0"
                     id="path15355"
                     style="fill:#8e8e8e;fill-opacity:1;fill-rule:nonzero;stroke:none"
                     d="m 0,0 c 0,-6.621 -86.908,-11.403 -165.71,-11.403 -78.802,0 -164.218,6.064 -160.302,11.403 4.324,5.896 85.013,11.178 160.302,11.395 C -82.576,11.633 0,6.621 0,0" /></g></g></g></g><g
             transform="translate(1041.0088,641.9175)"
             id="g15357"><path
               inkscape:connector-curvature="0"
               id="path15359"
               style="fill:#0c1010;fill-opacity:1;fill-rule:nonzero;stroke:none"
               d="m 0,0 c -7.801,1.182 -7.83,-10.524 -7.535,-15.21 0.066,-1.064 0.948,-1.888 2.014,-1.888 l 10.615,0 c 1.154,0 2.123,0.883 2.213,2.034 C 7.643,-10.784 7.539,-1.142 0,0 m -257.042,-2.503 c -8.697,0.221 -7.78,-12.593 -7.458,-16.236 0.042,-0.49 0.452,-0.863 0.943,-0.863 l 12.484,0 c 0.643,0 1.183,0.48 1.253,1.12 0.389,3.604 1.008,15.77 -7.222,15.979 m 316.6,22.238 C 57.991,14.083 48.993,15.484 44.866,13.125 40.738,10.767 22.868,2.121 18.741,-2.792 c -4.127,-4.914 -4.274,-6.143 -6.926,-9.439 -2.651,-3.297 1.259,-21.436 -14.616,-20.811 -14.858,0.584 -9.36,13.735 -11.916,16.094 -14.15,2.161 -15.151,13.211 -14.543,18.081 -64.481,-4.112 -128.229,-4.466 -191.227,-0.983 0,0 -4.275,-9.139 -9.434,-14.74 -5.159,-5.601 -6.633,-1.916 -10.023,-5.896 -3.39,-3.98 -1.032,-16.067 -16.214,-17.835 -12.824,-1.327 -13.856,18.867 -19.457,24.91 -8.402,6.191 -23.515,17.545 -25.578,20.64 -13.708,-1.621 -21.373,4.127 -24.027,7.223 -2.653,3.095 -3.191,6.904 -1.029,21.447 2.162,14.544 20.792,15.153 20.792,15.153 0,0 -4.617,-9.755 13.108,-13.163 27.276,-5.246 283.758,-6.486 310.226,0.901 18.047,4.602 15.056,15.607 15.056,15.607 17.725,0.769 27.979,-16.777 26.625,-34.662" /></g><g
             transform="translate(1043,336)"
             id="g15361"><path
               inkscape:connector-curvature="0"
               id="path15363"
               style="fill:#0c1010;fill-opacity:1;fill-rule:nonzero;stroke:none"
               d="m 0,0 0,11 c 0,2.75 -2.25,5 -5,5 -2.75,0 -5,-2.25 -5,-5 l 0,-11 c 0,-2.75 2.25,-5 5,-5 2.75,0 5,2.25 5,5 m -253.5,0 0,11 c 0,2.75 -2.25,5 -5,5 -2.75,0 -5,-2.25 -5,-5 l 0,-11 c 0,-2.75 2.25,-5 5,-5 2.75,0 5,2.25 5,5 m -76.447,90 c -6.024,-71.667 17.28,-74.667 38.455,-83.625 2.351,-0.994 4.968,-0.764 6.001,1.57 2.078,4.695 5.855,10.877 10.324,7.388 C -271.833,15 -268.333,27 -257.5,27 c 10.833,0 8,-16.904 16.167,-16.5 8.166,0.404 13.988,-9.765 20.333,-19 2.959,-7.53 137.111,-9.161 181.333,1 0,0 1.5,10.333 8.834,13.5 7.333,3.167 15.5,25.667 28.5,23.333 10.373,-1.861 22.11,-13.186 25.621,-18.493 0.731,-1.104 2.242,-1.377 3.3,-0.582 4.94,3.713 14.268,6.633 23.079,13.075 26.666,24.667 16,28.334 8.544,79.825 0,0 13.824,-39.75 13.289,-68.158 -5.372,-18.893 -6,-51.579 -125,-73.5 -204.5,-21 -265.204,35.067 -276.447,50 -13.553,18 0,78.5 0,78.5" /></g><g
             transform="translate(780.2534,457.4961)"
             id="g15365"><path
               inkscape:connector-curvature="0"
               id="path15367"
               style="fill:#18191b;fill-opacity:1;fill-rule:nonzero;stroke:none"
               d="m 0,0 -4.447,-5.988 c -0.57,-0.768 -0.878,-1.698 -0.878,-2.654 l 0,-18.518 c 0,-1.131 -0.43,-2.219 -1.204,-3.044 l -3.687,-3.932 c -0.774,-0.825 -1.204,-1.913 -1.204,-3.044 l 0,-16.589 c 0,-1.213 0.497,-2.376 1.375,-3.215 L 0.663,-67.222 c 1.498,-1.432 3.787,-1.64 5.519,-0.502 l 12.143,7.986 c 1.252,0.823 2.005,2.219 2.005,3.717 l 0,19.167 c 0,1.234 -0.512,2.412 -1.413,3.253 l -3.498,3.265 c -0.858,0.8 -1.365,1.907 -1.41,3.079 l -0.741,19.014 c -0.04,1.048 -0.45,2.048 -1.157,2.823 L 6.862,0.344 C 4.976,2.414 1.67,2.248 0,0" /></g><g
             id="g15369"><g
               id="g15371" /><g
               id="g15377"><g
                 style="opacity:0.30000299"
                 id="g15379"
                 clip-path="url(#clipPath15373)"><g
                   id="g15381"
                   transform="translate(780.2534,457.4961)"><path
                     inkscape:connector-curvature="0"
                     id="path15383"
                     style="fill:#878787;fill-opacity:1;fill-rule:nonzero;stroke:none"
                     d="m 0,0 -4.447,-5.988 c -0.57,-0.768 -0.878,-1.698 -0.878,-2.654 l 0,-18.518 c 0,-1.131 -0.43,-2.219 -1.204,-3.044 l -3.687,-3.932 c -0.774,-0.825 -1.204,-1.913 -1.204,-3.044 l 0,-16.589 c 0,-1.213 0.497,-2.376 1.375,-3.215 L 0.663,-67.222 c 1.498,-1.432 2.06,-1.64 3.792,-0.502 0,0 -0.791,59.895 -0.791,69.52 C 2.287,1.823 0.904,1.217 0,0" /></g></g></g></g><g
             transform="translate(788.1221,444.5156)"
             id="g15385"><path
               inkscape:connector-curvature="0"
               id="path15387"
               style="fill:#ddd9d6;fill-opacity:1;fill-rule:nonzero;stroke:none"
               d="m 0,0 c 0,-2.408 -1.849,-4.36 -4.128,-4.36 -2.281,0 -4.129,1.952 -4.129,4.36 0,2.407 1.848,4.359 4.129,4.359 C -1.849,4.359 0,2.407 0,0" /></g><g
             transform="translate(788.1221,413.4355)"
             id="g15389"><path
               inkscape:connector-curvature="0"
               id="path15391"
               style="fill:#ddd9d6;fill-opacity:1;fill-rule:nonzero;stroke:none"
               d="m 0,0 c 0,-2.407 -1.849,-4.359 -4.128,-4.359 -2.281,0 -4.129,1.952 -4.129,4.359 0,2.408 1.848,4.36 4.129,4.36 C -1.849,4.36 0,2.408 0,0" /></g><g
             transform="translate(784.7085,337.25)"
             id="g15393"><path
               inkscape:connector-curvature="0"
               id="path15395"
               style="fill:#aaa1a4;fill-opacity:1;fill-rule:nonzero;stroke:none"
               d="m 0,0 0,0 c -2.049,0 -3.726,1.677 -3.726,3.726 l 0,56.548 C -3.726,62.323 -2.049,64 0,64 2.049,64 3.726,62.323 3.726,60.274 l 0,-56.548 C 3.726,1.677 2.049,0 0,0" /></g><g
             id="g15397"><g
               id="g15399" /><g
               id="g15405"><g
                 style="opacity:0.30000299"
                 id="g15407"
                 clip-path="url(#clipPath15401)"><g
                   id="g15409"
                   transform="translate(784.7085,337.25)"><path
                     inkscape:connector-curvature="0"
                     id="path15411"
                     style="fill:#a5a5a5;fill-opacity:1;fill-rule:nonzero;stroke:none"
                     d="m 0,0 0,0 c -2.049,0 -3.726,1.677 -3.726,3.726 l 0,56.548 C -3.726,62.323 -2.049,64 0,64 L 0,0 Z" /></g></g></g></g><g
             transform="translate(1033.7539,457.4961)"
             id="g15413"><path
               inkscape:connector-curvature="0"
               id="path15415"
               style="fill:#18191b;fill-opacity:1;fill-rule:nonzero;stroke:none"
               d="m 0,0 -4.448,-5.988 c -0.57,-0.768 -0.877,-1.698 -0.877,-2.654 l 0,-18.518 c 0,-1.131 -0.431,-2.219 -1.204,-3.044 l -3.688,-3.932 c -0.773,-0.825 -1.204,-1.913 -1.204,-3.044 l 0,-16.589 c 0,-1.213 0.497,-2.376 1.375,-3.215 L 0.662,-67.222 c 1.498,-1.432 3.787,-1.64 5.52,-0.502 l 12.142,7.986 c 1.252,0.823 2.005,2.219 2.005,3.717 l 0,19.167 c 0,1.234 -0.512,2.412 -1.413,3.253 l -3.498,3.265 c -0.857,0.8 -1.364,1.907 -1.41,3.079 l -0.74,19.014 c -0.041,1.048 -0.451,2.048 -1.157,2.823 L 6.861,0.344 C 4.976,2.414 1.669,2.248 0,0" /></g><g
             id="g15417"><g
               id="g15419" /><g
               id="g15425"><g
                 style="opacity:0.30000299"
                 id="g15427"
                 clip-path="url(#clipPath15421)"><g
                   id="g15429"
                   transform="translate(1033.7539,457.4961)"><path
                     inkscape:connector-curvature="0"
                     id="path15431"
                     style="fill:#878787;fill-opacity:1;fill-rule:nonzero;stroke:none"
                     d="m 0,0 -4.448,-5.988 c -0.57,-0.768 -0.877,-1.698 -0.877,-2.654 l 0,-18.518 c 0,-1.131 -0.431,-2.219 -1.204,-3.044 l -3.688,-3.932 c -0.773,-0.825 -1.204,-1.913 -1.204,-3.044 l 0,-16.589 c 0,-1.213 0.497,-2.376 1.375,-3.215 L 0.662,-67.222 c 1.498,-1.432 2.061,-1.64 3.792,-0.502 0,0 -0.79,59.895 -0.79,69.52 C 2.286,1.823 0.903,1.217 0,0" /></g></g></g></g><g
             transform="translate(1041.6221,444.5156)"
             id="g15433"><path
               inkscape:connector-curvature="0"
               id="path15435"
               style="fill:#ddd9d6;fill-opacity:1;fill-rule:nonzero;stroke:none"
               d="m 0,0 c 0,-2.408 -1.849,-4.36 -4.129,-4.36 -2.279,0 -4.128,1.952 -4.128,4.36 0,2.407 1.849,4.359 4.128,4.359 C -1.849,4.359 0,2.407 0,0" /></g><g
             transform="translate(1041.6221,413.4355)"
             id="g15437"><path
               inkscape:connector-curvature="0"
               id="path15439"
               style="fill:#ddd9d6;fill-opacity:1;fill-rule:nonzero;stroke:none"
               d="m 0,0 c 0,-2.407 -1.849,-4.359 -4.129,-4.359 -2.279,0 -4.128,1.952 -4.128,4.359 0,2.408 1.849,4.36 4.128,4.36 C -1.849,4.36 0,2.408 0,0" /></g><g
             transform="translate(1038.208,337.25)"
             id="g15441"><path
               inkscape:connector-curvature="0"
               id="path15443"
               style="fill:#aaa1a4;fill-opacity:1;fill-rule:nonzero;stroke:none"
               d="m 0,0 0,0 c -2.049,0 -3.726,1.677 -3.726,3.726 l 0,56.548 C -3.726,62.323 -2.049,64 0,64 2.05,64 3.727,62.323 3.727,60.274 l 0,-56.548 C 3.727,1.677 2.05,0 0,0" /></g><g
             id="g15445"><g
               id="g15447" /><g
               id="g15453"><g
                 style="opacity:0.30000299"
                 id="g15455"
                 clip-path="url(#clipPath15449)"><g
                   id="g15457"
                   transform="translate(1038.208,337.25)"><path
                     inkscape:connector-curvature="0"
                     id="path15459"
                     style="fill:#a5a5a5;fill-opacity:1;fill-rule:nonzero;stroke:none"
                     d="m 0,0 0,0 c -2.049,0 -3.726,1.677 -3.726,3.726 l 0,56.548 C -3.726,62.323 -2.049,64 0,64 L 0,0 Z" /></g></g></g></g><g
             transform="translate(1042.6631,517.2871)"
             id="g15461"><path
               inkscape:connector-curvature="0"
               id="path15463"
               style="fill:#18191b;fill-opacity:1;fill-rule:nonzero;stroke:none"
               d="m 0,0 4.447,5.989 c 0.571,0.767 0.878,1.698 0.878,2.653 l 0,18.519 c 0,1.13 0.43,2.218 1.203,3.043 l 3.689,3.933 c 0.773,0.824 1.203,1.913 1.203,3.043 l 0,16.589 c 0,1.214 -0.496,2.377 -1.374,3.216 L -0.662,67.223 c -1.498,1.432 -3.788,1.64 -5.52,0.501 l -12.143,-7.985 c -1.251,-0.823 -2.005,-2.22 -2.005,-3.718 l 0,-19.167 c 0,-1.233 0.513,-2.411 1.414,-3.253 l 3.497,-3.264 c 0.858,-0.801 1.365,-1.908 1.41,-3.08 l 0.741,-19.013 c 0.04,-1.048 0.451,-2.048 1.157,-2.823 l 5.25,-5.764 C -4.976,-2.413 -1.67,-2.248 0,0" /></g><g
             id="g15465"><g
               id="g15467" /><g
               id="g15473"><g
                 style="opacity:0.30000299"
                 id="g15475"
                 clip-path="url(#clipPath15469)"><g
                   id="g15477"
                   transform="translate(1042.6631,517.2871)"><path
                     inkscape:connector-curvature="0"
                     id="path15479"
                     style="fill:#878787;fill-opacity:1;fill-rule:nonzero;stroke:none"
                     d="m 0,0 4.447,5.989 c 0.571,0.767 0.878,1.698 0.878,2.653 l 0,18.519 c 0,1.13 0.43,2.218 1.203,3.043 l 3.689,3.933 c 0.773,0.824 1.203,1.913 1.203,3.043 l 0,16.589 c 0,1.214 -0.496,2.377 -1.374,3.216 L -0.662,67.223 c -1.498,1.432 -2.061,1.64 -3.793,0.501 0,0 0.791,-59.894 0.791,-69.519 C -2.286,-1.822 -0.903,-1.216 0,0" /></g></g></g></g><g
             transform="translate(1034.7949,530.2686)"
             id="g15481"><path
               inkscape:connector-curvature="0"
               id="path15483"
               style="fill:#ddd9d6;fill-opacity:1;fill-rule:nonzero;stroke:none"
               d="M 0,0 C 0,2.407 1.848,4.359 4.128,4.359 6.408,4.359 8.257,2.407 8.257,0 8.257,-2.408 6.408,-4.359 4.128,-4.359 1.848,-4.359 0,-2.408 0,0" /></g><g
             transform="translate(1034.7949,561.3481)"
             id="g15485"><path
               inkscape:connector-curvature="0"
               id="path15487"
               style="fill:#ddd9d6;fill-opacity:1;fill-rule:nonzero;stroke:none"
               d="M 0,0 C 0,2.408 1.848,4.359 4.128,4.359 6.408,4.359 8.257,2.408 8.257,0 8.257,-2.408 6.408,-4.36 4.128,-4.36 1.848,-4.36 0,-2.408 0,0" /></g><g
             transform="translate(1038.208,637.5337)"
             id="g15489"><path
               inkscape:connector-curvature="0"
               id="path15491"
               style="fill:#aaa1a4;fill-opacity:1;fill-rule:nonzero;stroke:none"
               d="m 0,0 0,0 c 2.05,0 3.727,-1.677 3.727,-3.726 l 0,-56.548 C 3.727,-62.323 2.05,-64 0,-64 c -2.049,0 -3.726,1.677 -3.726,3.726 l 0,56.548 C -3.726,-1.677 -2.049,0 0,0" /></g><g
             id="g15493"><g
               id="g15495" /><g
               id="g15501"><g
                 style="opacity:0.30000299"
                 id="g15503"
                 clip-path="url(#clipPath15497)"><g
                   id="g15505"
                   transform="translate(1038.208,637.5337)"><path
                     inkscape:connector-curvature="0"
                     id="path15507"
                     style="fill:#a5a5a5;fill-opacity:1;fill-rule:nonzero;stroke:none"
                     d="m 0,0 0,0 c 2.05,0 3.727,-1.677 3.727,-3.726 l 0,-56.548 C 3.727,-62.323 2.05,-64 0,-64 L 0,0 Z" /></g></g></g></g><g
             transform="translate(789.1631,517.2871)"
             id="g15509"><path
               inkscape:connector-curvature="0"
               id="path15511"
               style="fill:#18191b;fill-opacity:1;fill-rule:nonzero;stroke:none"
               d="m 0,0 4.448,5.989 c 0.569,0.767 0.877,1.698 0.877,2.653 l 0,18.519 c 0,1.13 0.43,2.218 1.204,3.043 l 3.687,3.933 c 0.774,0.824 1.204,1.913 1.204,3.043 l 0,16.589 c 0,1.214 -0.496,2.377 -1.375,3.216 L -0.662,67.223 c -1.499,1.432 -3.788,1.64 -5.52,0.501 l -12.143,-7.985 c -1.251,-0.823 -2.005,-2.22 -2.005,-3.718 l 0,-19.167 c 0,-1.233 0.512,-2.411 1.414,-3.253 l 3.498,-3.264 c 0.857,-0.801 1.364,-1.908 1.41,-3.08 l 0.74,-19.013 c 0.041,-1.048 0.451,-2.048 1.157,-2.823 l 5.249,-5.764 C -4.976,-2.413 -1.669,-2.248 0,0" /></g><g
             id="g15513"><g
               id="g15515" /><g
               id="g15521"><g
                 style="opacity:0.30000299"
                 id="g15523"
                 clip-path="url(#clipPath15517)"><g
                   id="g15525"
                   transform="translate(789.1631,517.2871)"><path
                     inkscape:connector-curvature="0"
                     id="path15527"
                     style="fill:#878787;fill-opacity:1;fill-rule:nonzero;stroke:none"
                     d="m 0,0 4.448,5.989 c 0.569,0.767 0.877,1.698 0.877,2.653 l 0,18.519 c 0,1.13 0.43,2.218 1.204,3.043 l 3.687,3.933 c 0.774,0.824 1.204,1.913 1.204,3.043 l 0,16.589 c 0,1.214 -0.496,2.377 -1.375,3.216 L -0.662,67.223 c -1.499,1.432 -2.061,1.64 -3.793,0.501 0,0 0.791,-59.894 0.791,-69.519 C -2.286,-1.822 -0.903,-1.216 0,0" /></g></g></g></g><g
             transform="translate(781.2944,530.2686)"
             id="g15529"><path
               inkscape:connector-curvature="0"
               id="path15531"
               style="fill:#ddd9d6;fill-opacity:1;fill-rule:nonzero;stroke:none"
               d="M 0,0 C 0,2.407 1.849,4.359 4.128,4.359 6.409,4.359 8.257,2.407 8.257,0 8.257,-2.408 6.409,-4.359 4.128,-4.359 1.849,-4.359 0,-2.408 0,0" /></g><g
             transform="translate(781.2944,561.3481)"
             id="g15533"><path
               inkscape:connector-curvature="0"
               id="path15535"
               style="fill:#ddd9d6;fill-opacity:1;fill-rule:nonzero;stroke:none"
               d="M 0,0 C 0,2.408 1.849,4.359 4.128,4.359 6.409,4.359 8.257,2.408 8.257,0 8.257,-2.408 6.409,-4.36 4.128,-4.36 1.849,-4.36 0,-2.408 0,0" /></g><g
             transform="translate(784.7085,637.5337)"
             id="g15537"><path
               inkscape:connector-curvature="0"
               id="path15539"
               style="fill:#aaa1a4;fill-opacity:1;fill-rule:nonzero;stroke:none"
               d="m 0,0 0,0 c 2.049,0 3.726,-1.677 3.726,-3.726 l 0,-56.548 C 3.726,-62.323 2.049,-64 0,-64 c -2.049,0 -3.726,1.677 -3.726,3.726 l 0,56.548 C -3.726,-1.677 -2.049,0 0,0" /></g><g
             id="g15541"><g
               id="g15543" /><g
               id="g15549"><g
                 style="opacity:0.30000299"
                 id="g15551"
                 clip-path="url(#clipPath15545)"><g
                   id="g15553"
                   transform="translate(784.7085,637.5337)"><path
                     inkscape:connector-curvature="0"
                     id="path15555"
                     style="fill:#a5a5a5;fill-opacity:1;fill-rule:nonzero;stroke:none"
                     d="m 0,0 0,0 c 2.049,0 3.726,-1.677 3.726,-3.726 l 0,-56.548 C 3.726,-62.323 2.049,-64 0,-64 L 0,0 Z" /></g></g></g></g><g
             transform="translate(1138.0713,755.3364)"
             id="g15557"><path
               inkscape:connector-curvature="0"
               id="path15559"
               style="fill:#f4b780;fill-opacity:1;fill-rule:nonzero;stroke:none"
               d="m 0,0 -311.167,-55.057 c -3.791,-0.671 -7.442,1.882 -8.113,5.673 -0.671,3.792 1.883,7.442 5.674,8.113 L -2.439,13.786 C 1.352,14.457 5.002,11.903 5.673,8.112 6.344,4.321 3.791,0.67 0,0" /></g><g
             id="g15561"><g
               id="g15563" /><g
               id="g15569"><g
                 style="opacity:0.30000299"
                 id="g15571"
                 clip-path="url(#clipPath15565)"><g
                   id="g15573"
                   transform="translate(818.7915,705.9526)"><path
                     inkscape:connector-curvature="0"
                     id="path15575"
                     style="fill:#a0a0a0;fill-opacity:1;fill-rule:nonzero;stroke:none"
                     d="M 0,0 0,0 C -0.671,3.792 1.882,7.442 5.673,8.113 L 316.84,63.169 c 3.791,0.671 7.442,-1.882 8.113,-5.673 C 311.988,55.202 31.675,5.604 0,0" /></g></g></g></g><g
             transform="translate(1183.6885,742.7554)"
             id="g15577"><path
               inkscape:connector-curvature="0"
               id="path15579"
               style="fill:#f4b780;fill-opacity:1;fill-rule:nonzero;stroke:none"
               d="m 0,0 -312.144,-49.218 c -3.803,-0.599 -7.405,2.022 -8.004,5.825 -0.6,3.803 2.021,7.405 5.824,8.005 L -2.181,13.829 C 1.623,14.429 5.225,11.808 5.824,8.004 6.424,4.202 3.803,0.6 0,0" /></g><g
             id="g15581"><g
               id="g15583" /><g
               id="g15589"><g
                 style="opacity:0.30000299"
                 id="g15591"
                 clip-path="url(#clipPath15585)"><g
                   id="g15593"
                   transform="translate(863.54,699.3623)"><path
                     inkscape:connector-curvature="0"
                     id="path15595"
                     style="fill:#a0a0a0;fill-opacity:1;fill-rule:nonzero;stroke:none"
                     d="m 0,0 0,0 c -0.6,3.803 2.021,7.405 5.824,8.005 l 312.144,49.217 c 3.803,0.6 7.405,-2.021 8.005,-5.825 C 312.967,49.347 31.774,5.01 0,0" /></g></g></g></g><g
             transform="translate(1076.2705,302.7646)"
             id="g15597"><path
               inkscape:connector-curvature="0"
               id="path15599"
               style="fill:none;stroke:#777779;stroke-width:6;stroke-linecap:butt;stroke-linejoin:miter;stroke-miterlimit:10;stroke-dasharray:none;stroke-opacity:1"
               d="m 0,0 -15.111,-6.062 c -6.125,-2.458 -13.148,0.543 -15.605,6.668 l -2.11,5.26 c -2.457,6.125 0.544,13.148 6.67,15.605 l 15.111,6.062 C -4.92,29.99 2.103,26.989 4.56,20.864 l 2.11,-5.26 C 9.127,9.479 6.126,2.457 0,0 Z" /></g><g
             transform="translate(1054.3701,312.8984)"
             id="g15601"><path
               inkscape:connector-curvature="0"
               id="path15603"
               style="fill:none;stroke:#595959;stroke-width:6;stroke-linecap:butt;stroke-linejoin:miter;stroke-miterlimit:10;stroke-dasharray:none;stroke-opacity:1"
               d="m 0,0 0,0 c -4.724,-2.538 -10.665,-0.75 -13.203,3.974 l -10.393,19.338 c -2.539,4.723 -0.751,10.665 3.973,13.204 4.724,2.538 10.665,0.751 13.204,-3.973 L 3.974,13.204 C 6.512,8.48 4.724,2.539 0,0 Z" /></g></g></g></g></g></svg>